M48
INCH,TZ
T1C0.0157
T2C0.0315
T3C0.0394
T4C0.1181
%
G90
G05
T1
X39081Y-38569
X39850Y-38600
X42350Y-25900
X42350Y-27450
X51150Y-22750
X51200Y-34250
X51650Y-35250
X52000Y-36200
X52050Y-25950
X52800Y-31850
X52800Y-34000
X53250Y-27350
X53300Y-28400
X53350Y-30350
X53350Y-37200
X53400Y-32400
X55500Y-25950
X55650Y-38400
X55900Y-28400
X55950Y-30350
X56000Y-32400
X56400Y-22800
X56400Y-24500
T2
X46591Y-25219
X46591Y-26219
X46591Y-27219
X46591Y-28219
X46591Y-29219
X46591Y-30219
X46591Y-31219
X46591Y-32219
X46591Y-33219
X46591Y-34219
X46591Y-35219
X46591Y-36219
X46591Y-37219
X46591Y-38219
X49591Y-25219
X49591Y-26219
X49591Y-27219
X49591Y-28219
X49591Y-29219
X49591Y-30219
X49591Y-31219
X49591Y-32219
X49591Y-33219
X49591Y-34219
X49591Y-35219
X49591Y-36219
X49591Y-37219
X49591Y-38219
T3
X53550Y-41900
X54550Y-41900
X55550Y-41900
X56550Y-41900
X53000Y-21700
X53000Y-22700
X53000Y-23700
X54000Y-21700
X54000Y-22700
X54000Y-23700
X43100Y-32700
X43100Y-33700
X43100Y-34700
X61150Y-27350
X61150Y-28350
X61150Y-29350
X61150Y-30350
X61150Y-31350
X61150Y-32350
X61150Y-33350
X61150Y-34350
X61150Y-35350
X61150Y-36350
X38950Y-41950
X39950Y-41950
X61250Y-21700
X61250Y-22700
X61250Y-23700
X61250Y-24700
T4
X39550Y-22000
X61300Y-41650
T0
M30
