G04 #@! TF.GenerationSoftware,KiCad,Pcbnew,(5.1.2)-1*
G04 #@! TF.CreationDate,2019-09-17T06:22:35+02:00*
G04 #@! TF.ProjectId,PiezoBedSensor,5069657a-6f42-4656-9453-656e736f722e,rev?*
G04 #@! TF.SameCoordinates,Original*
G04 #@! TF.FileFunction,Legend,Top*
G04 #@! TF.FilePolarity,Positive*
%FSLAX46Y46*%
G04 Gerber Fmt 4.6, Leading zero omitted, Abs format (unit mm)*
G04 Created by KiCad (PCBNEW (5.1.2)-1) date 2019-09-17 06:22:35*
%MOMM*%
%LPD*%
G04 APERTURE LIST*
%ADD10C,0.300000*%
%ADD11C,0.150000*%
%ADD12C,0.120000*%
G04 APERTURE END LIST*
D10*
X147617571Y-99718428D02*
X146117571Y-99718428D01*
X147617571Y-99004142D02*
X146117571Y-99004142D01*
X147617571Y-98147000D01*
X146117571Y-98147000D01*
X147617571Y-97432714D02*
X146117571Y-97432714D01*
X146117571Y-97075571D01*
X146189000Y-96861285D01*
X146331857Y-96718428D01*
X146474714Y-96647000D01*
X146760428Y-96575571D01*
X146974714Y-96575571D01*
X147260428Y-96647000D01*
X147403285Y-96718428D01*
X147546142Y-96861285D01*
X147617571Y-97075571D01*
X147617571Y-97432714D01*
X146117571Y-95932714D02*
X147331857Y-95932714D01*
X147474714Y-95861285D01*
X147546142Y-95789857D01*
X147617571Y-95647000D01*
X147617571Y-95361285D01*
X147546142Y-95218428D01*
X147474714Y-95147000D01*
X147331857Y-95075571D01*
X146117571Y-95075571D01*
X147474714Y-93504142D02*
X147546142Y-93575571D01*
X147617571Y-93789857D01*
X147617571Y-93932714D01*
X147546142Y-94147000D01*
X147403285Y-94289857D01*
X147260428Y-94361285D01*
X146974714Y-94432714D01*
X146760428Y-94432714D01*
X146474714Y-94361285D01*
X146331857Y-94289857D01*
X146189000Y-94147000D01*
X146117571Y-93932714D01*
X146117571Y-93789857D01*
X146189000Y-93575571D01*
X146260428Y-93504142D01*
X133096285Y-99000571D02*
X133953428Y-99000571D01*
X133524857Y-100500571D02*
X133524857Y-99000571D01*
X135310571Y-100500571D02*
X134810571Y-99786285D01*
X134453428Y-100500571D02*
X134453428Y-99000571D01*
X135024857Y-99000571D01*
X135167714Y-99072000D01*
X135239142Y-99143428D01*
X135310571Y-99286285D01*
X135310571Y-99500571D01*
X135239142Y-99643428D01*
X135167714Y-99714857D01*
X135024857Y-99786285D01*
X134453428Y-99786285D01*
X135953428Y-100500571D02*
X135953428Y-99000571D01*
X137453428Y-99072000D02*
X137310571Y-99000571D01*
X137096285Y-99000571D01*
X136882000Y-99072000D01*
X136739142Y-99214857D01*
X136667714Y-99357714D01*
X136596285Y-99643428D01*
X136596285Y-99857714D01*
X136667714Y-100143428D01*
X136739142Y-100286285D01*
X136882000Y-100429142D01*
X137096285Y-100500571D01*
X137239142Y-100500571D01*
X137453428Y-100429142D01*
X137524857Y-100357714D01*
X137524857Y-99857714D01*
X137239142Y-99857714D01*
X108137857Y-103797571D02*
X108137857Y-102297571D01*
X108709285Y-102297571D01*
X108852142Y-102369000D01*
X108923571Y-102440428D01*
X108995000Y-102583285D01*
X108995000Y-102797571D01*
X108923571Y-102940428D01*
X108852142Y-103011857D01*
X108709285Y-103083285D01*
X108137857Y-103083285D01*
X109637857Y-103797571D02*
X109637857Y-102797571D01*
X109637857Y-102297571D02*
X109566428Y-102369000D01*
X109637857Y-102440428D01*
X109709285Y-102369000D01*
X109637857Y-102297571D01*
X109637857Y-102440428D01*
X110923571Y-103726142D02*
X110780714Y-103797571D01*
X110495000Y-103797571D01*
X110352142Y-103726142D01*
X110280714Y-103583285D01*
X110280714Y-103011857D01*
X110352142Y-102869000D01*
X110495000Y-102797571D01*
X110780714Y-102797571D01*
X110923571Y-102869000D01*
X110995000Y-103011857D01*
X110995000Y-103154714D01*
X110280714Y-103297571D01*
X111495000Y-102797571D02*
X112280714Y-102797571D01*
X111495000Y-103797571D01*
X112280714Y-103797571D01*
X113066428Y-103797571D02*
X112923571Y-103726142D01*
X112852142Y-103654714D01*
X112780714Y-103511857D01*
X112780714Y-103083285D01*
X112852142Y-102940428D01*
X112923571Y-102869000D01*
X113066428Y-102797571D01*
X113280714Y-102797571D01*
X113423571Y-102869000D01*
X113495000Y-102940428D01*
X113566428Y-103083285D01*
X113566428Y-103511857D01*
X113495000Y-103654714D01*
X113423571Y-103726142D01*
X113280714Y-103797571D01*
X113066428Y-103797571D01*
X115137857Y-102797571D02*
X115709285Y-102797571D01*
X115352142Y-102297571D02*
X115352142Y-103583285D01*
X115423571Y-103726142D01*
X115566428Y-103797571D01*
X115709285Y-103797571D01*
X116423571Y-103797571D02*
X116280714Y-103726142D01*
X116209285Y-103654714D01*
X116137857Y-103511857D01*
X116137857Y-103083285D01*
X116209285Y-102940428D01*
X116280714Y-102869000D01*
X116423571Y-102797571D01*
X116637857Y-102797571D01*
X116780714Y-102869000D01*
X116852142Y-102940428D01*
X116923571Y-103083285D01*
X116923571Y-103511857D01*
X116852142Y-103654714D01*
X116780714Y-103726142D01*
X116637857Y-103797571D01*
X116423571Y-103797571D01*
X118209285Y-102797571D02*
X118209285Y-103797571D01*
X117566428Y-102797571D02*
X117566428Y-103583285D01*
X117637857Y-103726142D01*
X117780714Y-103797571D01*
X117995000Y-103797571D01*
X118137857Y-103726142D01*
X118209285Y-103654714D01*
X119566428Y-103726142D02*
X119423571Y-103797571D01*
X119137857Y-103797571D01*
X118995000Y-103726142D01*
X118923571Y-103654714D01*
X118852142Y-103511857D01*
X118852142Y-103083285D01*
X118923571Y-102940428D01*
X118995000Y-102869000D01*
X119137857Y-102797571D01*
X119423571Y-102797571D01*
X119566428Y-102869000D01*
X120209285Y-103797571D02*
X120209285Y-102297571D01*
X120852142Y-103797571D02*
X120852142Y-103011857D01*
X120780714Y-102869000D01*
X120637857Y-102797571D01*
X120423571Y-102797571D01*
X120280714Y-102869000D01*
X120209285Y-102940428D01*
X122637857Y-103726142D02*
X122780714Y-103797571D01*
X123066428Y-103797571D01*
X123209285Y-103726142D01*
X123280714Y-103583285D01*
X123280714Y-103511857D01*
X123209285Y-103369000D01*
X123066428Y-103297571D01*
X122852142Y-103297571D01*
X122709285Y-103226142D01*
X122637857Y-103083285D01*
X122637857Y-103011857D01*
X122709285Y-102869000D01*
X122852142Y-102797571D01*
X123066428Y-102797571D01*
X123209285Y-102869000D01*
X124495000Y-103726142D02*
X124352142Y-103797571D01*
X124066428Y-103797571D01*
X123923571Y-103726142D01*
X123852142Y-103583285D01*
X123852142Y-103011857D01*
X123923571Y-102869000D01*
X124066428Y-102797571D01*
X124352142Y-102797571D01*
X124495000Y-102869000D01*
X124566428Y-103011857D01*
X124566428Y-103154714D01*
X123852142Y-103297571D01*
X125209285Y-102797571D02*
X125209285Y-103797571D01*
X125209285Y-102940428D02*
X125280714Y-102869000D01*
X125423571Y-102797571D01*
X125637857Y-102797571D01*
X125780714Y-102869000D01*
X125852142Y-103011857D01*
X125852142Y-103797571D01*
X126495000Y-103726142D02*
X126637857Y-103797571D01*
X126923571Y-103797571D01*
X127066428Y-103726142D01*
X127137857Y-103583285D01*
X127137857Y-103511857D01*
X127066428Y-103369000D01*
X126923571Y-103297571D01*
X126709285Y-103297571D01*
X126566428Y-103226142D01*
X126495000Y-103083285D01*
X126495000Y-103011857D01*
X126566428Y-102869000D01*
X126709285Y-102797571D01*
X126923571Y-102797571D01*
X127066428Y-102869000D01*
X127995000Y-103797571D02*
X127852142Y-103726142D01*
X127780714Y-103654714D01*
X127709285Y-103511857D01*
X127709285Y-103083285D01*
X127780714Y-102940428D01*
X127852142Y-102869000D01*
X127995000Y-102797571D01*
X128209285Y-102797571D01*
X128352142Y-102869000D01*
X128423571Y-102940428D01*
X128495000Y-103083285D01*
X128495000Y-103511857D01*
X128423571Y-103654714D01*
X128352142Y-103726142D01*
X128209285Y-103797571D01*
X127995000Y-103797571D01*
X129137857Y-103797571D02*
X129137857Y-102797571D01*
X129137857Y-103083285D02*
X129209285Y-102940428D01*
X129280714Y-102869000D01*
X129423571Y-102797571D01*
X129566428Y-102797571D01*
X110387857Y-106347571D02*
X110387857Y-105347571D01*
X110387857Y-104847571D02*
X110316428Y-104919000D01*
X110387857Y-104990428D01*
X110459285Y-104919000D01*
X110387857Y-104847571D01*
X110387857Y-104990428D01*
X111102142Y-105347571D02*
X111102142Y-106347571D01*
X111102142Y-105490428D02*
X111173571Y-105419000D01*
X111316428Y-105347571D01*
X111530714Y-105347571D01*
X111673571Y-105419000D01*
X111745000Y-105561857D01*
X111745000Y-106347571D01*
X112245000Y-105347571D02*
X112816428Y-105347571D01*
X112459285Y-104847571D02*
X112459285Y-106133285D01*
X112530714Y-106276142D01*
X112673571Y-106347571D01*
X112816428Y-106347571D01*
X113887857Y-106276142D02*
X113745000Y-106347571D01*
X113459285Y-106347571D01*
X113316428Y-106276142D01*
X113245000Y-106133285D01*
X113245000Y-105561857D01*
X113316428Y-105419000D01*
X113459285Y-105347571D01*
X113745000Y-105347571D01*
X113887857Y-105419000D01*
X113959285Y-105561857D01*
X113959285Y-105704714D01*
X113245000Y-105847571D01*
X114602142Y-106347571D02*
X114602142Y-105347571D01*
X114602142Y-105633285D02*
X114673571Y-105490428D01*
X114745000Y-105419000D01*
X114887857Y-105347571D01*
X115030714Y-105347571D01*
X115316428Y-105347571D02*
X115887857Y-105347571D01*
X115530714Y-106347571D02*
X115530714Y-105061857D01*
X115602142Y-104919000D01*
X115745000Y-104847571D01*
X115887857Y-104847571D01*
X117030714Y-106347571D02*
X117030714Y-105561857D01*
X116959285Y-105419000D01*
X116816428Y-105347571D01*
X116530714Y-105347571D01*
X116387857Y-105419000D01*
X117030714Y-106276142D02*
X116887857Y-106347571D01*
X116530714Y-106347571D01*
X116387857Y-106276142D01*
X116316428Y-106133285D01*
X116316428Y-105990428D01*
X116387857Y-105847571D01*
X116530714Y-105776142D01*
X116887857Y-105776142D01*
X117030714Y-105704714D01*
X118387857Y-106276142D02*
X118245000Y-106347571D01*
X117959285Y-106347571D01*
X117816428Y-106276142D01*
X117745000Y-106204714D01*
X117673571Y-106061857D01*
X117673571Y-105633285D01*
X117745000Y-105490428D01*
X117816428Y-105419000D01*
X117959285Y-105347571D01*
X118245000Y-105347571D01*
X118387857Y-105419000D01*
X119602142Y-106276142D02*
X119459285Y-106347571D01*
X119173571Y-106347571D01*
X119030714Y-106276142D01*
X118959285Y-106133285D01*
X118959285Y-105561857D01*
X119030714Y-105419000D01*
X119173571Y-105347571D01*
X119459285Y-105347571D01*
X119602142Y-105419000D01*
X119673571Y-105561857D01*
X119673571Y-105704714D01*
X118959285Y-105847571D01*
X121459285Y-106347571D02*
X121459285Y-104847571D01*
X121459285Y-105419000D02*
X121602142Y-105347571D01*
X121887857Y-105347571D01*
X122030714Y-105419000D01*
X122102142Y-105490428D01*
X122173571Y-105633285D01*
X122173571Y-106061857D01*
X122102142Y-106204714D01*
X122030714Y-106276142D01*
X121887857Y-106347571D01*
X121602142Y-106347571D01*
X121459285Y-106276142D01*
X123030714Y-106347571D02*
X122887857Y-106276142D01*
X122816428Y-106204714D01*
X122745000Y-106061857D01*
X122745000Y-105633285D01*
X122816428Y-105490428D01*
X122887857Y-105419000D01*
X123030714Y-105347571D01*
X123245000Y-105347571D01*
X123387857Y-105419000D01*
X123459285Y-105490428D01*
X123530714Y-105633285D01*
X123530714Y-106061857D01*
X123459285Y-106204714D01*
X123387857Y-106276142D01*
X123245000Y-106347571D01*
X123030714Y-106347571D01*
X124816428Y-106347571D02*
X124816428Y-105561857D01*
X124745000Y-105419000D01*
X124602142Y-105347571D01*
X124316428Y-105347571D01*
X124173571Y-105419000D01*
X124816428Y-106276142D02*
X124673571Y-106347571D01*
X124316428Y-106347571D01*
X124173571Y-106276142D01*
X124102142Y-106133285D01*
X124102142Y-105990428D01*
X124173571Y-105847571D01*
X124316428Y-105776142D01*
X124673571Y-105776142D01*
X124816428Y-105704714D01*
X125530714Y-106347571D02*
X125530714Y-105347571D01*
X125530714Y-105633285D02*
X125602142Y-105490428D01*
X125673571Y-105419000D01*
X125816428Y-105347571D01*
X125959285Y-105347571D01*
X127102142Y-106347571D02*
X127102142Y-104847571D01*
X127102142Y-106276142D02*
X126959285Y-106347571D01*
X126673571Y-106347571D01*
X126530714Y-106276142D01*
X126459285Y-106204714D01*
X126387857Y-106061857D01*
X126387857Y-105633285D01*
X126459285Y-105490428D01*
X126530714Y-105419000D01*
X126673571Y-105347571D01*
X126959285Y-105347571D01*
X127102142Y-105419000D01*
D11*
X139636666Y-55460380D02*
X139970000Y-56460380D01*
X140303333Y-55460380D01*
X141208095Y-56365142D02*
X141160476Y-56412761D01*
X141017619Y-56460380D01*
X140922380Y-56460380D01*
X140779523Y-56412761D01*
X140684285Y-56317523D01*
X140636666Y-56222285D01*
X140589047Y-56031809D01*
X140589047Y-55888952D01*
X140636666Y-55698476D01*
X140684285Y-55603238D01*
X140779523Y-55508000D01*
X140922380Y-55460380D01*
X141017619Y-55460380D01*
X141160476Y-55508000D01*
X141208095Y-55555619D01*
X142208095Y-56365142D02*
X142160476Y-56412761D01*
X142017619Y-56460380D01*
X141922380Y-56460380D01*
X141779523Y-56412761D01*
X141684285Y-56317523D01*
X141636666Y-56222285D01*
X141589047Y-56031809D01*
X141589047Y-55888952D01*
X141636666Y-55698476D01*
X141684285Y-55603238D01*
X141779523Y-55508000D01*
X141922380Y-55460380D01*
X142017619Y-55460380D01*
X142160476Y-55508000D01*
X142208095Y-55555619D01*
X139398571Y-58110380D02*
X139398571Y-57110380D01*
X139731904Y-57824666D01*
X140065238Y-57110380D01*
X140065238Y-58110380D01*
X140731904Y-57110380D02*
X140922380Y-57110380D01*
X141017619Y-57158000D01*
X141112857Y-57253238D01*
X141160476Y-57443714D01*
X141160476Y-57777047D01*
X141112857Y-57967523D01*
X141017619Y-58062761D01*
X140922380Y-58110380D01*
X140731904Y-58110380D01*
X140636666Y-58062761D01*
X140541428Y-57967523D01*
X140493809Y-57777047D01*
X140493809Y-57443714D01*
X140541428Y-57253238D01*
X140636666Y-57158000D01*
X140731904Y-57110380D01*
X141541428Y-58062761D02*
X141684285Y-58110380D01*
X141922380Y-58110380D01*
X142017619Y-58062761D01*
X142065238Y-58015142D01*
X142112857Y-57919904D01*
X142112857Y-57824666D01*
X142065238Y-57729428D01*
X142017619Y-57681809D01*
X141922380Y-57634190D01*
X141731904Y-57586571D01*
X141636666Y-57538952D01*
X141589047Y-57491333D01*
X141541428Y-57396095D01*
X141541428Y-57300857D01*
X141589047Y-57205619D01*
X141636666Y-57158000D01*
X141731904Y-57110380D01*
X141970000Y-57110380D01*
X142112857Y-57158000D01*
X142541428Y-58110380D02*
X142541428Y-57110380D01*
X140208095Y-58808000D02*
X140112857Y-58760380D01*
X139970000Y-58760380D01*
X139827142Y-58808000D01*
X139731904Y-58903238D01*
X139684285Y-58998476D01*
X139636666Y-59188952D01*
X139636666Y-59331809D01*
X139684285Y-59522285D01*
X139731904Y-59617523D01*
X139827142Y-59712761D01*
X139970000Y-59760380D01*
X140065238Y-59760380D01*
X140208095Y-59712761D01*
X140255714Y-59665142D01*
X140255714Y-59331809D01*
X140065238Y-59331809D01*
X140684285Y-59760380D02*
X140684285Y-58760380D01*
X141255714Y-59760380D01*
X141255714Y-58760380D01*
X141731904Y-59760380D02*
X141731904Y-58760380D01*
X141970000Y-58760380D01*
X142112857Y-58808000D01*
X142208095Y-58903238D01*
X142255714Y-58998476D01*
X142303333Y-59188952D01*
X142303333Y-59331809D01*
X142255714Y-59522285D01*
X142208095Y-59617523D01*
X142112857Y-59712761D01*
X141970000Y-59760380D01*
X141731904Y-59760380D01*
X125936571Y-56079380D02*
X125936571Y-55079380D01*
X126269904Y-55793666D01*
X126603238Y-55079380D01*
X126603238Y-56079380D01*
X127079428Y-56079380D02*
X127079428Y-55079380D01*
X127508000Y-56031761D02*
X127650857Y-56079380D01*
X127888952Y-56079380D01*
X127984190Y-56031761D01*
X128031809Y-55984142D01*
X128079428Y-55888904D01*
X128079428Y-55793666D01*
X128031809Y-55698428D01*
X127984190Y-55650809D01*
X127888952Y-55603190D01*
X127698476Y-55555571D01*
X127603238Y-55507952D01*
X127555619Y-55460333D01*
X127508000Y-55365095D01*
X127508000Y-55269857D01*
X127555619Y-55174619D01*
X127603238Y-55127000D01*
X127698476Y-55079380D01*
X127936571Y-55079380D01*
X128079428Y-55127000D01*
X128698476Y-55079380D02*
X128888952Y-55079380D01*
X128984190Y-55127000D01*
X129079428Y-55222238D01*
X129127047Y-55412714D01*
X129127047Y-55746047D01*
X129079428Y-55936523D01*
X128984190Y-56031761D01*
X128888952Y-56079380D01*
X128698476Y-56079380D01*
X128603238Y-56031761D01*
X128508000Y-55936523D01*
X128460380Y-55746047D01*
X128460380Y-55412714D01*
X128508000Y-55222238D01*
X128603238Y-55127000D01*
X128698476Y-55079380D01*
X126222285Y-57681761D02*
X126365142Y-57729380D01*
X126603238Y-57729380D01*
X126698476Y-57681761D01*
X126746095Y-57634142D01*
X126793714Y-57538904D01*
X126793714Y-57443666D01*
X126746095Y-57348428D01*
X126698476Y-57300809D01*
X126603238Y-57253190D01*
X126412761Y-57205571D01*
X126317523Y-57157952D01*
X126269904Y-57110333D01*
X126222285Y-57015095D01*
X126222285Y-56919857D01*
X126269904Y-56824619D01*
X126317523Y-56777000D01*
X126412761Y-56729380D01*
X126650857Y-56729380D01*
X126793714Y-56777000D01*
X127793714Y-57634142D02*
X127746095Y-57681761D01*
X127603238Y-57729380D01*
X127508000Y-57729380D01*
X127365142Y-57681761D01*
X127269904Y-57586523D01*
X127222285Y-57491285D01*
X127174666Y-57300809D01*
X127174666Y-57157952D01*
X127222285Y-56967476D01*
X127269904Y-56872238D01*
X127365142Y-56777000D01*
X127508000Y-56729380D01*
X127603238Y-56729380D01*
X127746095Y-56777000D01*
X127793714Y-56824619D01*
X128222285Y-57729380D02*
X128222285Y-56729380D01*
X128793714Y-57729380D02*
X128365142Y-57157952D01*
X128793714Y-56729380D02*
X128222285Y-57300809D01*
X126960380Y-59379380D02*
X126627047Y-58903190D01*
X126388952Y-59379380D02*
X126388952Y-58379380D01*
X126769904Y-58379380D01*
X126865142Y-58427000D01*
X126912761Y-58474619D01*
X126960380Y-58569857D01*
X126960380Y-58712714D01*
X126912761Y-58807952D01*
X126865142Y-58855571D01*
X126769904Y-58903190D01*
X126388952Y-58903190D01*
X127341333Y-59331761D02*
X127484190Y-59379380D01*
X127722285Y-59379380D01*
X127817523Y-59331761D01*
X127865142Y-59284142D01*
X127912761Y-59188904D01*
X127912761Y-59093666D01*
X127865142Y-58998428D01*
X127817523Y-58950809D01*
X127722285Y-58903190D01*
X127531809Y-58855571D01*
X127436571Y-58807952D01*
X127388952Y-58760333D01*
X127341333Y-58665095D01*
X127341333Y-58569857D01*
X127388952Y-58474619D01*
X127436571Y-58427000D01*
X127531809Y-58379380D01*
X127769904Y-58379380D01*
X127912761Y-58427000D01*
X128198476Y-58379380D02*
X128769904Y-58379380D01*
X128484190Y-59379380D02*
X128484190Y-58379380D01*
X159154761Y-66055047D02*
X159202380Y-65912190D01*
X159202380Y-65674095D01*
X159154761Y-65578857D01*
X159107142Y-65531238D01*
X159011904Y-65483619D01*
X158916666Y-65483619D01*
X158821428Y-65531238D01*
X158773809Y-65578857D01*
X158726190Y-65674095D01*
X158678571Y-65864571D01*
X158630952Y-65959809D01*
X158583333Y-66007428D01*
X158488095Y-66055047D01*
X158392857Y-66055047D01*
X158297619Y-66007428D01*
X158250000Y-65959809D01*
X158202380Y-65864571D01*
X158202380Y-65626476D01*
X158250000Y-65483619D01*
X159202380Y-65055047D02*
X158202380Y-65055047D01*
X158202380Y-64816952D01*
X158250000Y-64674095D01*
X158345238Y-64578857D01*
X158440476Y-64531238D01*
X158630952Y-64483619D01*
X158773809Y-64483619D01*
X158964285Y-64531238D01*
X159059523Y-64578857D01*
X159154761Y-64674095D01*
X159202380Y-64816952D01*
X159202380Y-65055047D01*
X158916666Y-64102666D02*
X158916666Y-63626476D01*
X159202380Y-64197904D02*
X158202380Y-63864571D01*
X159202380Y-63531238D01*
X159154761Y-62483619D02*
X159202380Y-62340761D01*
X159202380Y-62102666D01*
X159154761Y-62007428D01*
X159107142Y-61959809D01*
X159011904Y-61912190D01*
X158916666Y-61912190D01*
X158821428Y-61959809D01*
X158773809Y-62007428D01*
X158726190Y-62102666D01*
X158678571Y-62293142D01*
X158630952Y-62388380D01*
X158583333Y-62436000D01*
X158488095Y-62483619D01*
X158392857Y-62483619D01*
X158297619Y-62436000D01*
X158250000Y-62388380D01*
X158202380Y-62293142D01*
X158202380Y-62055047D01*
X158250000Y-61912190D01*
X159107142Y-60912190D02*
X159154761Y-60959809D01*
X159202380Y-61102666D01*
X159202380Y-61197904D01*
X159154761Y-61340761D01*
X159059523Y-61436000D01*
X158964285Y-61483619D01*
X158773809Y-61531238D01*
X158630952Y-61531238D01*
X158440476Y-61483619D01*
X158345238Y-61436000D01*
X158250000Y-61340761D01*
X158202380Y-61197904D01*
X158202380Y-61102666D01*
X158250000Y-60959809D01*
X158297619Y-60912190D01*
X159202380Y-60007428D02*
X159202380Y-60483619D01*
X158202380Y-60483619D01*
X158250000Y-58388380D02*
X158202380Y-58483619D01*
X158202380Y-58626476D01*
X158250000Y-58769333D01*
X158345238Y-58864571D01*
X158440476Y-58912190D01*
X158630952Y-58959809D01*
X158773809Y-58959809D01*
X158964285Y-58912190D01*
X159059523Y-58864571D01*
X159154761Y-58769333D01*
X159202380Y-58626476D01*
X159202380Y-58531238D01*
X159154761Y-58388380D01*
X159107142Y-58340761D01*
X158773809Y-58340761D01*
X158773809Y-58531238D01*
X159202380Y-57912190D02*
X158202380Y-57912190D01*
X159202380Y-57340761D01*
X158202380Y-57340761D01*
X159202380Y-56864571D02*
X158202380Y-56864571D01*
X158202380Y-56626476D01*
X158250000Y-56483619D01*
X158345238Y-56388380D01*
X158440476Y-56340761D01*
X158630952Y-56293142D01*
X158773809Y-56293142D01*
X158964285Y-56340761D01*
X159059523Y-56388380D01*
X159154761Y-56483619D01*
X159202380Y-56626476D01*
X159202380Y-56864571D01*
X159202380Y-54531238D02*
X158726190Y-54864571D01*
X159202380Y-55102666D02*
X158202380Y-55102666D01*
X158202380Y-54721714D01*
X158250000Y-54626476D01*
X158297619Y-54578857D01*
X158392857Y-54531238D01*
X158535714Y-54531238D01*
X158630952Y-54578857D01*
X158678571Y-54626476D01*
X158726190Y-54721714D01*
X158726190Y-55102666D01*
X159154761Y-54150285D02*
X159202380Y-54007428D01*
X159202380Y-53769333D01*
X159154761Y-53674095D01*
X159107142Y-53626476D01*
X159011904Y-53578857D01*
X158916666Y-53578857D01*
X158821428Y-53626476D01*
X158773809Y-53674095D01*
X158726190Y-53769333D01*
X158678571Y-53959809D01*
X158630952Y-54055047D01*
X158583333Y-54102666D01*
X158488095Y-54150285D01*
X158392857Y-54150285D01*
X158297619Y-54102666D01*
X158250000Y-54055047D01*
X158202380Y-53959809D01*
X158202380Y-53721714D01*
X158250000Y-53578857D01*
X158202380Y-53293142D02*
X158202380Y-52721714D01*
X159202380Y-53007428D02*
X158202380Y-53007428D01*
X157615000Y-93676857D02*
X157567380Y-93772095D01*
X157567380Y-93914952D01*
X157615000Y-94057809D01*
X157710238Y-94153047D01*
X157805476Y-94200666D01*
X157995952Y-94248285D01*
X158138809Y-94248285D01*
X158329285Y-94200666D01*
X158424523Y-94153047D01*
X158519761Y-94057809D01*
X158567380Y-93914952D01*
X158567380Y-93819714D01*
X158519761Y-93676857D01*
X158472142Y-93629238D01*
X158138809Y-93629238D01*
X158138809Y-93819714D01*
X158567380Y-93200666D02*
X157567380Y-93200666D01*
X158567380Y-92629238D01*
X157567380Y-92629238D01*
X158567380Y-92153047D02*
X157567380Y-92153047D01*
X157567380Y-91914952D01*
X157615000Y-91772095D01*
X157710238Y-91676857D01*
X157805476Y-91629238D01*
X157995952Y-91581619D01*
X158138809Y-91581619D01*
X158329285Y-91629238D01*
X158424523Y-91676857D01*
X158519761Y-91772095D01*
X158567380Y-91914952D01*
X158567380Y-92153047D01*
X157567380Y-90534000D02*
X158567380Y-90200666D01*
X157567380Y-89867333D01*
X158472142Y-88962571D02*
X158519761Y-89010190D01*
X158567380Y-89153047D01*
X158567380Y-89248285D01*
X158519761Y-89391142D01*
X158424523Y-89486380D01*
X158329285Y-89534000D01*
X158138809Y-89581619D01*
X157995952Y-89581619D01*
X157805476Y-89534000D01*
X157710238Y-89486380D01*
X157615000Y-89391142D01*
X157567380Y-89248285D01*
X157567380Y-89153047D01*
X157615000Y-89010190D01*
X157662619Y-88962571D01*
X158472142Y-87962571D02*
X158519761Y-88010190D01*
X158567380Y-88153047D01*
X158567380Y-88248285D01*
X158519761Y-88391142D01*
X158424523Y-88486380D01*
X158329285Y-88534000D01*
X158138809Y-88581619D01*
X157995952Y-88581619D01*
X157805476Y-88534000D01*
X157710238Y-88486380D01*
X157615000Y-88391142D01*
X157567380Y-88248285D01*
X157567380Y-88153047D01*
X157615000Y-88010190D01*
X157662619Y-87962571D01*
X158281666Y-86819714D02*
X158281666Y-86343523D01*
X158567380Y-86914952D02*
X157567380Y-86581619D01*
X158567380Y-86248285D01*
X158186428Y-85914952D02*
X158186428Y-85153047D01*
X158281666Y-84724476D02*
X158281666Y-84248285D01*
X158567380Y-84819714D02*
X157567380Y-84486380D01*
X158567380Y-84153047D01*
X158186428Y-83819714D02*
X158186428Y-83057809D01*
X158567380Y-83438761D02*
X157805476Y-83438761D01*
X158043571Y-81486380D02*
X158091190Y-81343523D01*
X158138809Y-81295904D01*
X158234047Y-81248285D01*
X158376904Y-81248285D01*
X158472142Y-81295904D01*
X158519761Y-81343523D01*
X158567380Y-81438761D01*
X158567380Y-81819714D01*
X157567380Y-81819714D01*
X157567380Y-81486380D01*
X157615000Y-81391142D01*
X157662619Y-81343523D01*
X157757857Y-81295904D01*
X157853095Y-81295904D01*
X157948333Y-81343523D01*
X157995952Y-81391142D01*
X158043571Y-81486380D01*
X158043571Y-81819714D01*
X158186428Y-80819714D02*
X158186428Y-80057809D01*
X158043571Y-79248285D02*
X158091190Y-79105428D01*
X158138809Y-79057809D01*
X158234047Y-79010190D01*
X158376904Y-79010190D01*
X158472142Y-79057809D01*
X158519761Y-79105428D01*
X158567380Y-79200666D01*
X158567380Y-79581619D01*
X157567380Y-79581619D01*
X157567380Y-79248285D01*
X157615000Y-79153047D01*
X157662619Y-79105428D01*
X157757857Y-79057809D01*
X157853095Y-79057809D01*
X157948333Y-79105428D01*
X157995952Y-79153047D01*
X158043571Y-79248285D01*
X158043571Y-79581619D01*
X158186428Y-78581619D02*
X158186428Y-77819714D01*
X158567380Y-78200666D02*
X157805476Y-78200666D01*
X158472142Y-76772095D02*
X158519761Y-76819714D01*
X158567380Y-76962571D01*
X158567380Y-77057809D01*
X158519761Y-77200666D01*
X158424523Y-77295904D01*
X158329285Y-77343523D01*
X158138809Y-77391142D01*
X157995952Y-77391142D01*
X157805476Y-77343523D01*
X157710238Y-77295904D01*
X157615000Y-77200666D01*
X157567380Y-77057809D01*
X157567380Y-76962571D01*
X157615000Y-76819714D01*
X157662619Y-76772095D01*
X158186428Y-76343523D02*
X158186428Y-75581619D01*
X158472142Y-74534000D02*
X158519761Y-74581619D01*
X158567380Y-74724476D01*
X158567380Y-74819714D01*
X158519761Y-74962571D01*
X158424523Y-75057809D01*
X158329285Y-75105428D01*
X158138809Y-75153047D01*
X157995952Y-75153047D01*
X157805476Y-75105428D01*
X157710238Y-75057809D01*
X157615000Y-74962571D01*
X157567380Y-74819714D01*
X157567380Y-74724476D01*
X157615000Y-74581619D01*
X157662619Y-74534000D01*
X158186428Y-74105428D02*
X158186428Y-73343523D01*
X158567380Y-73724476D02*
X157805476Y-73724476D01*
X158567380Y-72867333D02*
X157567380Y-72867333D01*
X157567380Y-72629238D01*
X157615000Y-72486380D01*
X157710238Y-72391142D01*
X157805476Y-72343523D01*
X157995952Y-72295904D01*
X158138809Y-72295904D01*
X158329285Y-72343523D01*
X158424523Y-72391142D01*
X158519761Y-72486380D01*
X158567380Y-72629238D01*
X158567380Y-72867333D01*
X158186428Y-71867333D02*
X158186428Y-71105428D01*
X158567380Y-70629238D02*
X157567380Y-70629238D01*
X157567380Y-70391142D01*
X157615000Y-70248285D01*
X157710238Y-70153047D01*
X157805476Y-70105428D01*
X157995952Y-70057809D01*
X158138809Y-70057809D01*
X158329285Y-70105428D01*
X158424523Y-70153047D01*
X158519761Y-70248285D01*
X158567380Y-70391142D01*
X158567380Y-70629238D01*
X158186428Y-69629238D02*
X158186428Y-68867333D01*
X158567380Y-69248285D02*
X157805476Y-69248285D01*
X133382666Y-108847000D02*
X133287428Y-108799380D01*
X133144571Y-108799380D01*
X133001714Y-108847000D01*
X132906476Y-108942238D01*
X132858857Y-109037476D01*
X132811238Y-109227952D01*
X132811238Y-109370809D01*
X132858857Y-109561285D01*
X132906476Y-109656523D01*
X133001714Y-109751761D01*
X133144571Y-109799380D01*
X133239809Y-109799380D01*
X133382666Y-109751761D01*
X133430285Y-109704142D01*
X133430285Y-109370809D01*
X133239809Y-109370809D01*
X133858857Y-109799380D02*
X133858857Y-108799380D01*
X134430285Y-109799380D01*
X134430285Y-108799380D01*
X134906476Y-109799380D02*
X134906476Y-108799380D01*
X135144571Y-108799380D01*
X135287428Y-108847000D01*
X135382666Y-108942238D01*
X135430285Y-109037476D01*
X135477904Y-109227952D01*
X135477904Y-109370809D01*
X135430285Y-109561285D01*
X135382666Y-109656523D01*
X135287428Y-109751761D01*
X135144571Y-109799380D01*
X134906476Y-109799380D01*
X136525523Y-108799380D02*
X137096952Y-108799380D01*
X136811238Y-109799380D02*
X136811238Y-108799380D01*
X138001714Y-109799380D02*
X137668380Y-109323190D01*
X137430285Y-109799380D02*
X137430285Y-108799380D01*
X137811238Y-108799380D01*
X137906476Y-108847000D01*
X137954095Y-108894619D01*
X138001714Y-108989857D01*
X138001714Y-109132714D01*
X137954095Y-109227952D01*
X137906476Y-109275571D01*
X137811238Y-109323190D01*
X137430285Y-109323190D01*
X138430285Y-109799380D02*
X138430285Y-108799380D01*
X139430285Y-108847000D02*
X139335047Y-108799380D01*
X139192190Y-108799380D01*
X139049333Y-108847000D01*
X138954095Y-108942238D01*
X138906476Y-109037476D01*
X138858857Y-109227952D01*
X138858857Y-109370809D01*
X138906476Y-109561285D01*
X138954095Y-109656523D01*
X139049333Y-109751761D01*
X139192190Y-109799380D01*
X139287428Y-109799380D01*
X139430285Y-109751761D01*
X139477904Y-109704142D01*
X139477904Y-109370809D01*
X139287428Y-109370809D01*
X141192190Y-108847000D02*
X141096952Y-108799380D01*
X140954095Y-108799380D01*
X140811238Y-108847000D01*
X140716000Y-108942238D01*
X140668380Y-109037476D01*
X140620761Y-109227952D01*
X140620761Y-109370809D01*
X140668380Y-109561285D01*
X140716000Y-109656523D01*
X140811238Y-109751761D01*
X140954095Y-109799380D01*
X141049333Y-109799380D01*
X141192190Y-109751761D01*
X141239809Y-109704142D01*
X141239809Y-109370809D01*
X141049333Y-109370809D01*
X141668380Y-109799380D02*
X141668380Y-108799380D01*
X142239809Y-109799380D01*
X142239809Y-108799380D01*
X142716000Y-109799380D02*
X142716000Y-108799380D01*
X142954095Y-108799380D01*
X143096952Y-108847000D01*
X143192190Y-108942238D01*
X143239809Y-109037476D01*
X143287428Y-109227952D01*
X143287428Y-109370809D01*
X143239809Y-109561285D01*
X143192190Y-109656523D01*
X143096952Y-109751761D01*
X142954095Y-109799380D01*
X142716000Y-109799380D01*
X144477904Y-109799380D02*
X144477904Y-108799380D01*
X144954095Y-109799380D02*
X144954095Y-108799380D01*
X145525523Y-109799380D01*
X145525523Y-108799380D01*
X146001714Y-109799380D02*
X146001714Y-108799380D01*
X146239809Y-108799380D01*
X146382666Y-108847000D01*
X146477904Y-108942238D01*
X146525523Y-109037476D01*
X146573142Y-109227952D01*
X146573142Y-109370809D01*
X146525523Y-109561285D01*
X146477904Y-109656523D01*
X146382666Y-109751761D01*
X146239809Y-109799380D01*
X146001714Y-109799380D01*
X147001714Y-108799380D02*
X147001714Y-109608904D01*
X147049333Y-109704142D01*
X147096952Y-109751761D01*
X147192190Y-109799380D01*
X147382666Y-109799380D01*
X147477904Y-109751761D01*
X147525523Y-109704142D01*
X147573142Y-109608904D01*
X147573142Y-108799380D01*
X148620761Y-109704142D02*
X148573142Y-109751761D01*
X148430285Y-109799380D01*
X148335047Y-109799380D01*
X148192190Y-109751761D01*
X148096952Y-109656523D01*
X148049333Y-109561285D01*
X148001714Y-109370809D01*
X148001714Y-109227952D01*
X148049333Y-109037476D01*
X148096952Y-108942238D01*
X148192190Y-108847000D01*
X148335047Y-108799380D01*
X148430285Y-108799380D01*
X148573142Y-108847000D01*
X148620761Y-108894619D01*
X100838095Y-108466000D02*
X100742857Y-108418380D01*
X100600000Y-108418380D01*
X100457142Y-108466000D01*
X100361904Y-108561238D01*
X100314285Y-108656476D01*
X100266666Y-108846952D01*
X100266666Y-108989809D01*
X100314285Y-109180285D01*
X100361904Y-109275523D01*
X100457142Y-109370761D01*
X100600000Y-109418380D01*
X100695238Y-109418380D01*
X100838095Y-109370761D01*
X100885714Y-109323142D01*
X100885714Y-108989809D01*
X100695238Y-108989809D01*
X101314285Y-109418380D02*
X101314285Y-108418380D01*
X101885714Y-109418380D01*
X101885714Y-108418380D01*
X102361904Y-109418380D02*
X102361904Y-108418380D01*
X102600000Y-108418380D01*
X102742857Y-108466000D01*
X102838095Y-108561238D01*
X102885714Y-108656476D01*
X102933333Y-108846952D01*
X102933333Y-108989809D01*
X102885714Y-109180285D01*
X102838095Y-109275523D01*
X102742857Y-109370761D01*
X102600000Y-109418380D01*
X102361904Y-109418380D01*
X96964666Y-108418380D02*
X97298000Y-109418380D01*
X97631333Y-108418380D01*
X98536095Y-109323142D02*
X98488476Y-109370761D01*
X98345619Y-109418380D01*
X98250380Y-109418380D01*
X98107523Y-109370761D01*
X98012285Y-109275523D01*
X97964666Y-109180285D01*
X97917047Y-108989809D01*
X97917047Y-108846952D01*
X97964666Y-108656476D01*
X98012285Y-108561238D01*
X98107523Y-108466000D01*
X98250380Y-108418380D01*
X98345619Y-108418380D01*
X98488476Y-108466000D01*
X98536095Y-108513619D01*
X99536095Y-109323142D02*
X99488476Y-109370761D01*
X99345619Y-109418380D01*
X99250380Y-109418380D01*
X99107523Y-109370761D01*
X99012285Y-109275523D01*
X98964666Y-109180285D01*
X98917047Y-108989809D01*
X98917047Y-108846952D01*
X98964666Y-108656476D01*
X99012285Y-108561238D01*
X99107523Y-108466000D01*
X99250380Y-108418380D01*
X99345619Y-108418380D01*
X99488476Y-108466000D01*
X99536095Y-108513619D01*
D12*
X112470000Y-62156078D02*
X112470000Y-61638922D01*
X111050000Y-62156078D02*
X111050000Y-61638922D01*
X131901000Y-80952078D02*
X131901000Y-80434922D01*
X130481000Y-80952078D02*
X130481000Y-80434922D01*
X99895922Y-83133000D02*
X100413078Y-83133000D01*
X99895922Y-81713000D02*
X100413078Y-81713000D01*
X99895922Y-88340000D02*
X100413078Y-88340000D01*
X99895922Y-86920000D02*
X100413078Y-86920000D01*
X99944422Y-102183000D02*
X100461578Y-102183000D01*
X99944422Y-100763000D02*
X100461578Y-100763000D01*
X110804000Y-89468000D02*
X109474000Y-89468000D01*
X110804000Y-88138000D02*
X110804000Y-89468000D01*
X110804000Y-86868000D02*
X108144000Y-86868000D01*
X108144000Y-86868000D02*
X108144000Y-81728000D01*
X110804000Y-86868000D02*
X110804000Y-81728000D01*
X110804000Y-81728000D02*
X108144000Y-81728000D01*
X98593000Y-92953000D02*
X98593000Y-95403000D01*
X101813000Y-94753000D02*
X101813000Y-92953000D01*
X124800000Y-62725000D02*
X123150000Y-62725000D01*
X124800000Y-98405000D02*
X124800000Y-62725000D01*
X119500000Y-98405000D02*
X124800000Y-98405000D01*
X119500000Y-62725000D02*
X119500000Y-98405000D01*
X121150000Y-62725000D02*
X119500000Y-62725000D01*
X123150000Y-62725000D02*
G75*
G02X121150000Y-62725000I-1000000J0D01*
G01*
X148157000Y-86032078D02*
X148157000Y-85514922D01*
X146737000Y-86032078D02*
X146737000Y-85514922D01*
X148157000Y-80952078D02*
X148157000Y-80434922D01*
X146737000Y-80952078D02*
X146737000Y-80434922D01*
X148157000Y-75872078D02*
X148157000Y-75354922D01*
X146737000Y-75872078D02*
X146737000Y-75354922D01*
X148157000Y-70792078D02*
X148157000Y-70274922D01*
X146737000Y-70792078D02*
X146737000Y-70274922D01*
X139069578Y-84126000D02*
X138552422Y-84126000D01*
X139069578Y-85546000D02*
X138552422Y-85546000D01*
X138991078Y-79046000D02*
X138473922Y-79046000D01*
X138991078Y-80466000D02*
X138473922Y-80466000D01*
X138991078Y-73966000D02*
X138473922Y-73966000D01*
X138991078Y-75386000D02*
X138473922Y-75386000D01*
X138991078Y-68886000D02*
X138473922Y-68886000D01*
X138991078Y-70306000D02*
X138473922Y-70306000D01*
X142927000Y-91435422D02*
X142927000Y-91952578D01*
X144347000Y-91435422D02*
X144347000Y-91952578D01*
X137847000Y-91513922D02*
X137847000Y-92031078D01*
X139267000Y-91513922D02*
X139267000Y-92031078D01*
X111050000Y-66875922D02*
X111050000Y-67393078D01*
X112470000Y-66875922D02*
X112470000Y-67393078D01*
X106890078Y-75744000D02*
X106372922Y-75744000D01*
X106890078Y-77164000D02*
X106372922Y-77164000D01*
X102803000Y-105223000D02*
X102803000Y-106553000D01*
X101473000Y-105223000D02*
X102803000Y-105223000D01*
X100203000Y-105223000D02*
X100203000Y-107883000D01*
X100203000Y-107883000D02*
X97603000Y-107883000D01*
X100203000Y-105223000D02*
X97603000Y-105223000D01*
X97603000Y-105223000D02*
X97603000Y-107883000D01*
X156905000Y-64068000D02*
X155575000Y-64068000D01*
X156905000Y-62738000D02*
X156905000Y-64068000D01*
X156905000Y-61468000D02*
X154245000Y-61468000D01*
X154245000Y-61468000D02*
X154245000Y-53788000D01*
X156905000Y-61468000D02*
X156905000Y-53788000D01*
X156905000Y-53788000D02*
X154245000Y-53788000D01*
X133290000Y-53788000D02*
X134620000Y-53788000D01*
X133290000Y-55118000D02*
X133290000Y-53788000D01*
X135890000Y-53788000D02*
X138490000Y-53788000D01*
X135890000Y-56388000D02*
X135890000Y-53788000D01*
X133290000Y-56388000D02*
X135890000Y-56388000D01*
X138490000Y-53788000D02*
X138490000Y-61528000D01*
X133290000Y-56388000D02*
X133290000Y-61528000D01*
X133290000Y-61528000D02*
X138490000Y-61528000D01*
X144967000Y-105096000D02*
X144967000Y-106426000D01*
X143637000Y-105096000D02*
X144967000Y-105096000D01*
X142367000Y-105096000D02*
X142367000Y-107756000D01*
X142367000Y-107756000D02*
X134687000Y-107756000D01*
X142367000Y-105096000D02*
X134687000Y-105096000D01*
X134687000Y-105096000D02*
X134687000Y-107756000D01*
X153991000Y-68139000D02*
X155321000Y-68139000D01*
X153991000Y-69469000D02*
X153991000Y-68139000D01*
X153991000Y-70739000D02*
X156651000Y-70739000D01*
X156651000Y-70739000D02*
X156651000Y-93659000D01*
X153991000Y-70739000D02*
X153991000Y-93659000D01*
X153991000Y-93659000D02*
X156651000Y-93659000D01*
X142927000Y-96515422D02*
X142927000Y-97032578D01*
X144347000Y-96515422D02*
X144347000Y-97032578D01*
X137847000Y-96593922D02*
X137847000Y-97111078D01*
X139267000Y-96593922D02*
X139267000Y-97111078D01*
X100413078Y-75744000D02*
X99895922Y-75744000D01*
X100413078Y-77164000D02*
X99895922Y-77164000D01*
D11*
X99123666Y-52332380D02*
X98790333Y-51856190D01*
X98552238Y-52332380D02*
X98552238Y-51332380D01*
X98933190Y-51332380D01*
X99028428Y-51380000D01*
X99076047Y-51427619D01*
X99123666Y-51522857D01*
X99123666Y-51665714D01*
X99076047Y-51760952D01*
X99028428Y-51808571D01*
X98933190Y-51856190D01*
X98552238Y-51856190D01*
X99552238Y-51808571D02*
X99885571Y-51808571D01*
X100028428Y-52332380D02*
X99552238Y-52332380D01*
X99552238Y-51332380D01*
X100028428Y-51332380D01*
X100790333Y-51808571D02*
X100457000Y-51808571D01*
X100457000Y-52332380D02*
X100457000Y-51332380D01*
X100933190Y-51332380D01*
X101457000Y-51332380D02*
X101457000Y-51570476D01*
X101218904Y-51475238D02*
X101457000Y-51570476D01*
X101695095Y-51475238D01*
X101314142Y-51760952D02*
X101457000Y-51570476D01*
X101599857Y-51760952D01*
X102218904Y-51332380D02*
X102218904Y-51570476D01*
X101980809Y-51475238D02*
X102218904Y-51570476D01*
X102457000Y-51475238D01*
X102076047Y-51760952D02*
X102218904Y-51570476D01*
X102361761Y-51760952D01*
X154368666Y-102243380D02*
X154035333Y-101767190D01*
X153797238Y-102243380D02*
X153797238Y-101243380D01*
X154178190Y-101243380D01*
X154273428Y-101291000D01*
X154321047Y-101338619D01*
X154368666Y-101433857D01*
X154368666Y-101576714D01*
X154321047Y-101671952D01*
X154273428Y-101719571D01*
X154178190Y-101767190D01*
X153797238Y-101767190D01*
X154797238Y-101719571D02*
X155130571Y-101719571D01*
X155273428Y-102243380D02*
X154797238Y-102243380D01*
X154797238Y-101243380D01*
X155273428Y-101243380D01*
X156035333Y-101719571D02*
X155702000Y-101719571D01*
X155702000Y-102243380D02*
X155702000Y-101243380D01*
X156178190Y-101243380D01*
X156702000Y-101243380D02*
X156702000Y-101481476D01*
X156463904Y-101386238D02*
X156702000Y-101481476D01*
X156940095Y-101386238D01*
X156559142Y-101671952D02*
X156702000Y-101481476D01*
X156844857Y-101671952D01*
X157463904Y-101243380D02*
X157463904Y-101481476D01*
X157225809Y-101386238D02*
X157463904Y-101481476D01*
X157702000Y-101386238D01*
X157321047Y-101671952D02*
X157463904Y-101481476D01*
X157606761Y-101671952D01*
X110467142Y-62064166D02*
X110514761Y-62111785D01*
X110562380Y-62254642D01*
X110562380Y-62349880D01*
X110514761Y-62492738D01*
X110419523Y-62587976D01*
X110324285Y-62635595D01*
X110133809Y-62683214D01*
X109990952Y-62683214D01*
X109800476Y-62635595D01*
X109705238Y-62587976D01*
X109610000Y-62492738D01*
X109562380Y-62349880D01*
X109562380Y-62254642D01*
X109610000Y-62111785D01*
X109657619Y-62064166D01*
X109562380Y-61159404D02*
X109562380Y-61635595D01*
X110038571Y-61683214D01*
X109990952Y-61635595D01*
X109943333Y-61540357D01*
X109943333Y-61302261D01*
X109990952Y-61207023D01*
X110038571Y-61159404D01*
X110133809Y-61111785D01*
X110371904Y-61111785D01*
X110467142Y-61159404D01*
X110514761Y-61207023D01*
X110562380Y-61302261D01*
X110562380Y-61540357D01*
X110514761Y-61635595D01*
X110467142Y-61683214D01*
X129898142Y-80860166D02*
X129945761Y-80907785D01*
X129993380Y-81050642D01*
X129993380Y-81145880D01*
X129945761Y-81288738D01*
X129850523Y-81383976D01*
X129755285Y-81431595D01*
X129564809Y-81479214D01*
X129421952Y-81479214D01*
X129231476Y-81431595D01*
X129136238Y-81383976D01*
X129041000Y-81288738D01*
X128993380Y-81145880D01*
X128993380Y-81050642D01*
X129041000Y-80907785D01*
X129088619Y-80860166D01*
X129326714Y-80003023D02*
X129993380Y-80003023D01*
X128945761Y-80241119D02*
X129660047Y-80479214D01*
X129660047Y-79860166D01*
X99987833Y-81130142D02*
X99940214Y-81177761D01*
X99797357Y-81225380D01*
X99702119Y-81225380D01*
X99559261Y-81177761D01*
X99464023Y-81082523D01*
X99416404Y-80987285D01*
X99368785Y-80796809D01*
X99368785Y-80653952D01*
X99416404Y-80463476D01*
X99464023Y-80368238D01*
X99559261Y-80273000D01*
X99702119Y-80225380D01*
X99797357Y-80225380D01*
X99940214Y-80273000D01*
X99987833Y-80320619D01*
X100321166Y-80225380D02*
X100940214Y-80225380D01*
X100606880Y-80606333D01*
X100749738Y-80606333D01*
X100844976Y-80653952D01*
X100892595Y-80701571D01*
X100940214Y-80796809D01*
X100940214Y-81034904D01*
X100892595Y-81130142D01*
X100844976Y-81177761D01*
X100749738Y-81225380D01*
X100464023Y-81225380D01*
X100368785Y-81177761D01*
X100321166Y-81130142D01*
X99987833Y-86337142D02*
X99940214Y-86384761D01*
X99797357Y-86432380D01*
X99702119Y-86432380D01*
X99559261Y-86384761D01*
X99464023Y-86289523D01*
X99416404Y-86194285D01*
X99368785Y-86003809D01*
X99368785Y-85860952D01*
X99416404Y-85670476D01*
X99464023Y-85575238D01*
X99559261Y-85480000D01*
X99702119Y-85432380D01*
X99797357Y-85432380D01*
X99940214Y-85480000D01*
X99987833Y-85527619D01*
X100368785Y-85527619D02*
X100416404Y-85480000D01*
X100511642Y-85432380D01*
X100749738Y-85432380D01*
X100844976Y-85480000D01*
X100892595Y-85527619D01*
X100940214Y-85622857D01*
X100940214Y-85718095D01*
X100892595Y-85860952D01*
X100321166Y-86432380D01*
X100940214Y-86432380D01*
X100036333Y-100180142D02*
X99988714Y-100227761D01*
X99845857Y-100275380D01*
X99750619Y-100275380D01*
X99607761Y-100227761D01*
X99512523Y-100132523D01*
X99464904Y-100037285D01*
X99417285Y-99846809D01*
X99417285Y-99703952D01*
X99464904Y-99513476D01*
X99512523Y-99418238D01*
X99607761Y-99323000D01*
X99750619Y-99275380D01*
X99845857Y-99275380D01*
X99988714Y-99323000D01*
X100036333Y-99370619D01*
X100988714Y-100275380D02*
X100417285Y-100275380D01*
X100703000Y-100275380D02*
X100703000Y-99275380D01*
X100607761Y-99418238D01*
X100512523Y-99513476D01*
X100417285Y-99561095D01*
X108997809Y-90444190D02*
X108997809Y-90920380D01*
X108664476Y-89920380D02*
X108997809Y-90444190D01*
X109331142Y-89920380D01*
X109616857Y-90015619D02*
X109664476Y-89968000D01*
X109759714Y-89920380D01*
X109997809Y-89920380D01*
X110093047Y-89968000D01*
X110140666Y-90015619D01*
X110188285Y-90110857D01*
X110188285Y-90206095D01*
X110140666Y-90348952D01*
X109569238Y-90920380D01*
X110188285Y-90920380D01*
X96755380Y-94614904D02*
X97564904Y-94614904D01*
X97660142Y-94567285D01*
X97707761Y-94519666D01*
X97755380Y-94424428D01*
X97755380Y-94233952D01*
X97707761Y-94138714D01*
X97660142Y-94091095D01*
X97564904Y-94043476D01*
X96755380Y-94043476D01*
X96850619Y-93614904D02*
X96803000Y-93567285D01*
X96755380Y-93472047D01*
X96755380Y-93233952D01*
X96803000Y-93138714D01*
X96850619Y-93091095D01*
X96945857Y-93043476D01*
X97041095Y-93043476D01*
X97183952Y-93091095D01*
X97755380Y-93662523D01*
X97755380Y-93043476D01*
X121388095Y-61177380D02*
X121388095Y-61986904D01*
X121435714Y-62082142D01*
X121483333Y-62129761D01*
X121578571Y-62177380D01*
X121769047Y-62177380D01*
X121864285Y-62129761D01*
X121911904Y-62082142D01*
X121959523Y-61986904D01*
X121959523Y-61177380D01*
X122959523Y-62177380D02*
X122388095Y-62177380D01*
X122673809Y-62177380D02*
X122673809Y-61177380D01*
X122578571Y-61320238D01*
X122483333Y-61415476D01*
X122388095Y-61463095D01*
X146249380Y-86416357D02*
X145773190Y-86749690D01*
X146249380Y-86987785D02*
X145249380Y-86987785D01*
X145249380Y-86606833D01*
X145297000Y-86511595D01*
X145344619Y-86463976D01*
X145439857Y-86416357D01*
X145582714Y-86416357D01*
X145677952Y-86463976D01*
X145725571Y-86511595D01*
X145773190Y-86606833D01*
X145773190Y-86987785D01*
X146249380Y-85463976D02*
X146249380Y-86035404D01*
X146249380Y-85749690D02*
X145249380Y-85749690D01*
X145392238Y-85844928D01*
X145487476Y-85940166D01*
X145535095Y-86035404D01*
X145344619Y-85083023D02*
X145297000Y-85035404D01*
X145249380Y-84940166D01*
X145249380Y-84702071D01*
X145297000Y-84606833D01*
X145344619Y-84559214D01*
X145439857Y-84511595D01*
X145535095Y-84511595D01*
X145677952Y-84559214D01*
X146249380Y-85130642D01*
X146249380Y-84511595D01*
X146249380Y-81336357D02*
X145773190Y-81669690D01*
X146249380Y-81907785D02*
X145249380Y-81907785D01*
X145249380Y-81526833D01*
X145297000Y-81431595D01*
X145344619Y-81383976D01*
X145439857Y-81336357D01*
X145582714Y-81336357D01*
X145677952Y-81383976D01*
X145725571Y-81431595D01*
X145773190Y-81526833D01*
X145773190Y-81907785D01*
X146249380Y-80383976D02*
X146249380Y-80955404D01*
X146249380Y-80669690D02*
X145249380Y-80669690D01*
X145392238Y-80764928D01*
X145487476Y-80860166D01*
X145535095Y-80955404D01*
X146249380Y-79431595D02*
X146249380Y-80003023D01*
X146249380Y-79717309D02*
X145249380Y-79717309D01*
X145392238Y-79812547D01*
X145487476Y-79907785D01*
X145535095Y-80003023D01*
X146249380Y-76256357D02*
X145773190Y-76589690D01*
X146249380Y-76827785D02*
X145249380Y-76827785D01*
X145249380Y-76446833D01*
X145297000Y-76351595D01*
X145344619Y-76303976D01*
X145439857Y-76256357D01*
X145582714Y-76256357D01*
X145677952Y-76303976D01*
X145725571Y-76351595D01*
X145773190Y-76446833D01*
X145773190Y-76827785D01*
X146249380Y-75303976D02*
X146249380Y-75875404D01*
X146249380Y-75589690D02*
X145249380Y-75589690D01*
X145392238Y-75684928D01*
X145487476Y-75780166D01*
X145535095Y-75875404D01*
X145249380Y-74684928D02*
X145249380Y-74589690D01*
X145297000Y-74494452D01*
X145344619Y-74446833D01*
X145439857Y-74399214D01*
X145630333Y-74351595D01*
X145868428Y-74351595D01*
X146058904Y-74399214D01*
X146154142Y-74446833D01*
X146201761Y-74494452D01*
X146249380Y-74589690D01*
X146249380Y-74684928D01*
X146201761Y-74780166D01*
X146154142Y-74827785D01*
X146058904Y-74875404D01*
X145868428Y-74923023D01*
X145630333Y-74923023D01*
X145439857Y-74875404D01*
X145344619Y-74827785D01*
X145297000Y-74780166D01*
X145249380Y-74684928D01*
X146249380Y-70700166D02*
X145773190Y-71033500D01*
X146249380Y-71271595D02*
X145249380Y-71271595D01*
X145249380Y-70890642D01*
X145297000Y-70795404D01*
X145344619Y-70747785D01*
X145439857Y-70700166D01*
X145582714Y-70700166D01*
X145677952Y-70747785D01*
X145725571Y-70795404D01*
X145773190Y-70890642D01*
X145773190Y-71271595D01*
X146249380Y-70223976D02*
X146249380Y-70033500D01*
X146201761Y-69938261D01*
X146154142Y-69890642D01*
X146011285Y-69795404D01*
X145820809Y-69747785D01*
X145439857Y-69747785D01*
X145344619Y-69795404D01*
X145297000Y-69843023D01*
X145249380Y-69938261D01*
X145249380Y-70128738D01*
X145297000Y-70223976D01*
X145344619Y-70271595D01*
X145439857Y-70319214D01*
X145677952Y-70319214D01*
X145773190Y-70271595D01*
X145820809Y-70223976D01*
X145868428Y-70128738D01*
X145868428Y-69938261D01*
X145820809Y-69843023D01*
X145773190Y-69795404D01*
X145677952Y-69747785D01*
X138644333Y-86938380D02*
X138311000Y-86462190D01*
X138072904Y-86938380D02*
X138072904Y-85938380D01*
X138453857Y-85938380D01*
X138549095Y-85986000D01*
X138596714Y-86033619D01*
X138644333Y-86128857D01*
X138644333Y-86271714D01*
X138596714Y-86366952D01*
X138549095Y-86414571D01*
X138453857Y-86462190D01*
X138072904Y-86462190D01*
X139215761Y-86366952D02*
X139120523Y-86319333D01*
X139072904Y-86271714D01*
X139025285Y-86176476D01*
X139025285Y-86128857D01*
X139072904Y-86033619D01*
X139120523Y-85986000D01*
X139215761Y-85938380D01*
X139406238Y-85938380D01*
X139501476Y-85986000D01*
X139549095Y-86033619D01*
X139596714Y-86128857D01*
X139596714Y-86176476D01*
X139549095Y-86271714D01*
X139501476Y-86319333D01*
X139406238Y-86366952D01*
X139215761Y-86366952D01*
X139120523Y-86414571D01*
X139072904Y-86462190D01*
X139025285Y-86557428D01*
X139025285Y-86747904D01*
X139072904Y-86843142D01*
X139120523Y-86890761D01*
X139215761Y-86938380D01*
X139406238Y-86938380D01*
X139501476Y-86890761D01*
X139549095Y-86843142D01*
X139596714Y-86747904D01*
X139596714Y-86557428D01*
X139549095Y-86462190D01*
X139501476Y-86414571D01*
X139406238Y-86366952D01*
X138565833Y-81858380D02*
X138232500Y-81382190D01*
X137994404Y-81858380D02*
X137994404Y-80858380D01*
X138375357Y-80858380D01*
X138470595Y-80906000D01*
X138518214Y-80953619D01*
X138565833Y-81048857D01*
X138565833Y-81191714D01*
X138518214Y-81286952D01*
X138470595Y-81334571D01*
X138375357Y-81382190D01*
X137994404Y-81382190D01*
X138899166Y-80858380D02*
X139565833Y-80858380D01*
X139137261Y-81858380D01*
X138565833Y-76778380D02*
X138232500Y-76302190D01*
X137994404Y-76778380D02*
X137994404Y-75778380D01*
X138375357Y-75778380D01*
X138470595Y-75826000D01*
X138518214Y-75873619D01*
X138565833Y-75968857D01*
X138565833Y-76111714D01*
X138518214Y-76206952D01*
X138470595Y-76254571D01*
X138375357Y-76302190D01*
X137994404Y-76302190D01*
X139422976Y-75778380D02*
X139232500Y-75778380D01*
X139137261Y-75826000D01*
X139089642Y-75873619D01*
X138994404Y-76016476D01*
X138946785Y-76206952D01*
X138946785Y-76587904D01*
X138994404Y-76683142D01*
X139042023Y-76730761D01*
X139137261Y-76778380D01*
X139327738Y-76778380D01*
X139422976Y-76730761D01*
X139470595Y-76683142D01*
X139518214Y-76587904D01*
X139518214Y-76349809D01*
X139470595Y-76254571D01*
X139422976Y-76206952D01*
X139327738Y-76159333D01*
X139137261Y-76159333D01*
X139042023Y-76206952D01*
X138994404Y-76254571D01*
X138946785Y-76349809D01*
X138565833Y-71698380D02*
X138232500Y-71222190D01*
X137994404Y-71698380D02*
X137994404Y-70698380D01*
X138375357Y-70698380D01*
X138470595Y-70746000D01*
X138518214Y-70793619D01*
X138565833Y-70888857D01*
X138565833Y-71031714D01*
X138518214Y-71126952D01*
X138470595Y-71174571D01*
X138375357Y-71222190D01*
X137994404Y-71222190D01*
X139470595Y-70698380D02*
X138994404Y-70698380D01*
X138946785Y-71174571D01*
X138994404Y-71126952D01*
X139089642Y-71079333D01*
X139327738Y-71079333D01*
X139422976Y-71126952D01*
X139470595Y-71174571D01*
X139518214Y-71269809D01*
X139518214Y-71507904D01*
X139470595Y-71603142D01*
X139422976Y-71650761D01*
X139327738Y-71698380D01*
X139089642Y-71698380D01*
X138994404Y-71650761D01*
X138946785Y-71603142D01*
X145739380Y-91860666D02*
X145263190Y-92194000D01*
X145739380Y-92432095D02*
X144739380Y-92432095D01*
X144739380Y-92051142D01*
X144787000Y-91955904D01*
X144834619Y-91908285D01*
X144929857Y-91860666D01*
X145072714Y-91860666D01*
X145167952Y-91908285D01*
X145215571Y-91955904D01*
X145263190Y-92051142D01*
X145263190Y-92432095D01*
X145072714Y-91003523D02*
X145739380Y-91003523D01*
X144691761Y-91241619D02*
X145406047Y-91479714D01*
X145406047Y-90860666D01*
X140659380Y-91939166D02*
X140183190Y-92272500D01*
X140659380Y-92510595D02*
X139659380Y-92510595D01*
X139659380Y-92129642D01*
X139707000Y-92034404D01*
X139754619Y-91986785D01*
X139849857Y-91939166D01*
X139992714Y-91939166D01*
X140087952Y-91986785D01*
X140135571Y-92034404D01*
X140183190Y-92129642D01*
X140183190Y-92510595D01*
X139659380Y-91605833D02*
X139659380Y-90986785D01*
X140040333Y-91320119D01*
X140040333Y-91177261D01*
X140087952Y-91082023D01*
X140135571Y-91034404D01*
X140230809Y-90986785D01*
X140468904Y-90986785D01*
X140564142Y-91034404D01*
X140611761Y-91082023D01*
X140659380Y-91177261D01*
X140659380Y-91462976D01*
X140611761Y-91558214D01*
X140564142Y-91605833D01*
X113862380Y-67301166D02*
X113386190Y-67634500D01*
X113862380Y-67872595D02*
X112862380Y-67872595D01*
X112862380Y-67491642D01*
X112910000Y-67396404D01*
X112957619Y-67348785D01*
X113052857Y-67301166D01*
X113195714Y-67301166D01*
X113290952Y-67348785D01*
X113338571Y-67396404D01*
X113386190Y-67491642D01*
X113386190Y-67872595D01*
X112957619Y-66920214D02*
X112910000Y-66872595D01*
X112862380Y-66777357D01*
X112862380Y-66539261D01*
X112910000Y-66444023D01*
X112957619Y-66396404D01*
X113052857Y-66348785D01*
X113148095Y-66348785D01*
X113290952Y-66396404D01*
X113862380Y-66967833D01*
X113862380Y-66348785D01*
X106464833Y-78556380D02*
X106131500Y-78080190D01*
X105893404Y-78556380D02*
X105893404Y-77556380D01*
X106274357Y-77556380D01*
X106369595Y-77604000D01*
X106417214Y-77651619D01*
X106464833Y-77746857D01*
X106464833Y-77889714D01*
X106417214Y-77984952D01*
X106369595Y-78032571D01*
X106274357Y-78080190D01*
X105893404Y-78080190D01*
X107417214Y-78556380D02*
X106845785Y-78556380D01*
X107131500Y-78556380D02*
X107131500Y-77556380D01*
X107036261Y-77699238D01*
X106941023Y-77794476D01*
X106845785Y-77842095D01*
X103255380Y-106886333D02*
X103969666Y-106886333D01*
X104112523Y-106933952D01*
X104207761Y-107029190D01*
X104255380Y-107172047D01*
X104255380Y-107267285D01*
X103255380Y-105933952D02*
X103255380Y-106410142D01*
X103731571Y-106457761D01*
X103683952Y-106410142D01*
X103636333Y-106314904D01*
X103636333Y-106076809D01*
X103683952Y-105981571D01*
X103731571Y-105933952D01*
X103826809Y-105886333D01*
X104064904Y-105886333D01*
X104160142Y-105933952D01*
X104207761Y-105981571D01*
X104255380Y-106076809D01*
X104255380Y-106314904D01*
X104207761Y-106410142D01*
X104160142Y-106457761D01*
X155241666Y-64520380D02*
X155241666Y-65234666D01*
X155194047Y-65377523D01*
X155098809Y-65472761D01*
X154955952Y-65520380D01*
X154860714Y-65520380D01*
X156146428Y-64853714D02*
X156146428Y-65520380D01*
X155908333Y-64472761D02*
X155670238Y-65187047D01*
X156289285Y-65187047D01*
X133143666Y-62444380D02*
X133143666Y-63158666D01*
X133096047Y-63301523D01*
X133000809Y-63396761D01*
X132857952Y-63444380D01*
X132762714Y-63444380D01*
X133524619Y-62444380D02*
X134143666Y-62444380D01*
X133810333Y-62825333D01*
X133953190Y-62825333D01*
X134048428Y-62872952D01*
X134096047Y-62920571D01*
X134143666Y-63015809D01*
X134143666Y-63253904D01*
X134096047Y-63349142D01*
X134048428Y-63396761D01*
X133953190Y-63444380D01*
X133667476Y-63444380D01*
X133572238Y-63396761D01*
X133524619Y-63349142D01*
X145419380Y-106759333D02*
X146133666Y-106759333D01*
X146276523Y-106806952D01*
X146371761Y-106902190D01*
X146419380Y-107045047D01*
X146419380Y-107140285D01*
X145514619Y-106330761D02*
X145467000Y-106283142D01*
X145419380Y-106187904D01*
X145419380Y-105949809D01*
X145467000Y-105854571D01*
X145514619Y-105806952D01*
X145609857Y-105759333D01*
X145705095Y-105759333D01*
X145847952Y-105806952D01*
X146419380Y-106378380D01*
X146419380Y-105759333D01*
X154987666Y-66591380D02*
X154987666Y-67305666D01*
X154940047Y-67448523D01*
X154844809Y-67543761D01*
X154701952Y-67591380D01*
X154606714Y-67591380D01*
X155987666Y-67591380D02*
X155416238Y-67591380D01*
X155701952Y-67591380D02*
X155701952Y-66591380D01*
X155606714Y-66734238D01*
X155511476Y-66829476D01*
X155416238Y-66877095D01*
X145739380Y-97512095D02*
X144739380Y-97512095D01*
X144739380Y-97274000D01*
X144787000Y-97131142D01*
X144882238Y-97035904D01*
X144977476Y-96988285D01*
X145167952Y-96940666D01*
X145310809Y-96940666D01*
X145501285Y-96988285D01*
X145596523Y-97035904D01*
X145691761Y-97131142D01*
X145739380Y-97274000D01*
X145739380Y-97512095D01*
X144739380Y-96607333D02*
X144739380Y-95988285D01*
X145120333Y-96321619D01*
X145120333Y-96178761D01*
X145167952Y-96083523D01*
X145215571Y-96035904D01*
X145310809Y-95988285D01*
X145548904Y-95988285D01*
X145644142Y-96035904D01*
X145691761Y-96083523D01*
X145739380Y-96178761D01*
X145739380Y-96464476D01*
X145691761Y-96559714D01*
X145644142Y-96607333D01*
X140659380Y-97590595D02*
X139659380Y-97590595D01*
X139659380Y-97352500D01*
X139707000Y-97209642D01*
X139802238Y-97114404D01*
X139897476Y-97066785D01*
X140087952Y-97019166D01*
X140230809Y-97019166D01*
X140421285Y-97066785D01*
X140516523Y-97114404D01*
X140611761Y-97209642D01*
X140659380Y-97352500D01*
X140659380Y-97590595D01*
X139754619Y-96638214D02*
X139707000Y-96590595D01*
X139659380Y-96495357D01*
X139659380Y-96257261D01*
X139707000Y-96162023D01*
X139754619Y-96114404D01*
X139849857Y-96066785D01*
X139945095Y-96066785D01*
X140087952Y-96114404D01*
X140659380Y-96685833D01*
X140659380Y-96066785D01*
X99416404Y-78556380D02*
X99416404Y-77556380D01*
X99654500Y-77556380D01*
X99797357Y-77604000D01*
X99892595Y-77699238D01*
X99940214Y-77794476D01*
X99987833Y-77984952D01*
X99987833Y-78127809D01*
X99940214Y-78318285D01*
X99892595Y-78413523D01*
X99797357Y-78508761D01*
X99654500Y-78556380D01*
X99416404Y-78556380D01*
X100940214Y-78556380D02*
X100368785Y-78556380D01*
X100654500Y-78556380D02*
X100654500Y-77556380D01*
X100559261Y-77699238D01*
X100464023Y-77794476D01*
X100368785Y-77842095D01*
M02*
