G04 #@! TF.GenerationSoftware,KiCad,Pcbnew,(5.1.2)-1*
G04 #@! TF.CreationDate,2019-09-17T06:22:35+02:00*
G04 #@! TF.ProjectId,PiezoBedSensor,5069657a-6f42-4656-9453-656e736f722e,rev?*
G04 #@! TF.SameCoordinates,Original*
G04 #@! TF.FileFunction,Soldermask,Top*
G04 #@! TF.FilePolarity,Negative*
%FSLAX46Y46*%
G04 Gerber Fmt 4.6, Leading zero omitted, Abs format (unit mm)*
G04 Created by KiCad (PCBNEW (5.1.2)-1) date 2019-09-17 06:22:35*
%MOMM*%
%LPD*%
G04 APERTURE LIST*
%ADD10C,0.100000*%
G04 APERTURE END LIST*
D10*
G36*
X156591943Y-102857248D02*
G01*
X157147189Y-103087238D01*
X157147190Y-103087239D01*
X157646899Y-103421134D01*
X158071866Y-103846101D01*
X158071867Y-103846103D01*
X158405762Y-104345811D01*
X158635752Y-104901057D01*
X158753000Y-105490501D01*
X158753000Y-106091499D01*
X158635752Y-106680943D01*
X158405762Y-107236189D01*
X158359264Y-107305778D01*
X158071866Y-107735899D01*
X157646899Y-108160866D01*
X157395347Y-108328948D01*
X157147189Y-108494762D01*
X156591943Y-108724752D01*
X156002499Y-108842000D01*
X155401501Y-108842000D01*
X154812057Y-108724752D01*
X154256811Y-108494762D01*
X154008653Y-108328948D01*
X153757101Y-108160866D01*
X153332134Y-107735899D01*
X153044736Y-107305778D01*
X152998238Y-107236189D01*
X152768248Y-106680943D01*
X152651000Y-106091499D01*
X152651000Y-105490501D01*
X152768248Y-104901057D01*
X152998238Y-104345811D01*
X153332133Y-103846103D01*
X153332134Y-103846101D01*
X153757101Y-103421134D01*
X154256810Y-103087239D01*
X154256811Y-103087238D01*
X154812057Y-102857248D01*
X155401501Y-102740000D01*
X156002499Y-102740000D01*
X156591943Y-102857248D01*
X156591943Y-102857248D01*
G37*
G36*
X102374000Y-107454000D02*
G01*
X100572000Y-107454000D01*
X100572000Y-105652000D01*
X102374000Y-105652000D01*
X102374000Y-107454000D01*
X102374000Y-107454000D01*
G37*
G36*
X99043443Y-105658519D02*
G01*
X99109627Y-105665037D01*
X99279466Y-105716557D01*
X99435991Y-105800222D01*
X99471729Y-105829552D01*
X99573186Y-105912814D01*
X99656448Y-106014271D01*
X99685778Y-106050009D01*
X99769443Y-106206534D01*
X99820963Y-106376373D01*
X99838359Y-106553000D01*
X99820963Y-106729627D01*
X99769443Y-106899466D01*
X99685778Y-107055991D01*
X99677411Y-107066186D01*
X99573186Y-107193186D01*
X99471729Y-107276448D01*
X99435991Y-107305778D01*
X99279466Y-107389443D01*
X99109627Y-107440963D01*
X99043442Y-107447482D01*
X98977260Y-107454000D01*
X98888740Y-107454000D01*
X98822558Y-107447482D01*
X98756373Y-107440963D01*
X98586534Y-107389443D01*
X98430009Y-107305778D01*
X98394271Y-107276448D01*
X98292814Y-107193186D01*
X98188589Y-107066186D01*
X98180222Y-107055991D01*
X98096557Y-106899466D01*
X98045037Y-106729627D01*
X98027641Y-106553000D01*
X98045037Y-106376373D01*
X98096557Y-106206534D01*
X98180222Y-106050009D01*
X98209552Y-106014271D01*
X98292814Y-105912814D01*
X98394271Y-105829552D01*
X98430009Y-105800222D01*
X98586534Y-105716557D01*
X98756373Y-105665037D01*
X98822557Y-105658519D01*
X98888740Y-105652000D01*
X98977260Y-105652000D01*
X99043443Y-105658519D01*
X99043443Y-105658519D01*
G37*
G36*
X136127443Y-105531519D02*
G01*
X136193627Y-105538037D01*
X136363466Y-105589557D01*
X136519991Y-105673222D01*
X136555729Y-105702552D01*
X136657186Y-105785814D01*
X136740448Y-105887271D01*
X136769778Y-105923009D01*
X136853443Y-106079534D01*
X136904963Y-106249373D01*
X136922359Y-106426000D01*
X136904963Y-106602627D01*
X136853443Y-106772466D01*
X136769778Y-106928991D01*
X136740448Y-106964729D01*
X136657186Y-107066186D01*
X136555729Y-107149448D01*
X136519991Y-107178778D01*
X136363466Y-107262443D01*
X136193627Y-107313963D01*
X136127442Y-107320482D01*
X136061260Y-107327000D01*
X135972740Y-107327000D01*
X135906558Y-107320482D01*
X135840373Y-107313963D01*
X135670534Y-107262443D01*
X135514009Y-107178778D01*
X135478271Y-107149448D01*
X135376814Y-107066186D01*
X135293552Y-106964729D01*
X135264222Y-106928991D01*
X135180557Y-106772466D01*
X135129037Y-106602627D01*
X135111641Y-106426000D01*
X135129037Y-106249373D01*
X135180557Y-106079534D01*
X135264222Y-105923009D01*
X135293552Y-105887271D01*
X135376814Y-105785814D01*
X135478271Y-105702552D01*
X135514009Y-105673222D01*
X135670534Y-105589557D01*
X135840373Y-105538037D01*
X135906558Y-105531518D01*
X135972740Y-105525000D01*
X136061260Y-105525000D01*
X136127443Y-105531519D01*
X136127443Y-105531519D01*
G37*
G36*
X138667443Y-105531519D02*
G01*
X138733627Y-105538037D01*
X138903466Y-105589557D01*
X139059991Y-105673222D01*
X139095729Y-105702552D01*
X139197186Y-105785814D01*
X139280448Y-105887271D01*
X139309778Y-105923009D01*
X139393443Y-106079534D01*
X139444963Y-106249373D01*
X139462359Y-106426000D01*
X139444963Y-106602627D01*
X139393443Y-106772466D01*
X139309778Y-106928991D01*
X139280448Y-106964729D01*
X139197186Y-107066186D01*
X139095729Y-107149448D01*
X139059991Y-107178778D01*
X138903466Y-107262443D01*
X138733627Y-107313963D01*
X138667442Y-107320482D01*
X138601260Y-107327000D01*
X138512740Y-107327000D01*
X138446558Y-107320482D01*
X138380373Y-107313963D01*
X138210534Y-107262443D01*
X138054009Y-107178778D01*
X138018271Y-107149448D01*
X137916814Y-107066186D01*
X137833552Y-106964729D01*
X137804222Y-106928991D01*
X137720557Y-106772466D01*
X137669037Y-106602627D01*
X137651641Y-106426000D01*
X137669037Y-106249373D01*
X137720557Y-106079534D01*
X137804222Y-105923009D01*
X137833552Y-105887271D01*
X137916814Y-105785814D01*
X138018271Y-105702552D01*
X138054009Y-105673222D01*
X138210534Y-105589557D01*
X138380373Y-105538037D01*
X138446558Y-105531518D01*
X138512740Y-105525000D01*
X138601260Y-105525000D01*
X138667443Y-105531519D01*
X138667443Y-105531519D01*
G37*
G36*
X141207443Y-105531519D02*
G01*
X141273627Y-105538037D01*
X141443466Y-105589557D01*
X141599991Y-105673222D01*
X141635729Y-105702552D01*
X141737186Y-105785814D01*
X141820448Y-105887271D01*
X141849778Y-105923009D01*
X141933443Y-106079534D01*
X141984963Y-106249373D01*
X142002359Y-106426000D01*
X141984963Y-106602627D01*
X141933443Y-106772466D01*
X141849778Y-106928991D01*
X141820448Y-106964729D01*
X141737186Y-107066186D01*
X141635729Y-107149448D01*
X141599991Y-107178778D01*
X141443466Y-107262443D01*
X141273627Y-107313963D01*
X141207442Y-107320482D01*
X141141260Y-107327000D01*
X141052740Y-107327000D01*
X140986558Y-107320482D01*
X140920373Y-107313963D01*
X140750534Y-107262443D01*
X140594009Y-107178778D01*
X140558271Y-107149448D01*
X140456814Y-107066186D01*
X140373552Y-106964729D01*
X140344222Y-106928991D01*
X140260557Y-106772466D01*
X140209037Y-106602627D01*
X140191641Y-106426000D01*
X140209037Y-106249373D01*
X140260557Y-106079534D01*
X140344222Y-105923009D01*
X140373552Y-105887271D01*
X140456814Y-105785814D01*
X140558271Y-105702552D01*
X140594009Y-105673222D01*
X140750534Y-105589557D01*
X140920373Y-105538037D01*
X140986558Y-105531518D01*
X141052740Y-105525000D01*
X141141260Y-105525000D01*
X141207443Y-105531519D01*
X141207443Y-105531519D01*
G37*
G36*
X144538000Y-107327000D02*
G01*
X142736000Y-107327000D01*
X142736000Y-105525000D01*
X144538000Y-105525000D01*
X144538000Y-107327000D01*
X144538000Y-107327000D01*
G37*
G36*
X101512468Y-100726565D02*
G01*
X101551138Y-100738296D01*
X101586777Y-100757346D01*
X101618017Y-100782983D01*
X101643654Y-100814223D01*
X101662704Y-100849862D01*
X101674435Y-100888532D01*
X101679000Y-100934888D01*
X101679000Y-102011112D01*
X101674435Y-102057468D01*
X101662704Y-102096138D01*
X101643654Y-102131777D01*
X101618017Y-102163017D01*
X101586777Y-102188654D01*
X101551138Y-102207704D01*
X101512468Y-102219435D01*
X101466112Y-102224000D01*
X100814888Y-102224000D01*
X100768532Y-102219435D01*
X100729862Y-102207704D01*
X100694223Y-102188654D01*
X100662983Y-102163017D01*
X100637346Y-102131777D01*
X100618296Y-102096138D01*
X100606565Y-102057468D01*
X100602000Y-102011112D01*
X100602000Y-100934888D01*
X100606565Y-100888532D01*
X100618296Y-100849862D01*
X100637346Y-100814223D01*
X100662983Y-100782983D01*
X100694223Y-100757346D01*
X100729862Y-100738296D01*
X100768532Y-100726565D01*
X100814888Y-100722000D01*
X101466112Y-100722000D01*
X101512468Y-100726565D01*
X101512468Y-100726565D01*
G37*
G36*
X99637468Y-100726565D02*
G01*
X99676138Y-100738296D01*
X99711777Y-100757346D01*
X99743017Y-100782983D01*
X99768654Y-100814223D01*
X99787704Y-100849862D01*
X99799435Y-100888532D01*
X99804000Y-100934888D01*
X99804000Y-102011112D01*
X99799435Y-102057468D01*
X99787704Y-102096138D01*
X99768654Y-102131777D01*
X99743017Y-102163017D01*
X99711777Y-102188654D01*
X99676138Y-102207704D01*
X99637468Y-102219435D01*
X99591112Y-102224000D01*
X98939888Y-102224000D01*
X98893532Y-102219435D01*
X98854862Y-102207704D01*
X98819223Y-102188654D01*
X98787983Y-102163017D01*
X98762346Y-102131777D01*
X98743296Y-102096138D01*
X98731565Y-102057468D01*
X98727000Y-102011112D01*
X98727000Y-100934888D01*
X98731565Y-100888532D01*
X98743296Y-100849862D01*
X98762346Y-100814223D01*
X98787983Y-100782983D01*
X98819223Y-100757346D01*
X98854862Y-100738296D01*
X98893532Y-100726565D01*
X98939888Y-100722000D01*
X99591112Y-100722000D01*
X99637468Y-100726565D01*
X99637468Y-100726565D01*
G37*
G36*
X139141468Y-97256065D02*
G01*
X139180138Y-97267796D01*
X139215777Y-97286846D01*
X139247017Y-97312483D01*
X139272654Y-97343723D01*
X139291704Y-97379362D01*
X139303435Y-97418032D01*
X139308000Y-97464388D01*
X139308000Y-98115612D01*
X139303435Y-98161968D01*
X139291704Y-98200638D01*
X139272654Y-98236277D01*
X139247017Y-98267517D01*
X139215777Y-98293154D01*
X139180138Y-98312204D01*
X139141468Y-98323935D01*
X139095112Y-98328500D01*
X138018888Y-98328500D01*
X137972532Y-98323935D01*
X137933862Y-98312204D01*
X137898223Y-98293154D01*
X137866983Y-98267517D01*
X137841346Y-98236277D01*
X137822296Y-98200638D01*
X137810565Y-98161968D01*
X137806000Y-98115612D01*
X137806000Y-97464388D01*
X137810565Y-97418032D01*
X137822296Y-97379362D01*
X137841346Y-97343723D01*
X137866983Y-97312483D01*
X137898223Y-97286846D01*
X137933862Y-97267796D01*
X137972532Y-97256065D01*
X138018888Y-97251500D01*
X139095112Y-97251500D01*
X139141468Y-97256065D01*
X139141468Y-97256065D01*
G37*
G36*
X144221468Y-97177565D02*
G01*
X144260138Y-97189296D01*
X144295777Y-97208346D01*
X144327017Y-97233983D01*
X144352654Y-97265223D01*
X144371704Y-97300862D01*
X144383435Y-97339532D01*
X144388000Y-97385888D01*
X144388000Y-98037112D01*
X144383435Y-98083468D01*
X144371704Y-98122138D01*
X144352654Y-98157777D01*
X144327017Y-98189017D01*
X144295777Y-98214654D01*
X144260138Y-98233704D01*
X144221468Y-98245435D01*
X144175112Y-98250000D01*
X143098888Y-98250000D01*
X143052532Y-98245435D01*
X143013862Y-98233704D01*
X142978223Y-98214654D01*
X142946983Y-98189017D01*
X142921346Y-98157777D01*
X142902296Y-98122138D01*
X142890565Y-98083468D01*
X142886000Y-98037112D01*
X142886000Y-97385888D01*
X142890565Y-97339532D01*
X142902296Y-97300862D01*
X142921346Y-97265223D01*
X142946983Y-97233983D01*
X142978223Y-97208346D01*
X143013862Y-97189296D01*
X143052532Y-97177565D01*
X143098888Y-97173000D01*
X144175112Y-97173000D01*
X144221468Y-97177565D01*
X144221468Y-97177565D01*
G37*
G36*
X126126823Y-96236313D02*
G01*
X126287242Y-96284976D01*
X126378654Y-96333837D01*
X126435078Y-96363996D01*
X126564659Y-96470341D01*
X126671004Y-96599922D01*
X126671005Y-96599924D01*
X126750024Y-96747758D01*
X126798687Y-96908177D01*
X126815117Y-97075000D01*
X126798687Y-97241823D01*
X126750024Y-97402242D01*
X126741755Y-97417712D01*
X126671004Y-97550078D01*
X126564659Y-97679659D01*
X126435078Y-97786004D01*
X126435076Y-97786005D01*
X126287242Y-97865024D01*
X126126823Y-97913687D01*
X126001804Y-97926000D01*
X125918196Y-97926000D01*
X125793177Y-97913687D01*
X125632758Y-97865024D01*
X125484924Y-97786005D01*
X125484922Y-97786004D01*
X125355341Y-97679659D01*
X125248996Y-97550078D01*
X125178245Y-97417712D01*
X125169976Y-97402242D01*
X125121313Y-97241823D01*
X125104883Y-97075000D01*
X125121313Y-96908177D01*
X125169976Y-96747758D01*
X125248995Y-96599924D01*
X125248996Y-96599922D01*
X125355341Y-96470341D01*
X125484922Y-96363996D01*
X125541346Y-96333837D01*
X125632758Y-96284976D01*
X125793177Y-96236313D01*
X125918196Y-96224000D01*
X126001804Y-96224000D01*
X126126823Y-96236313D01*
X126126823Y-96236313D01*
G37*
G36*
X118506823Y-96236313D02*
G01*
X118667242Y-96284976D01*
X118758654Y-96333837D01*
X118815078Y-96363996D01*
X118944659Y-96470341D01*
X119051004Y-96599922D01*
X119051005Y-96599924D01*
X119130024Y-96747758D01*
X119178687Y-96908177D01*
X119195117Y-97075000D01*
X119178687Y-97241823D01*
X119130024Y-97402242D01*
X119121755Y-97417712D01*
X119051004Y-97550078D01*
X118944659Y-97679659D01*
X118815078Y-97786004D01*
X118815076Y-97786005D01*
X118667242Y-97865024D01*
X118506823Y-97913687D01*
X118381804Y-97926000D01*
X118298196Y-97926000D01*
X118173177Y-97913687D01*
X118012758Y-97865024D01*
X117864924Y-97786005D01*
X117864922Y-97786004D01*
X117735341Y-97679659D01*
X117628996Y-97550078D01*
X117558245Y-97417712D01*
X117549976Y-97402242D01*
X117501313Y-97241823D01*
X117484883Y-97075000D01*
X117501313Y-96908177D01*
X117549976Y-96747758D01*
X117628995Y-96599924D01*
X117628996Y-96599922D01*
X117735341Y-96470341D01*
X117864922Y-96363996D01*
X117921346Y-96333837D01*
X118012758Y-96284976D01*
X118173177Y-96236313D01*
X118298196Y-96224000D01*
X118381804Y-96224000D01*
X118506823Y-96236313D01*
X118506823Y-96236313D01*
G37*
G36*
X139141468Y-95381065D02*
G01*
X139180138Y-95392796D01*
X139215777Y-95411846D01*
X139247017Y-95437483D01*
X139272654Y-95468723D01*
X139291704Y-95504362D01*
X139303435Y-95543032D01*
X139308000Y-95589388D01*
X139308000Y-96240612D01*
X139303435Y-96286968D01*
X139291704Y-96325638D01*
X139272654Y-96361277D01*
X139247017Y-96392517D01*
X139215777Y-96418154D01*
X139180138Y-96437204D01*
X139141468Y-96448935D01*
X139095112Y-96453500D01*
X138018888Y-96453500D01*
X137972532Y-96448935D01*
X137933862Y-96437204D01*
X137898223Y-96418154D01*
X137866983Y-96392517D01*
X137841346Y-96361277D01*
X137822296Y-96325638D01*
X137810565Y-96286968D01*
X137806000Y-96240612D01*
X137806000Y-95589388D01*
X137810565Y-95543032D01*
X137822296Y-95504362D01*
X137841346Y-95468723D01*
X137866983Y-95437483D01*
X137898223Y-95411846D01*
X137933862Y-95392796D01*
X137972532Y-95381065D01*
X138018888Y-95376500D01*
X139095112Y-95376500D01*
X139141468Y-95381065D01*
X139141468Y-95381065D01*
G37*
G36*
X144221468Y-95302565D02*
G01*
X144260138Y-95314296D01*
X144295777Y-95333346D01*
X144327017Y-95358983D01*
X144352654Y-95390223D01*
X144371704Y-95425862D01*
X144383435Y-95464532D01*
X144388000Y-95510888D01*
X144388000Y-96162112D01*
X144383435Y-96208468D01*
X144371704Y-96247138D01*
X144352654Y-96282777D01*
X144327017Y-96314017D01*
X144295777Y-96339654D01*
X144260138Y-96358704D01*
X144221468Y-96370435D01*
X144175112Y-96375000D01*
X143098888Y-96375000D01*
X143052532Y-96370435D01*
X143013862Y-96358704D01*
X142978223Y-96339654D01*
X142946983Y-96314017D01*
X142921346Y-96282777D01*
X142902296Y-96247138D01*
X142890565Y-96208468D01*
X142886000Y-96162112D01*
X142886000Y-95510888D01*
X142890565Y-95464532D01*
X142902296Y-95425862D01*
X142921346Y-95390223D01*
X142946983Y-95358983D01*
X142978223Y-95333346D01*
X143013862Y-95314296D01*
X143052532Y-95302565D01*
X143098888Y-95298000D01*
X144175112Y-95298000D01*
X144221468Y-95302565D01*
X144221468Y-95302565D01*
G37*
G36*
X101529000Y-95534000D02*
G01*
X98877000Y-95534000D01*
X98877000Y-94372000D01*
X101529000Y-94372000D01*
X101529000Y-95534000D01*
X101529000Y-95534000D01*
G37*
G36*
X126126823Y-93696313D02*
G01*
X126287242Y-93744976D01*
X126419906Y-93815886D01*
X126435078Y-93823996D01*
X126564659Y-93930341D01*
X126671004Y-94059922D01*
X126671005Y-94059924D01*
X126750024Y-94207758D01*
X126798687Y-94368177D01*
X126815117Y-94535000D01*
X126798687Y-94701823D01*
X126750024Y-94862242D01*
X126679114Y-94994906D01*
X126671004Y-95010078D01*
X126564659Y-95139659D01*
X126435078Y-95246004D01*
X126435076Y-95246005D01*
X126287242Y-95325024D01*
X126126823Y-95373687D01*
X126001804Y-95386000D01*
X125918196Y-95386000D01*
X125793177Y-95373687D01*
X125632758Y-95325024D01*
X125484924Y-95246005D01*
X125484922Y-95246004D01*
X125355341Y-95139659D01*
X125248996Y-95010078D01*
X125240886Y-94994906D01*
X125169976Y-94862242D01*
X125121313Y-94701823D01*
X125104883Y-94535000D01*
X125121313Y-94368177D01*
X125169976Y-94207758D01*
X125248995Y-94059924D01*
X125248996Y-94059922D01*
X125355341Y-93930341D01*
X125484922Y-93823996D01*
X125500094Y-93815886D01*
X125632758Y-93744976D01*
X125793177Y-93696313D01*
X125918196Y-93684000D01*
X126001804Y-93684000D01*
X126126823Y-93696313D01*
X126126823Y-93696313D01*
G37*
G36*
X118506823Y-93696313D02*
G01*
X118667242Y-93744976D01*
X118799906Y-93815886D01*
X118815078Y-93823996D01*
X118944659Y-93930341D01*
X119051004Y-94059922D01*
X119051005Y-94059924D01*
X119130024Y-94207758D01*
X119178687Y-94368177D01*
X119195117Y-94535000D01*
X119178687Y-94701823D01*
X119130024Y-94862242D01*
X119059114Y-94994906D01*
X119051004Y-95010078D01*
X118944659Y-95139659D01*
X118815078Y-95246004D01*
X118815076Y-95246005D01*
X118667242Y-95325024D01*
X118506823Y-95373687D01*
X118381804Y-95386000D01*
X118298196Y-95386000D01*
X118173177Y-95373687D01*
X118012758Y-95325024D01*
X117864924Y-95246005D01*
X117864922Y-95246004D01*
X117735341Y-95139659D01*
X117628996Y-95010078D01*
X117620886Y-94994906D01*
X117549976Y-94862242D01*
X117501313Y-94701823D01*
X117484883Y-94535000D01*
X117501313Y-94368177D01*
X117549976Y-94207758D01*
X117628995Y-94059924D01*
X117628996Y-94059922D01*
X117735341Y-93930341D01*
X117864922Y-93823996D01*
X117880094Y-93815886D01*
X118012758Y-93744976D01*
X118173177Y-93696313D01*
X118298196Y-93684000D01*
X118381804Y-93684000D01*
X118506823Y-93696313D01*
X118506823Y-93696313D01*
G37*
G36*
X101529000Y-93334000D02*
G01*
X100777000Y-93334000D01*
X100777000Y-92172000D01*
X101529000Y-92172000D01*
X101529000Y-93334000D01*
X101529000Y-93334000D01*
G37*
G36*
X99629000Y-93334000D02*
G01*
X98877000Y-93334000D01*
X98877000Y-92172000D01*
X99629000Y-92172000D01*
X99629000Y-93334000D01*
X99629000Y-93334000D01*
G37*
G36*
X139141468Y-92176065D02*
G01*
X139180138Y-92187796D01*
X139215777Y-92206846D01*
X139247017Y-92232483D01*
X139272654Y-92263723D01*
X139291704Y-92299362D01*
X139303435Y-92338032D01*
X139308000Y-92384388D01*
X139308000Y-93035612D01*
X139303435Y-93081968D01*
X139291704Y-93120638D01*
X139272654Y-93156277D01*
X139247017Y-93187517D01*
X139215777Y-93213154D01*
X139180138Y-93232204D01*
X139141468Y-93243935D01*
X139095112Y-93248500D01*
X138018888Y-93248500D01*
X137972532Y-93243935D01*
X137933862Y-93232204D01*
X137898223Y-93213154D01*
X137866983Y-93187517D01*
X137841346Y-93156277D01*
X137822296Y-93120638D01*
X137810565Y-93081968D01*
X137806000Y-93035612D01*
X137806000Y-92384388D01*
X137810565Y-92338032D01*
X137822296Y-92299362D01*
X137841346Y-92263723D01*
X137866983Y-92232483D01*
X137898223Y-92206846D01*
X137933862Y-92187796D01*
X137972532Y-92176065D01*
X138018888Y-92171500D01*
X139095112Y-92171500D01*
X139141468Y-92176065D01*
X139141468Y-92176065D01*
G37*
G36*
X155431443Y-91434519D02*
G01*
X155497627Y-91441037D01*
X155667466Y-91492557D01*
X155823991Y-91576222D01*
X155859729Y-91605552D01*
X155961186Y-91688814D01*
X156044448Y-91790271D01*
X156073778Y-91826009D01*
X156157443Y-91982534D01*
X156208963Y-92152373D01*
X156226359Y-92329000D01*
X156208963Y-92505627D01*
X156157443Y-92675466D01*
X156073778Y-92831991D01*
X156072386Y-92833687D01*
X155961186Y-92969186D01*
X155884916Y-93031778D01*
X155823991Y-93081778D01*
X155667466Y-93165443D01*
X155497627Y-93216963D01*
X155431443Y-93223481D01*
X155365260Y-93230000D01*
X155276740Y-93230000D01*
X155210557Y-93223481D01*
X155144373Y-93216963D01*
X154974534Y-93165443D01*
X154818009Y-93081778D01*
X154757084Y-93031778D01*
X154680814Y-92969186D01*
X154569614Y-92833687D01*
X154568222Y-92831991D01*
X154484557Y-92675466D01*
X154433037Y-92505627D01*
X154415641Y-92329000D01*
X154433037Y-92152373D01*
X154484557Y-91982534D01*
X154568222Y-91826009D01*
X154597552Y-91790271D01*
X154680814Y-91688814D01*
X154782271Y-91605552D01*
X154818009Y-91576222D01*
X154974534Y-91492557D01*
X155144373Y-91441037D01*
X155210558Y-91434518D01*
X155276740Y-91428000D01*
X155365260Y-91428000D01*
X155431443Y-91434519D01*
X155431443Y-91434519D01*
G37*
G36*
X144221468Y-92097565D02*
G01*
X144260138Y-92109296D01*
X144295777Y-92128346D01*
X144327017Y-92153983D01*
X144352654Y-92185223D01*
X144371704Y-92220862D01*
X144383435Y-92259532D01*
X144388000Y-92305888D01*
X144388000Y-92957112D01*
X144383435Y-93003468D01*
X144371704Y-93042138D01*
X144352654Y-93077777D01*
X144327017Y-93109017D01*
X144295777Y-93134654D01*
X144260138Y-93153704D01*
X144221468Y-93165435D01*
X144175112Y-93170000D01*
X143098888Y-93170000D01*
X143052532Y-93165435D01*
X143013862Y-93153704D01*
X142978223Y-93134654D01*
X142946983Y-93109017D01*
X142921346Y-93077777D01*
X142902296Y-93042138D01*
X142890565Y-93003468D01*
X142886000Y-92957112D01*
X142886000Y-92305888D01*
X142890565Y-92259532D01*
X142902296Y-92220862D01*
X142921346Y-92185223D01*
X142946983Y-92153983D01*
X142978223Y-92128346D01*
X143013862Y-92109296D01*
X143052532Y-92097565D01*
X143098888Y-92093000D01*
X144175112Y-92093000D01*
X144221468Y-92097565D01*
X144221468Y-92097565D01*
G37*
G36*
X118506823Y-91156313D02*
G01*
X118667242Y-91204976D01*
X118758654Y-91253837D01*
X118815078Y-91283996D01*
X118944659Y-91390341D01*
X119051004Y-91519922D01*
X119051005Y-91519924D01*
X119130024Y-91667758D01*
X119178687Y-91828177D01*
X119195117Y-91995000D01*
X119178687Y-92161823D01*
X119130024Y-92322242D01*
X119121755Y-92337712D01*
X119051004Y-92470078D01*
X118944659Y-92599659D01*
X118815078Y-92706004D01*
X118815076Y-92706005D01*
X118667242Y-92785024D01*
X118506823Y-92833687D01*
X118381804Y-92846000D01*
X118298196Y-92846000D01*
X118173177Y-92833687D01*
X118012758Y-92785024D01*
X117864924Y-92706005D01*
X117864922Y-92706004D01*
X117735341Y-92599659D01*
X117628996Y-92470078D01*
X117558245Y-92337712D01*
X117549976Y-92322242D01*
X117501313Y-92161823D01*
X117484883Y-91995000D01*
X117501313Y-91828177D01*
X117549976Y-91667758D01*
X117628995Y-91519924D01*
X117628996Y-91519922D01*
X117735341Y-91390341D01*
X117864922Y-91283996D01*
X117921346Y-91253837D01*
X118012758Y-91204976D01*
X118173177Y-91156313D01*
X118298196Y-91144000D01*
X118381804Y-91144000D01*
X118506823Y-91156313D01*
X118506823Y-91156313D01*
G37*
G36*
X126126823Y-91156313D02*
G01*
X126287242Y-91204976D01*
X126378654Y-91253837D01*
X126435078Y-91283996D01*
X126564659Y-91390341D01*
X126671004Y-91519922D01*
X126671005Y-91519924D01*
X126750024Y-91667758D01*
X126798687Y-91828177D01*
X126815117Y-91995000D01*
X126798687Y-92161823D01*
X126750024Y-92322242D01*
X126741755Y-92337712D01*
X126671004Y-92470078D01*
X126564659Y-92599659D01*
X126435078Y-92706004D01*
X126435076Y-92706005D01*
X126287242Y-92785024D01*
X126126823Y-92833687D01*
X126001804Y-92846000D01*
X125918196Y-92846000D01*
X125793177Y-92833687D01*
X125632758Y-92785024D01*
X125484924Y-92706005D01*
X125484922Y-92706004D01*
X125355341Y-92599659D01*
X125248996Y-92470078D01*
X125178245Y-92337712D01*
X125169976Y-92322242D01*
X125121313Y-92161823D01*
X125104883Y-91995000D01*
X125121313Y-91828177D01*
X125169976Y-91667758D01*
X125248995Y-91519924D01*
X125248996Y-91519922D01*
X125355341Y-91390341D01*
X125484922Y-91283996D01*
X125541346Y-91253837D01*
X125632758Y-91204976D01*
X125793177Y-91156313D01*
X125918196Y-91144000D01*
X126001804Y-91144000D01*
X126126823Y-91156313D01*
X126126823Y-91156313D01*
G37*
G36*
X139141468Y-90301065D02*
G01*
X139180138Y-90312796D01*
X139215777Y-90331846D01*
X139247017Y-90357483D01*
X139272654Y-90388723D01*
X139291704Y-90424362D01*
X139303435Y-90463032D01*
X139308000Y-90509388D01*
X139308000Y-91160612D01*
X139303435Y-91206968D01*
X139291704Y-91245638D01*
X139272654Y-91281277D01*
X139247017Y-91312517D01*
X139215777Y-91338154D01*
X139180138Y-91357204D01*
X139141468Y-91368935D01*
X139095112Y-91373500D01*
X138018888Y-91373500D01*
X137972532Y-91368935D01*
X137933862Y-91357204D01*
X137898223Y-91338154D01*
X137866983Y-91312517D01*
X137841346Y-91281277D01*
X137822296Y-91245638D01*
X137810565Y-91206968D01*
X137806000Y-91160612D01*
X137806000Y-90509388D01*
X137810565Y-90463032D01*
X137822296Y-90424362D01*
X137841346Y-90388723D01*
X137866983Y-90357483D01*
X137898223Y-90331846D01*
X137933862Y-90312796D01*
X137972532Y-90301065D01*
X138018888Y-90296500D01*
X139095112Y-90296500D01*
X139141468Y-90301065D01*
X139141468Y-90301065D01*
G37*
G36*
X144221468Y-90222565D02*
G01*
X144260138Y-90234296D01*
X144295777Y-90253346D01*
X144327017Y-90278983D01*
X144352654Y-90310223D01*
X144371704Y-90345862D01*
X144383435Y-90384532D01*
X144388000Y-90430888D01*
X144388000Y-91082112D01*
X144383435Y-91128468D01*
X144371704Y-91167138D01*
X144352654Y-91202777D01*
X144327017Y-91234017D01*
X144295777Y-91259654D01*
X144260138Y-91278704D01*
X144221468Y-91290435D01*
X144175112Y-91295000D01*
X143098888Y-91295000D01*
X143052532Y-91290435D01*
X143013862Y-91278704D01*
X142978223Y-91259654D01*
X142946983Y-91234017D01*
X142921346Y-91202777D01*
X142902296Y-91167138D01*
X142890565Y-91128468D01*
X142886000Y-91082112D01*
X142886000Y-90430888D01*
X142890565Y-90384532D01*
X142902296Y-90345862D01*
X142921346Y-90310223D01*
X142946983Y-90278983D01*
X142978223Y-90253346D01*
X143013862Y-90234296D01*
X143052532Y-90222565D01*
X143098888Y-90218000D01*
X144175112Y-90218000D01*
X144221468Y-90222565D01*
X144221468Y-90222565D01*
G37*
G36*
X155431442Y-88894518D02*
G01*
X155497627Y-88901037D01*
X155667466Y-88952557D01*
X155823991Y-89036222D01*
X155859729Y-89065552D01*
X155961186Y-89148814D01*
X156044448Y-89250271D01*
X156073778Y-89286009D01*
X156157443Y-89442534D01*
X156208963Y-89612373D01*
X156226359Y-89789000D01*
X156208963Y-89965627D01*
X156157443Y-90135466D01*
X156073778Y-90291991D01*
X156044448Y-90327729D01*
X155961186Y-90429186D01*
X155863458Y-90509388D01*
X155823991Y-90541778D01*
X155667466Y-90625443D01*
X155497627Y-90676963D01*
X155431442Y-90683482D01*
X155365260Y-90690000D01*
X155276740Y-90690000D01*
X155210558Y-90683482D01*
X155144373Y-90676963D01*
X154974534Y-90625443D01*
X154818009Y-90541778D01*
X154778542Y-90509388D01*
X154680814Y-90429186D01*
X154597552Y-90327729D01*
X154568222Y-90291991D01*
X154484557Y-90135466D01*
X154433037Y-89965627D01*
X154415641Y-89789000D01*
X154433037Y-89612373D01*
X154484557Y-89442534D01*
X154568222Y-89286009D01*
X154597552Y-89250271D01*
X154680814Y-89148814D01*
X154782271Y-89065552D01*
X154818009Y-89036222D01*
X154974534Y-88952557D01*
X155144373Y-88901037D01*
X155210558Y-88894518D01*
X155276740Y-88888000D01*
X155365260Y-88888000D01*
X155431442Y-88894518D01*
X155431442Y-88894518D01*
G37*
G36*
X118506823Y-88616313D02*
G01*
X118667242Y-88664976D01*
X118799906Y-88735886D01*
X118815078Y-88743996D01*
X118944659Y-88850341D01*
X119051004Y-88979922D01*
X119051005Y-88979924D01*
X119130024Y-89127758D01*
X119178687Y-89288177D01*
X119195117Y-89455000D01*
X119178687Y-89621823D01*
X119130024Y-89782242D01*
X119059114Y-89914906D01*
X119051004Y-89930078D01*
X118944659Y-90059659D01*
X118815078Y-90166004D01*
X118815076Y-90166005D01*
X118667242Y-90245024D01*
X118506823Y-90293687D01*
X118381804Y-90306000D01*
X118298196Y-90306000D01*
X118173177Y-90293687D01*
X118012758Y-90245024D01*
X117864924Y-90166005D01*
X117864922Y-90166004D01*
X117735341Y-90059659D01*
X117628996Y-89930078D01*
X117620886Y-89914906D01*
X117549976Y-89782242D01*
X117501313Y-89621823D01*
X117484883Y-89455000D01*
X117501313Y-89288177D01*
X117549976Y-89127758D01*
X117628995Y-88979924D01*
X117628996Y-88979922D01*
X117735341Y-88850341D01*
X117864922Y-88743996D01*
X117880094Y-88735886D01*
X118012758Y-88664976D01*
X118173177Y-88616313D01*
X118298196Y-88604000D01*
X118381804Y-88604000D01*
X118506823Y-88616313D01*
X118506823Y-88616313D01*
G37*
G36*
X126126823Y-88616313D02*
G01*
X126287242Y-88664976D01*
X126419906Y-88735886D01*
X126435078Y-88743996D01*
X126564659Y-88850341D01*
X126671004Y-88979922D01*
X126671005Y-88979924D01*
X126750024Y-89127758D01*
X126798687Y-89288177D01*
X126815117Y-89455000D01*
X126798687Y-89621823D01*
X126750024Y-89782242D01*
X126679114Y-89914906D01*
X126671004Y-89930078D01*
X126564659Y-90059659D01*
X126435078Y-90166004D01*
X126435076Y-90166005D01*
X126287242Y-90245024D01*
X126126823Y-90293687D01*
X126001804Y-90306000D01*
X125918196Y-90306000D01*
X125793177Y-90293687D01*
X125632758Y-90245024D01*
X125484924Y-90166005D01*
X125484922Y-90166004D01*
X125355341Y-90059659D01*
X125248996Y-89930078D01*
X125240886Y-89914906D01*
X125169976Y-89782242D01*
X125121313Y-89621823D01*
X125104883Y-89455000D01*
X125121313Y-89288177D01*
X125169976Y-89127758D01*
X125248995Y-88979924D01*
X125248996Y-88979922D01*
X125355341Y-88850341D01*
X125484922Y-88743996D01*
X125500094Y-88735886D01*
X125632758Y-88664976D01*
X125793177Y-88616313D01*
X125918196Y-88604000D01*
X126001804Y-88604000D01*
X126126823Y-88616313D01*
X126126823Y-88616313D01*
G37*
G36*
X110375000Y-89039000D02*
G01*
X108573000Y-89039000D01*
X108573000Y-87237000D01*
X110375000Y-87237000D01*
X110375000Y-89039000D01*
X110375000Y-89039000D01*
G37*
G36*
X101463968Y-86883565D02*
G01*
X101502638Y-86895296D01*
X101538277Y-86914346D01*
X101569517Y-86939983D01*
X101595154Y-86971223D01*
X101614204Y-87006862D01*
X101625935Y-87045532D01*
X101630500Y-87091888D01*
X101630500Y-88168112D01*
X101625935Y-88214468D01*
X101614204Y-88253138D01*
X101595154Y-88288777D01*
X101569517Y-88320017D01*
X101538277Y-88345654D01*
X101502638Y-88364704D01*
X101463968Y-88376435D01*
X101417612Y-88381000D01*
X100766388Y-88381000D01*
X100720032Y-88376435D01*
X100681362Y-88364704D01*
X100645723Y-88345654D01*
X100614483Y-88320017D01*
X100588846Y-88288777D01*
X100569796Y-88253138D01*
X100558065Y-88214468D01*
X100553500Y-88168112D01*
X100553500Y-87091888D01*
X100558065Y-87045532D01*
X100569796Y-87006862D01*
X100588846Y-86971223D01*
X100614483Y-86939983D01*
X100645723Y-86914346D01*
X100681362Y-86895296D01*
X100720032Y-86883565D01*
X100766388Y-86879000D01*
X101417612Y-86879000D01*
X101463968Y-86883565D01*
X101463968Y-86883565D01*
G37*
G36*
X99588968Y-86883565D02*
G01*
X99627638Y-86895296D01*
X99663277Y-86914346D01*
X99694517Y-86939983D01*
X99720154Y-86971223D01*
X99739204Y-87006862D01*
X99750935Y-87045532D01*
X99755500Y-87091888D01*
X99755500Y-88168112D01*
X99750935Y-88214468D01*
X99739204Y-88253138D01*
X99720154Y-88288777D01*
X99694517Y-88320017D01*
X99663277Y-88345654D01*
X99627638Y-88364704D01*
X99588968Y-88376435D01*
X99542612Y-88381000D01*
X98891388Y-88381000D01*
X98845032Y-88376435D01*
X98806362Y-88364704D01*
X98770723Y-88345654D01*
X98739483Y-88320017D01*
X98713846Y-88288777D01*
X98694796Y-88253138D01*
X98683065Y-88214468D01*
X98678500Y-88168112D01*
X98678500Y-87091888D01*
X98683065Y-87045532D01*
X98694796Y-87006862D01*
X98713846Y-86971223D01*
X98739483Y-86939983D01*
X98770723Y-86914346D01*
X98806362Y-86895296D01*
X98845032Y-86883565D01*
X98891388Y-86879000D01*
X99542612Y-86879000D01*
X99588968Y-86883565D01*
X99588968Y-86883565D01*
G37*
G36*
X155431443Y-86354519D02*
G01*
X155497627Y-86361037D01*
X155667466Y-86412557D01*
X155823991Y-86496222D01*
X155859729Y-86525552D01*
X155961186Y-86608814D01*
X156044448Y-86710271D01*
X156073778Y-86746009D01*
X156157443Y-86902534D01*
X156208963Y-87072373D01*
X156226359Y-87249000D01*
X156208963Y-87425627D01*
X156157443Y-87595466D01*
X156073778Y-87751991D01*
X156072386Y-87753687D01*
X155961186Y-87889186D01*
X155859729Y-87972448D01*
X155823991Y-88001778D01*
X155667466Y-88085443D01*
X155497627Y-88136963D01*
X155431442Y-88143482D01*
X155365260Y-88150000D01*
X155276740Y-88150000D01*
X155210558Y-88143482D01*
X155144373Y-88136963D01*
X154974534Y-88085443D01*
X154818009Y-88001778D01*
X154782271Y-87972448D01*
X154680814Y-87889186D01*
X154569614Y-87753687D01*
X154568222Y-87751991D01*
X154484557Y-87595466D01*
X154433037Y-87425627D01*
X154415641Y-87249000D01*
X154433037Y-87072373D01*
X154484557Y-86902534D01*
X154568222Y-86746009D01*
X154597552Y-86710271D01*
X154680814Y-86608814D01*
X154782271Y-86525552D01*
X154818009Y-86496222D01*
X154974534Y-86412557D01*
X155144373Y-86361037D01*
X155210557Y-86354519D01*
X155276740Y-86348000D01*
X155365260Y-86348000D01*
X155431443Y-86354519D01*
X155431443Y-86354519D01*
G37*
G36*
X126126823Y-86076313D02*
G01*
X126287242Y-86124976D01*
X126385833Y-86177674D01*
X126435078Y-86203996D01*
X126564659Y-86310341D01*
X126671004Y-86439922D01*
X126671005Y-86439924D01*
X126750024Y-86587758D01*
X126798687Y-86748177D01*
X126815117Y-86915000D01*
X126798687Y-87081823D01*
X126750024Y-87242242D01*
X126679114Y-87374906D01*
X126671004Y-87390078D01*
X126564659Y-87519659D01*
X126435078Y-87626004D01*
X126435076Y-87626005D01*
X126287242Y-87705024D01*
X126126823Y-87753687D01*
X126001804Y-87766000D01*
X125918196Y-87766000D01*
X125793177Y-87753687D01*
X125632758Y-87705024D01*
X125484924Y-87626005D01*
X125484922Y-87626004D01*
X125355341Y-87519659D01*
X125248996Y-87390078D01*
X125240886Y-87374906D01*
X125169976Y-87242242D01*
X125121313Y-87081823D01*
X125104883Y-86915000D01*
X125121313Y-86748177D01*
X125169976Y-86587758D01*
X125248995Y-86439924D01*
X125248996Y-86439922D01*
X125355341Y-86310341D01*
X125484922Y-86203996D01*
X125534167Y-86177674D01*
X125632758Y-86124976D01*
X125793177Y-86076313D01*
X125918196Y-86064000D01*
X126001804Y-86064000D01*
X126126823Y-86076313D01*
X126126823Y-86076313D01*
G37*
G36*
X118506823Y-86076313D02*
G01*
X118667242Y-86124976D01*
X118765833Y-86177674D01*
X118815078Y-86203996D01*
X118944659Y-86310341D01*
X119051004Y-86439922D01*
X119051005Y-86439924D01*
X119130024Y-86587758D01*
X119178687Y-86748177D01*
X119195117Y-86915000D01*
X119178687Y-87081823D01*
X119130024Y-87242242D01*
X119059114Y-87374906D01*
X119051004Y-87390078D01*
X118944659Y-87519659D01*
X118815078Y-87626004D01*
X118815076Y-87626005D01*
X118667242Y-87705024D01*
X118506823Y-87753687D01*
X118381804Y-87766000D01*
X118298196Y-87766000D01*
X118173177Y-87753687D01*
X118012758Y-87705024D01*
X117864924Y-87626005D01*
X117864922Y-87626004D01*
X117735341Y-87519659D01*
X117628996Y-87390078D01*
X117620886Y-87374906D01*
X117549976Y-87242242D01*
X117501313Y-87081823D01*
X117484883Y-86915000D01*
X117501313Y-86748177D01*
X117549976Y-86587758D01*
X117628995Y-86439924D01*
X117628996Y-86439922D01*
X117735341Y-86310341D01*
X117864922Y-86203996D01*
X117914167Y-86177674D01*
X118012758Y-86124976D01*
X118173177Y-86076313D01*
X118298196Y-86064000D01*
X118381804Y-86064000D01*
X118506823Y-86076313D01*
X118506823Y-86076313D01*
G37*
G36*
X148031468Y-86177065D02*
G01*
X148070138Y-86188796D01*
X148105777Y-86207846D01*
X148137017Y-86233483D01*
X148162654Y-86264723D01*
X148181704Y-86300362D01*
X148193435Y-86339032D01*
X148198000Y-86385388D01*
X148198000Y-87036612D01*
X148193435Y-87082968D01*
X148181704Y-87121638D01*
X148162654Y-87157277D01*
X148137017Y-87188517D01*
X148105777Y-87214154D01*
X148070138Y-87233204D01*
X148031468Y-87244935D01*
X147985112Y-87249500D01*
X146908888Y-87249500D01*
X146862532Y-87244935D01*
X146823862Y-87233204D01*
X146788223Y-87214154D01*
X146756983Y-87188517D01*
X146731346Y-87157277D01*
X146712296Y-87121638D01*
X146700565Y-87082968D01*
X146696000Y-87036612D01*
X146696000Y-86385388D01*
X146700565Y-86339032D01*
X146712296Y-86300362D01*
X146731346Y-86264723D01*
X146756983Y-86233483D01*
X146788223Y-86207846D01*
X146823862Y-86188796D01*
X146862532Y-86177065D01*
X146908888Y-86172500D01*
X147985112Y-86172500D01*
X148031468Y-86177065D01*
X148031468Y-86177065D01*
G37*
G36*
X109571482Y-84702242D02*
G01*
X109650627Y-84710037D01*
X109820466Y-84761557D01*
X109976991Y-84845222D01*
X110012729Y-84874552D01*
X110114186Y-84957814D01*
X110194326Y-85055466D01*
X110226778Y-85095009D01*
X110310443Y-85251534D01*
X110361963Y-85421373D01*
X110379359Y-85598000D01*
X110361963Y-85774627D01*
X110310443Y-85944466D01*
X110226778Y-86100991D01*
X110207094Y-86124976D01*
X110114186Y-86238186D01*
X110012729Y-86321448D01*
X109976991Y-86350778D01*
X109820466Y-86434443D01*
X109650627Y-86485963D01*
X109584442Y-86492482D01*
X109518260Y-86499000D01*
X109429740Y-86499000D01*
X109363558Y-86492482D01*
X109297373Y-86485963D01*
X109127534Y-86434443D01*
X108971009Y-86350778D01*
X108935271Y-86321448D01*
X108833814Y-86238186D01*
X108740906Y-86124976D01*
X108721222Y-86100991D01*
X108637557Y-85944466D01*
X108586037Y-85774627D01*
X108568641Y-85598000D01*
X108586037Y-85421373D01*
X108637557Y-85251534D01*
X108721222Y-85095009D01*
X108753674Y-85055466D01*
X108833814Y-84957814D01*
X108935271Y-84874552D01*
X108971009Y-84845222D01*
X109127534Y-84761557D01*
X109297373Y-84710037D01*
X109376518Y-84702242D01*
X109429740Y-84697000D01*
X109518260Y-84697000D01*
X109571482Y-84702242D01*
X109571482Y-84702242D01*
G37*
G36*
X155431442Y-83814518D02*
G01*
X155497627Y-83821037D01*
X155667466Y-83872557D01*
X155823991Y-83956222D01*
X155859729Y-83985552D01*
X155961186Y-84068814D01*
X156024516Y-84145983D01*
X156073778Y-84206009D01*
X156157443Y-84362534D01*
X156208963Y-84532373D01*
X156226359Y-84709000D01*
X156208963Y-84885627D01*
X156157443Y-85055466D01*
X156073778Y-85211991D01*
X156072386Y-85213687D01*
X155961186Y-85349186D01*
X155873222Y-85421375D01*
X155823991Y-85461778D01*
X155667466Y-85545443D01*
X155497627Y-85596963D01*
X155431443Y-85603481D01*
X155365260Y-85610000D01*
X155276740Y-85610000D01*
X155210557Y-85603481D01*
X155144373Y-85596963D01*
X154974534Y-85545443D01*
X154818009Y-85461778D01*
X154768778Y-85421375D01*
X154680814Y-85349186D01*
X154569614Y-85213687D01*
X154568222Y-85211991D01*
X154484557Y-85055466D01*
X154433037Y-84885627D01*
X154415641Y-84709000D01*
X154433037Y-84532373D01*
X154484557Y-84362534D01*
X154568222Y-84206009D01*
X154617484Y-84145983D01*
X154680814Y-84068814D01*
X154782271Y-83985552D01*
X154818009Y-83956222D01*
X154974534Y-83872557D01*
X155144373Y-83821037D01*
X155210558Y-83814518D01*
X155276740Y-83808000D01*
X155365260Y-83808000D01*
X155431442Y-83814518D01*
X155431442Y-83814518D01*
G37*
G36*
X138245468Y-84089565D02*
G01*
X138284138Y-84101296D01*
X138319777Y-84120346D01*
X138351017Y-84145983D01*
X138376654Y-84177223D01*
X138395704Y-84212862D01*
X138407435Y-84251532D01*
X138412000Y-84297888D01*
X138412000Y-85374112D01*
X138407435Y-85420468D01*
X138395704Y-85459138D01*
X138376654Y-85494777D01*
X138351017Y-85526017D01*
X138319777Y-85551654D01*
X138284138Y-85570704D01*
X138245468Y-85582435D01*
X138199112Y-85587000D01*
X137547888Y-85587000D01*
X137501532Y-85582435D01*
X137462862Y-85570704D01*
X137427223Y-85551654D01*
X137395983Y-85526017D01*
X137370346Y-85494777D01*
X137351296Y-85459138D01*
X137339565Y-85420468D01*
X137335000Y-85374112D01*
X137335000Y-84297888D01*
X137339565Y-84251532D01*
X137351296Y-84212862D01*
X137370346Y-84177223D01*
X137395983Y-84145983D01*
X137427223Y-84120346D01*
X137462862Y-84101296D01*
X137501532Y-84089565D01*
X137547888Y-84085000D01*
X138199112Y-84085000D01*
X138245468Y-84089565D01*
X138245468Y-84089565D01*
G37*
G36*
X140120468Y-84089565D02*
G01*
X140159138Y-84101296D01*
X140194777Y-84120346D01*
X140226017Y-84145983D01*
X140251654Y-84177223D01*
X140270704Y-84212862D01*
X140282435Y-84251532D01*
X140287000Y-84297888D01*
X140287000Y-85374112D01*
X140282435Y-85420468D01*
X140270704Y-85459138D01*
X140251654Y-85494777D01*
X140226017Y-85526017D01*
X140194777Y-85551654D01*
X140159138Y-85570704D01*
X140120468Y-85582435D01*
X140074112Y-85587000D01*
X139422888Y-85587000D01*
X139376532Y-85582435D01*
X139337862Y-85570704D01*
X139302223Y-85551654D01*
X139270983Y-85526017D01*
X139245346Y-85494777D01*
X139226296Y-85459138D01*
X139214565Y-85420468D01*
X139210000Y-85374112D01*
X139210000Y-84297888D01*
X139214565Y-84251532D01*
X139226296Y-84212862D01*
X139245346Y-84177223D01*
X139270983Y-84145983D01*
X139302223Y-84120346D01*
X139337862Y-84101296D01*
X139376532Y-84089565D01*
X139422888Y-84085000D01*
X140074112Y-84085000D01*
X140120468Y-84089565D01*
X140120468Y-84089565D01*
G37*
G36*
X148031468Y-84302065D02*
G01*
X148070138Y-84313796D01*
X148105777Y-84332846D01*
X148137017Y-84358483D01*
X148162654Y-84389723D01*
X148181704Y-84425362D01*
X148193435Y-84464032D01*
X148198000Y-84510388D01*
X148198000Y-85161612D01*
X148193435Y-85207968D01*
X148181704Y-85246638D01*
X148162654Y-85282277D01*
X148137017Y-85313517D01*
X148105777Y-85339154D01*
X148070138Y-85358204D01*
X148031468Y-85369935D01*
X147985112Y-85374500D01*
X146908888Y-85374500D01*
X146862532Y-85369935D01*
X146823862Y-85358204D01*
X146788223Y-85339154D01*
X146756983Y-85313517D01*
X146731346Y-85282277D01*
X146712296Y-85246638D01*
X146700565Y-85207968D01*
X146696000Y-85161612D01*
X146696000Y-84510388D01*
X146700565Y-84464032D01*
X146712296Y-84425362D01*
X146731346Y-84389723D01*
X146756983Y-84358483D01*
X146788223Y-84332846D01*
X146823862Y-84313796D01*
X146862532Y-84302065D01*
X146908888Y-84297500D01*
X147985112Y-84297500D01*
X148031468Y-84302065D01*
X148031468Y-84302065D01*
G37*
G36*
X118506823Y-83536313D02*
G01*
X118667242Y-83584976D01*
X118799906Y-83655886D01*
X118815078Y-83663996D01*
X118944659Y-83770341D01*
X119051004Y-83899922D01*
X119051005Y-83899924D01*
X119130024Y-84047758D01*
X119178687Y-84208177D01*
X119195117Y-84375000D01*
X119178687Y-84541823D01*
X119130024Y-84702242D01*
X119125857Y-84710037D01*
X119051004Y-84850078D01*
X118944659Y-84979659D01*
X118815078Y-85086004D01*
X118815076Y-85086005D01*
X118667242Y-85165024D01*
X118506823Y-85213687D01*
X118381804Y-85226000D01*
X118298196Y-85226000D01*
X118173177Y-85213687D01*
X118012758Y-85165024D01*
X117864924Y-85086005D01*
X117864922Y-85086004D01*
X117735341Y-84979659D01*
X117628996Y-84850078D01*
X117554143Y-84710037D01*
X117549976Y-84702242D01*
X117501313Y-84541823D01*
X117484883Y-84375000D01*
X117501313Y-84208177D01*
X117549976Y-84047758D01*
X117628995Y-83899924D01*
X117628996Y-83899922D01*
X117735341Y-83770341D01*
X117864922Y-83663996D01*
X117880094Y-83655886D01*
X118012758Y-83584976D01*
X118173177Y-83536313D01*
X118298196Y-83524000D01*
X118381804Y-83524000D01*
X118506823Y-83536313D01*
X118506823Y-83536313D01*
G37*
G36*
X126126823Y-83536313D02*
G01*
X126287242Y-83584976D01*
X126419906Y-83655886D01*
X126435078Y-83663996D01*
X126564659Y-83770341D01*
X126671004Y-83899922D01*
X126671005Y-83899924D01*
X126750024Y-84047758D01*
X126798687Y-84208177D01*
X126815117Y-84375000D01*
X126798687Y-84541823D01*
X126750024Y-84702242D01*
X126745857Y-84710037D01*
X126671004Y-84850078D01*
X126564659Y-84979659D01*
X126435078Y-85086004D01*
X126435076Y-85086005D01*
X126287242Y-85165024D01*
X126126823Y-85213687D01*
X126001804Y-85226000D01*
X125918196Y-85226000D01*
X125793177Y-85213687D01*
X125632758Y-85165024D01*
X125484924Y-85086005D01*
X125484922Y-85086004D01*
X125355341Y-84979659D01*
X125248996Y-84850078D01*
X125174143Y-84710037D01*
X125169976Y-84702242D01*
X125121313Y-84541823D01*
X125104883Y-84375000D01*
X125121313Y-84208177D01*
X125169976Y-84047758D01*
X125248995Y-83899924D01*
X125248996Y-83899922D01*
X125355341Y-83770341D01*
X125484922Y-83663996D01*
X125500094Y-83655886D01*
X125632758Y-83584976D01*
X125793177Y-83536313D01*
X125918196Y-83524000D01*
X126001804Y-83524000D01*
X126126823Y-83536313D01*
X126126823Y-83536313D01*
G37*
G36*
X109571482Y-82162242D02*
G01*
X109650627Y-82170037D01*
X109820466Y-82221557D01*
X109976991Y-82305222D01*
X110012729Y-82334552D01*
X110114186Y-82417814D01*
X110194326Y-82515466D01*
X110226778Y-82555009D01*
X110310443Y-82711534D01*
X110361963Y-82881373D01*
X110379359Y-83058000D01*
X110361963Y-83234627D01*
X110310443Y-83404466D01*
X110226778Y-83560991D01*
X110207094Y-83584976D01*
X110114186Y-83698186D01*
X110012729Y-83781448D01*
X109976991Y-83810778D01*
X109820466Y-83894443D01*
X109650627Y-83945963D01*
X109584442Y-83952482D01*
X109518260Y-83959000D01*
X109429740Y-83959000D01*
X109363558Y-83952482D01*
X109297373Y-83945963D01*
X109127534Y-83894443D01*
X108971009Y-83810778D01*
X108935271Y-83781448D01*
X108833814Y-83698186D01*
X108740906Y-83584976D01*
X108721222Y-83560991D01*
X108637557Y-83404466D01*
X108586037Y-83234627D01*
X108568641Y-83058000D01*
X108586037Y-82881373D01*
X108637557Y-82711534D01*
X108721222Y-82555009D01*
X108753674Y-82515466D01*
X108833814Y-82417814D01*
X108935271Y-82334552D01*
X108971009Y-82305222D01*
X109127534Y-82221557D01*
X109297373Y-82170037D01*
X109376518Y-82162242D01*
X109429740Y-82157000D01*
X109518260Y-82157000D01*
X109571482Y-82162242D01*
X109571482Y-82162242D01*
G37*
G36*
X101463968Y-81676565D02*
G01*
X101502638Y-81688296D01*
X101538277Y-81707346D01*
X101569517Y-81732983D01*
X101595154Y-81764223D01*
X101614204Y-81799862D01*
X101625935Y-81838532D01*
X101630500Y-81884888D01*
X101630500Y-82961112D01*
X101625935Y-83007468D01*
X101614204Y-83046138D01*
X101595154Y-83081777D01*
X101569517Y-83113017D01*
X101538277Y-83138654D01*
X101502638Y-83157704D01*
X101463968Y-83169435D01*
X101417612Y-83174000D01*
X100766388Y-83174000D01*
X100720032Y-83169435D01*
X100681362Y-83157704D01*
X100645723Y-83138654D01*
X100614483Y-83113017D01*
X100588846Y-83081777D01*
X100569796Y-83046138D01*
X100558065Y-83007468D01*
X100553500Y-82961112D01*
X100553500Y-81884888D01*
X100558065Y-81838532D01*
X100569796Y-81799862D01*
X100588846Y-81764223D01*
X100614483Y-81732983D01*
X100645723Y-81707346D01*
X100681362Y-81688296D01*
X100720032Y-81676565D01*
X100766388Y-81672000D01*
X101417612Y-81672000D01*
X101463968Y-81676565D01*
X101463968Y-81676565D01*
G37*
G36*
X99588968Y-81676565D02*
G01*
X99627638Y-81688296D01*
X99663277Y-81707346D01*
X99694517Y-81732983D01*
X99720154Y-81764223D01*
X99739204Y-81799862D01*
X99750935Y-81838532D01*
X99755500Y-81884888D01*
X99755500Y-82961112D01*
X99750935Y-83007468D01*
X99739204Y-83046138D01*
X99720154Y-83081777D01*
X99694517Y-83113017D01*
X99663277Y-83138654D01*
X99627638Y-83157704D01*
X99588968Y-83169435D01*
X99542612Y-83174000D01*
X98891388Y-83174000D01*
X98845032Y-83169435D01*
X98806362Y-83157704D01*
X98770723Y-83138654D01*
X98739483Y-83113017D01*
X98713846Y-83081777D01*
X98694796Y-83046138D01*
X98683065Y-83007468D01*
X98678500Y-82961112D01*
X98678500Y-81884888D01*
X98683065Y-81838532D01*
X98694796Y-81799862D01*
X98713846Y-81764223D01*
X98739483Y-81732983D01*
X98770723Y-81707346D01*
X98806362Y-81688296D01*
X98845032Y-81676565D01*
X98891388Y-81672000D01*
X99542612Y-81672000D01*
X99588968Y-81676565D01*
X99588968Y-81676565D01*
G37*
G36*
X155431443Y-81274519D02*
G01*
X155497627Y-81281037D01*
X155667466Y-81332557D01*
X155823991Y-81416222D01*
X155859729Y-81445552D01*
X155961186Y-81528814D01*
X156044448Y-81630271D01*
X156073778Y-81666009D01*
X156073779Y-81666011D01*
X156145325Y-81799862D01*
X156157443Y-81822534D01*
X156208963Y-81992373D01*
X156226359Y-82169000D01*
X156208963Y-82345627D01*
X156157443Y-82515466D01*
X156073778Y-82671991D01*
X156072386Y-82673687D01*
X155961186Y-82809186D01*
X155873222Y-82881375D01*
X155823991Y-82921778D01*
X155667466Y-83005443D01*
X155497627Y-83056963D01*
X155431442Y-83063482D01*
X155365260Y-83070000D01*
X155276740Y-83070000D01*
X155210558Y-83063482D01*
X155144373Y-83056963D01*
X154974534Y-83005443D01*
X154818009Y-82921778D01*
X154768778Y-82881375D01*
X154680814Y-82809186D01*
X154569614Y-82673687D01*
X154568222Y-82671991D01*
X154484557Y-82515466D01*
X154433037Y-82345627D01*
X154415641Y-82169000D01*
X154433037Y-81992373D01*
X154484557Y-81822534D01*
X154496676Y-81799862D01*
X154568221Y-81666011D01*
X154568222Y-81666009D01*
X154597552Y-81630271D01*
X154680814Y-81528814D01*
X154782271Y-81445552D01*
X154818009Y-81416222D01*
X154974534Y-81332557D01*
X155144373Y-81281037D01*
X155210557Y-81274519D01*
X155276740Y-81268000D01*
X155365260Y-81268000D01*
X155431443Y-81274519D01*
X155431443Y-81274519D01*
G37*
G36*
X118506823Y-80996313D02*
G01*
X118667242Y-81044976D01*
X118765833Y-81097674D01*
X118815078Y-81123996D01*
X118944659Y-81230341D01*
X119051004Y-81359922D01*
X119051005Y-81359924D01*
X119130024Y-81507758D01*
X119178687Y-81668177D01*
X119195117Y-81835000D01*
X119178687Y-82001823D01*
X119130024Y-82162242D01*
X119125857Y-82170037D01*
X119051004Y-82310078D01*
X118944659Y-82439659D01*
X118815078Y-82546004D01*
X118815076Y-82546005D01*
X118667242Y-82625024D01*
X118506823Y-82673687D01*
X118381804Y-82686000D01*
X118298196Y-82686000D01*
X118173177Y-82673687D01*
X118012758Y-82625024D01*
X117864924Y-82546005D01*
X117864922Y-82546004D01*
X117735341Y-82439659D01*
X117628996Y-82310078D01*
X117554143Y-82170037D01*
X117549976Y-82162242D01*
X117501313Y-82001823D01*
X117484883Y-81835000D01*
X117501313Y-81668177D01*
X117549976Y-81507758D01*
X117628995Y-81359924D01*
X117628996Y-81359922D01*
X117735341Y-81230341D01*
X117864922Y-81123996D01*
X117914167Y-81097674D01*
X118012758Y-81044976D01*
X118173177Y-80996313D01*
X118298196Y-80984000D01*
X118381804Y-80984000D01*
X118506823Y-80996313D01*
X118506823Y-80996313D01*
G37*
G36*
X126126823Y-80996313D02*
G01*
X126287242Y-81044976D01*
X126385833Y-81097674D01*
X126435078Y-81123996D01*
X126564659Y-81230341D01*
X126671004Y-81359922D01*
X126671005Y-81359924D01*
X126750024Y-81507758D01*
X126798687Y-81668177D01*
X126815117Y-81835000D01*
X126798687Y-82001823D01*
X126750024Y-82162242D01*
X126745857Y-82170037D01*
X126671004Y-82310078D01*
X126564659Y-82439659D01*
X126435078Y-82546004D01*
X126435076Y-82546005D01*
X126287242Y-82625024D01*
X126126823Y-82673687D01*
X126001804Y-82686000D01*
X125918196Y-82686000D01*
X125793177Y-82673687D01*
X125632758Y-82625024D01*
X125484924Y-82546005D01*
X125484922Y-82546004D01*
X125355341Y-82439659D01*
X125248996Y-82310078D01*
X125174143Y-82170037D01*
X125169976Y-82162242D01*
X125121313Y-82001823D01*
X125104883Y-81835000D01*
X125121313Y-81668177D01*
X125169976Y-81507758D01*
X125248995Y-81359924D01*
X125248996Y-81359922D01*
X125355341Y-81230341D01*
X125484922Y-81123996D01*
X125534167Y-81097674D01*
X125632758Y-81044976D01*
X125793177Y-80996313D01*
X125918196Y-80984000D01*
X126001804Y-80984000D01*
X126126823Y-80996313D01*
X126126823Y-80996313D01*
G37*
G36*
X148031468Y-81097065D02*
G01*
X148070138Y-81108796D01*
X148105777Y-81127846D01*
X148137017Y-81153483D01*
X148162654Y-81184723D01*
X148181704Y-81220362D01*
X148193435Y-81259032D01*
X148198000Y-81305388D01*
X148198000Y-81956612D01*
X148193435Y-82002968D01*
X148181704Y-82041638D01*
X148162654Y-82077277D01*
X148137017Y-82108517D01*
X148105777Y-82134154D01*
X148070138Y-82153204D01*
X148031468Y-82164935D01*
X147985112Y-82169500D01*
X146908888Y-82169500D01*
X146862532Y-82164935D01*
X146823862Y-82153204D01*
X146788223Y-82134154D01*
X146756983Y-82108517D01*
X146731346Y-82077277D01*
X146712296Y-82041638D01*
X146700565Y-82002968D01*
X146696000Y-81956612D01*
X146696000Y-81305388D01*
X146700565Y-81259032D01*
X146712296Y-81220362D01*
X146731346Y-81184723D01*
X146756983Y-81153483D01*
X146788223Y-81127846D01*
X146823862Y-81108796D01*
X146862532Y-81097065D01*
X146908888Y-81092500D01*
X147985112Y-81092500D01*
X148031468Y-81097065D01*
X148031468Y-81097065D01*
G37*
G36*
X131775468Y-81097065D02*
G01*
X131814138Y-81108796D01*
X131849777Y-81127846D01*
X131881017Y-81153483D01*
X131906654Y-81184723D01*
X131925704Y-81220362D01*
X131937435Y-81259032D01*
X131942000Y-81305388D01*
X131942000Y-81956612D01*
X131937435Y-82002968D01*
X131925704Y-82041638D01*
X131906654Y-82077277D01*
X131881017Y-82108517D01*
X131849777Y-82134154D01*
X131814138Y-82153204D01*
X131775468Y-82164935D01*
X131729112Y-82169500D01*
X130652888Y-82169500D01*
X130606532Y-82164935D01*
X130567862Y-82153204D01*
X130532223Y-82134154D01*
X130500983Y-82108517D01*
X130475346Y-82077277D01*
X130456296Y-82041638D01*
X130444565Y-82002968D01*
X130440000Y-81956612D01*
X130440000Y-81305388D01*
X130444565Y-81259032D01*
X130456296Y-81220362D01*
X130475346Y-81184723D01*
X130500983Y-81153483D01*
X130532223Y-81127846D01*
X130567862Y-81108796D01*
X130606532Y-81097065D01*
X130652888Y-81092500D01*
X131729112Y-81092500D01*
X131775468Y-81097065D01*
X131775468Y-81097065D01*
G37*
G36*
X155431442Y-78734518D02*
G01*
X155497627Y-78741037D01*
X155667466Y-78792557D01*
X155823991Y-78876222D01*
X155859729Y-78905552D01*
X155961186Y-78988814D01*
X156024516Y-79065983D01*
X156073778Y-79126009D01*
X156157443Y-79282534D01*
X156208963Y-79452373D01*
X156226359Y-79629000D01*
X156208963Y-79805627D01*
X156157443Y-79975466D01*
X156073778Y-80131991D01*
X156072386Y-80133687D01*
X155961186Y-80269186D01*
X155874327Y-80340468D01*
X155823991Y-80381778D01*
X155667466Y-80465443D01*
X155497627Y-80516963D01*
X155431442Y-80523482D01*
X155365260Y-80530000D01*
X155276740Y-80530000D01*
X155210558Y-80523482D01*
X155144373Y-80516963D01*
X154974534Y-80465443D01*
X154818009Y-80381778D01*
X154767673Y-80340468D01*
X154680814Y-80269186D01*
X154569614Y-80133687D01*
X154568222Y-80131991D01*
X154484557Y-79975466D01*
X154433037Y-79805627D01*
X154415641Y-79629000D01*
X154433037Y-79452373D01*
X154484557Y-79282534D01*
X154568222Y-79126009D01*
X154617484Y-79065983D01*
X154680814Y-78988814D01*
X154782271Y-78905552D01*
X154818009Y-78876222D01*
X154974534Y-78792557D01*
X155144373Y-78741037D01*
X155210558Y-78734518D01*
X155276740Y-78728000D01*
X155365260Y-78728000D01*
X155431442Y-78734518D01*
X155431442Y-78734518D01*
G37*
G36*
X138166968Y-79009565D02*
G01*
X138205638Y-79021296D01*
X138241277Y-79040346D01*
X138272517Y-79065983D01*
X138298154Y-79097223D01*
X138317204Y-79132862D01*
X138328935Y-79171532D01*
X138333500Y-79217888D01*
X138333500Y-80294112D01*
X138328935Y-80340468D01*
X138317204Y-80379138D01*
X138298154Y-80414777D01*
X138272517Y-80446017D01*
X138241277Y-80471654D01*
X138205638Y-80490704D01*
X138166968Y-80502435D01*
X138120612Y-80507000D01*
X137469388Y-80507000D01*
X137423032Y-80502435D01*
X137384362Y-80490704D01*
X137348723Y-80471654D01*
X137317483Y-80446017D01*
X137291846Y-80414777D01*
X137272796Y-80379138D01*
X137261065Y-80340468D01*
X137256500Y-80294112D01*
X137256500Y-79217888D01*
X137261065Y-79171532D01*
X137272796Y-79132862D01*
X137291846Y-79097223D01*
X137317483Y-79065983D01*
X137348723Y-79040346D01*
X137384362Y-79021296D01*
X137423032Y-79009565D01*
X137469388Y-79005000D01*
X138120612Y-79005000D01*
X138166968Y-79009565D01*
X138166968Y-79009565D01*
G37*
G36*
X140041968Y-79009565D02*
G01*
X140080638Y-79021296D01*
X140116277Y-79040346D01*
X140147517Y-79065983D01*
X140173154Y-79097223D01*
X140192204Y-79132862D01*
X140203935Y-79171532D01*
X140208500Y-79217888D01*
X140208500Y-80294112D01*
X140203935Y-80340468D01*
X140192204Y-80379138D01*
X140173154Y-80414777D01*
X140147517Y-80446017D01*
X140116277Y-80471654D01*
X140080638Y-80490704D01*
X140041968Y-80502435D01*
X139995612Y-80507000D01*
X139344388Y-80507000D01*
X139298032Y-80502435D01*
X139259362Y-80490704D01*
X139223723Y-80471654D01*
X139192483Y-80446017D01*
X139166846Y-80414777D01*
X139147796Y-80379138D01*
X139136065Y-80340468D01*
X139131500Y-80294112D01*
X139131500Y-79217888D01*
X139136065Y-79171532D01*
X139147796Y-79132862D01*
X139166846Y-79097223D01*
X139192483Y-79065983D01*
X139223723Y-79040346D01*
X139259362Y-79021296D01*
X139298032Y-79009565D01*
X139344388Y-79005000D01*
X139995612Y-79005000D01*
X140041968Y-79009565D01*
X140041968Y-79009565D01*
G37*
G36*
X148031468Y-79222065D02*
G01*
X148070138Y-79233796D01*
X148105777Y-79252846D01*
X148137017Y-79278483D01*
X148162654Y-79309723D01*
X148181704Y-79345362D01*
X148193435Y-79384032D01*
X148198000Y-79430388D01*
X148198000Y-80081612D01*
X148193435Y-80127968D01*
X148181704Y-80166638D01*
X148162654Y-80202277D01*
X148137017Y-80233517D01*
X148105777Y-80259154D01*
X148070138Y-80278204D01*
X148031468Y-80289935D01*
X147985112Y-80294500D01*
X146908888Y-80294500D01*
X146862532Y-80289935D01*
X146823862Y-80278204D01*
X146788223Y-80259154D01*
X146756983Y-80233517D01*
X146731346Y-80202277D01*
X146712296Y-80166638D01*
X146700565Y-80127968D01*
X146696000Y-80081612D01*
X146696000Y-79430388D01*
X146700565Y-79384032D01*
X146712296Y-79345362D01*
X146731346Y-79309723D01*
X146756983Y-79278483D01*
X146788223Y-79252846D01*
X146823862Y-79233796D01*
X146862532Y-79222065D01*
X146908888Y-79217500D01*
X147985112Y-79217500D01*
X148031468Y-79222065D01*
X148031468Y-79222065D01*
G37*
G36*
X131775468Y-79222065D02*
G01*
X131814138Y-79233796D01*
X131849777Y-79252846D01*
X131881017Y-79278483D01*
X131906654Y-79309723D01*
X131925704Y-79345362D01*
X131937435Y-79384032D01*
X131942000Y-79430388D01*
X131942000Y-80081612D01*
X131937435Y-80127968D01*
X131925704Y-80166638D01*
X131906654Y-80202277D01*
X131881017Y-80233517D01*
X131849777Y-80259154D01*
X131814138Y-80278204D01*
X131775468Y-80289935D01*
X131729112Y-80294500D01*
X130652888Y-80294500D01*
X130606532Y-80289935D01*
X130567862Y-80278204D01*
X130532223Y-80259154D01*
X130500983Y-80233517D01*
X130475346Y-80202277D01*
X130456296Y-80166638D01*
X130444565Y-80127968D01*
X130440000Y-80081612D01*
X130440000Y-79430388D01*
X130444565Y-79384032D01*
X130456296Y-79345362D01*
X130475346Y-79309723D01*
X130500983Y-79278483D01*
X130532223Y-79252846D01*
X130567862Y-79233796D01*
X130606532Y-79222065D01*
X130652888Y-79217500D01*
X131729112Y-79217500D01*
X131775468Y-79222065D01*
X131775468Y-79222065D01*
G37*
G36*
X118506823Y-78456313D02*
G01*
X118667242Y-78504976D01*
X118799906Y-78575886D01*
X118815078Y-78583996D01*
X118944659Y-78690341D01*
X119051004Y-78819922D01*
X119051005Y-78819924D01*
X119130024Y-78967758D01*
X119178687Y-79128177D01*
X119195117Y-79295000D01*
X119178687Y-79461823D01*
X119130024Y-79622242D01*
X119059114Y-79754906D01*
X119051004Y-79770078D01*
X118944659Y-79899659D01*
X118815078Y-80006004D01*
X118815076Y-80006005D01*
X118667242Y-80085024D01*
X118506823Y-80133687D01*
X118381804Y-80146000D01*
X118298196Y-80146000D01*
X118173177Y-80133687D01*
X118012758Y-80085024D01*
X117864924Y-80006005D01*
X117864922Y-80006004D01*
X117735341Y-79899659D01*
X117628996Y-79770078D01*
X117620886Y-79754906D01*
X117549976Y-79622242D01*
X117501313Y-79461823D01*
X117484883Y-79295000D01*
X117501313Y-79128177D01*
X117549976Y-78967758D01*
X117628995Y-78819924D01*
X117628996Y-78819922D01*
X117735341Y-78690341D01*
X117864922Y-78583996D01*
X117880094Y-78575886D01*
X118012758Y-78504976D01*
X118173177Y-78456313D01*
X118298196Y-78444000D01*
X118381804Y-78444000D01*
X118506823Y-78456313D01*
X118506823Y-78456313D01*
G37*
G36*
X126126823Y-78456313D02*
G01*
X126287242Y-78504976D01*
X126419906Y-78575886D01*
X126435078Y-78583996D01*
X126564659Y-78690341D01*
X126671004Y-78819922D01*
X126671005Y-78819924D01*
X126750024Y-78967758D01*
X126798687Y-79128177D01*
X126815117Y-79295000D01*
X126798687Y-79461823D01*
X126750024Y-79622242D01*
X126679114Y-79754906D01*
X126671004Y-79770078D01*
X126564659Y-79899659D01*
X126435078Y-80006004D01*
X126435076Y-80006005D01*
X126287242Y-80085024D01*
X126126823Y-80133687D01*
X126001804Y-80146000D01*
X125918196Y-80146000D01*
X125793177Y-80133687D01*
X125632758Y-80085024D01*
X125484924Y-80006005D01*
X125484922Y-80006004D01*
X125355341Y-79899659D01*
X125248996Y-79770078D01*
X125240886Y-79754906D01*
X125169976Y-79622242D01*
X125121313Y-79461823D01*
X125104883Y-79295000D01*
X125121313Y-79128177D01*
X125169976Y-78967758D01*
X125248995Y-78819924D01*
X125248996Y-78819922D01*
X125355341Y-78690341D01*
X125484922Y-78583996D01*
X125500094Y-78575886D01*
X125632758Y-78504976D01*
X125793177Y-78456313D01*
X125918196Y-78444000D01*
X126001804Y-78444000D01*
X126126823Y-78456313D01*
X126126823Y-78456313D01*
G37*
G36*
X155431442Y-76194518D02*
G01*
X155497627Y-76201037D01*
X155667466Y-76252557D01*
X155823991Y-76336222D01*
X155859729Y-76365552D01*
X155961186Y-76448814D01*
X156044448Y-76550271D01*
X156073778Y-76586009D01*
X156157443Y-76742534D01*
X156208963Y-76912373D01*
X156226359Y-77089000D01*
X156208963Y-77265627D01*
X156157443Y-77435466D01*
X156073778Y-77591991D01*
X156072386Y-77593687D01*
X155961186Y-77729186D01*
X155859729Y-77812448D01*
X155823991Y-77841778D01*
X155667466Y-77925443D01*
X155497627Y-77976963D01*
X155431442Y-77983482D01*
X155365260Y-77990000D01*
X155276740Y-77990000D01*
X155210558Y-77983482D01*
X155144373Y-77976963D01*
X154974534Y-77925443D01*
X154818009Y-77841778D01*
X154782271Y-77812448D01*
X154680814Y-77729186D01*
X154569614Y-77593687D01*
X154568222Y-77591991D01*
X154484557Y-77435466D01*
X154433037Y-77265627D01*
X154415641Y-77089000D01*
X154433037Y-76912373D01*
X154484557Y-76742534D01*
X154568222Y-76586009D01*
X154597552Y-76550271D01*
X154680814Y-76448814D01*
X154782271Y-76365552D01*
X154818009Y-76336222D01*
X154974534Y-76252557D01*
X155144373Y-76201037D01*
X155210558Y-76194518D01*
X155276740Y-76188000D01*
X155365260Y-76188000D01*
X155431442Y-76194518D01*
X155431442Y-76194518D01*
G37*
G36*
X126126823Y-75916313D02*
G01*
X126287242Y-75964976D01*
X126385833Y-76017674D01*
X126435078Y-76043996D01*
X126564659Y-76150341D01*
X126671004Y-76279922D01*
X126671005Y-76279924D01*
X126750024Y-76427758D01*
X126798687Y-76588177D01*
X126815117Y-76755000D01*
X126798687Y-76921823D01*
X126750024Y-77082242D01*
X126708663Y-77159623D01*
X126671004Y-77230078D01*
X126564659Y-77359659D01*
X126435078Y-77466004D01*
X126435076Y-77466005D01*
X126287242Y-77545024D01*
X126126823Y-77593687D01*
X126001804Y-77606000D01*
X125918196Y-77606000D01*
X125793177Y-77593687D01*
X125632758Y-77545024D01*
X125484924Y-77466005D01*
X125484922Y-77466004D01*
X125355341Y-77359659D01*
X125248996Y-77230078D01*
X125211337Y-77159623D01*
X125169976Y-77082242D01*
X125121313Y-76921823D01*
X125104883Y-76755000D01*
X125121313Y-76588177D01*
X125169976Y-76427758D01*
X125248995Y-76279924D01*
X125248996Y-76279922D01*
X125355341Y-76150341D01*
X125484922Y-76043996D01*
X125534167Y-76017674D01*
X125632758Y-75964976D01*
X125793177Y-75916313D01*
X125918196Y-75904000D01*
X126001804Y-75904000D01*
X126126823Y-75916313D01*
X126126823Y-75916313D01*
G37*
G36*
X118506823Y-75916313D02*
G01*
X118667242Y-75964976D01*
X118765833Y-76017674D01*
X118815078Y-76043996D01*
X118944659Y-76150341D01*
X119051004Y-76279922D01*
X119051005Y-76279924D01*
X119130024Y-76427758D01*
X119178687Y-76588177D01*
X119195117Y-76755000D01*
X119178687Y-76921823D01*
X119130024Y-77082242D01*
X119088663Y-77159623D01*
X119051004Y-77230078D01*
X118944659Y-77359659D01*
X118815078Y-77466004D01*
X118815076Y-77466005D01*
X118667242Y-77545024D01*
X118506823Y-77593687D01*
X118381804Y-77606000D01*
X118298196Y-77606000D01*
X118173177Y-77593687D01*
X118012758Y-77545024D01*
X117864924Y-77466005D01*
X117864922Y-77466004D01*
X117735341Y-77359659D01*
X117628996Y-77230078D01*
X117591337Y-77159623D01*
X117549976Y-77082242D01*
X117501313Y-76921823D01*
X117484883Y-76755000D01*
X117501313Y-76588177D01*
X117549976Y-76427758D01*
X117628995Y-76279924D01*
X117628996Y-76279922D01*
X117735341Y-76150341D01*
X117864922Y-76043996D01*
X117914167Y-76017674D01*
X118012758Y-75964976D01*
X118173177Y-75916313D01*
X118298196Y-75904000D01*
X118381804Y-75904000D01*
X118506823Y-75916313D01*
X118506823Y-75916313D01*
G37*
G36*
X107940968Y-75707565D02*
G01*
X107979638Y-75719296D01*
X108015277Y-75738346D01*
X108046517Y-75763983D01*
X108072154Y-75795223D01*
X108091204Y-75830862D01*
X108102935Y-75869532D01*
X108107500Y-75915888D01*
X108107500Y-76992112D01*
X108102935Y-77038468D01*
X108091204Y-77077138D01*
X108072154Y-77112777D01*
X108046517Y-77144017D01*
X108015277Y-77169654D01*
X107979638Y-77188704D01*
X107940968Y-77200435D01*
X107894612Y-77205000D01*
X107243388Y-77205000D01*
X107197032Y-77200435D01*
X107158362Y-77188704D01*
X107122723Y-77169654D01*
X107091483Y-77144017D01*
X107065846Y-77112777D01*
X107046796Y-77077138D01*
X107035065Y-77038468D01*
X107030500Y-76992112D01*
X107030500Y-75915888D01*
X107035065Y-75869532D01*
X107046796Y-75830862D01*
X107065846Y-75795223D01*
X107091483Y-75763983D01*
X107122723Y-75738346D01*
X107158362Y-75719296D01*
X107197032Y-75707565D01*
X107243388Y-75703000D01*
X107894612Y-75703000D01*
X107940968Y-75707565D01*
X107940968Y-75707565D01*
G37*
G36*
X101463968Y-75707565D02*
G01*
X101502638Y-75719296D01*
X101538277Y-75738346D01*
X101569517Y-75763983D01*
X101595154Y-75795223D01*
X101614204Y-75830862D01*
X101625935Y-75869532D01*
X101630500Y-75915888D01*
X101630500Y-76992112D01*
X101625935Y-77038468D01*
X101614204Y-77077138D01*
X101595154Y-77112777D01*
X101569517Y-77144017D01*
X101538277Y-77169654D01*
X101502638Y-77188704D01*
X101463968Y-77200435D01*
X101417612Y-77205000D01*
X100766388Y-77205000D01*
X100720032Y-77200435D01*
X100681362Y-77188704D01*
X100645723Y-77169654D01*
X100614483Y-77144017D01*
X100588846Y-77112777D01*
X100569796Y-77077138D01*
X100558065Y-77038468D01*
X100553500Y-76992112D01*
X100553500Y-75915888D01*
X100558065Y-75869532D01*
X100569796Y-75830862D01*
X100588846Y-75795223D01*
X100614483Y-75763983D01*
X100645723Y-75738346D01*
X100681362Y-75719296D01*
X100720032Y-75707565D01*
X100766388Y-75703000D01*
X101417612Y-75703000D01*
X101463968Y-75707565D01*
X101463968Y-75707565D01*
G37*
G36*
X106065968Y-75707565D02*
G01*
X106104638Y-75719296D01*
X106140277Y-75738346D01*
X106171517Y-75763983D01*
X106197154Y-75795223D01*
X106216204Y-75830862D01*
X106227935Y-75869532D01*
X106232500Y-75915888D01*
X106232500Y-76992112D01*
X106227935Y-77038468D01*
X106216204Y-77077138D01*
X106197154Y-77112777D01*
X106171517Y-77144017D01*
X106140277Y-77169654D01*
X106104638Y-77188704D01*
X106065968Y-77200435D01*
X106019612Y-77205000D01*
X105368388Y-77205000D01*
X105322032Y-77200435D01*
X105283362Y-77188704D01*
X105247723Y-77169654D01*
X105216483Y-77144017D01*
X105190846Y-77112777D01*
X105171796Y-77077138D01*
X105160065Y-77038468D01*
X105155500Y-76992112D01*
X105155500Y-75915888D01*
X105160065Y-75869532D01*
X105171796Y-75830862D01*
X105190846Y-75795223D01*
X105216483Y-75763983D01*
X105247723Y-75738346D01*
X105283362Y-75719296D01*
X105322032Y-75707565D01*
X105368388Y-75703000D01*
X106019612Y-75703000D01*
X106065968Y-75707565D01*
X106065968Y-75707565D01*
G37*
G36*
X99588968Y-75707565D02*
G01*
X99627638Y-75719296D01*
X99663277Y-75738346D01*
X99694517Y-75763983D01*
X99720154Y-75795223D01*
X99739204Y-75830862D01*
X99750935Y-75869532D01*
X99755500Y-75915888D01*
X99755500Y-76992112D01*
X99750935Y-77038468D01*
X99739204Y-77077138D01*
X99720154Y-77112777D01*
X99694517Y-77144017D01*
X99663277Y-77169654D01*
X99627638Y-77188704D01*
X99588968Y-77200435D01*
X99542612Y-77205000D01*
X98891388Y-77205000D01*
X98845032Y-77200435D01*
X98806362Y-77188704D01*
X98770723Y-77169654D01*
X98739483Y-77144017D01*
X98713846Y-77112777D01*
X98694796Y-77077138D01*
X98683065Y-77038468D01*
X98678500Y-76992112D01*
X98678500Y-75915888D01*
X98683065Y-75869532D01*
X98694796Y-75830862D01*
X98713846Y-75795223D01*
X98739483Y-75763983D01*
X98770723Y-75738346D01*
X98806362Y-75719296D01*
X98845032Y-75707565D01*
X98891388Y-75703000D01*
X99542612Y-75703000D01*
X99588968Y-75707565D01*
X99588968Y-75707565D01*
G37*
G36*
X148031468Y-76017065D02*
G01*
X148070138Y-76028796D01*
X148105777Y-76047846D01*
X148137017Y-76073483D01*
X148162654Y-76104723D01*
X148181704Y-76140362D01*
X148193435Y-76179032D01*
X148198000Y-76225388D01*
X148198000Y-76876612D01*
X148193435Y-76922968D01*
X148181704Y-76961638D01*
X148162654Y-76997277D01*
X148137017Y-77028517D01*
X148105777Y-77054154D01*
X148070138Y-77073204D01*
X148031468Y-77084935D01*
X147985112Y-77089500D01*
X146908888Y-77089500D01*
X146862532Y-77084935D01*
X146823862Y-77073204D01*
X146788223Y-77054154D01*
X146756983Y-77028517D01*
X146731346Y-76997277D01*
X146712296Y-76961638D01*
X146700565Y-76922968D01*
X146696000Y-76876612D01*
X146696000Y-76225388D01*
X146700565Y-76179032D01*
X146712296Y-76140362D01*
X146731346Y-76104723D01*
X146756983Y-76073483D01*
X146788223Y-76047846D01*
X146823862Y-76028796D01*
X146862532Y-76017065D01*
X146908888Y-76012500D01*
X147985112Y-76012500D01*
X148031468Y-76017065D01*
X148031468Y-76017065D01*
G37*
G36*
X155431442Y-73654518D02*
G01*
X155497627Y-73661037D01*
X155667466Y-73712557D01*
X155823991Y-73796222D01*
X155859729Y-73825552D01*
X155961186Y-73908814D01*
X156024516Y-73985983D01*
X156073778Y-74046009D01*
X156157443Y-74202534D01*
X156208963Y-74372373D01*
X156226359Y-74549000D01*
X156208963Y-74725627D01*
X156157443Y-74895466D01*
X156073778Y-75051991D01*
X156072386Y-75053687D01*
X155961186Y-75189186D01*
X155874327Y-75260468D01*
X155823991Y-75301778D01*
X155667466Y-75385443D01*
X155497627Y-75436963D01*
X155431443Y-75443481D01*
X155365260Y-75450000D01*
X155276740Y-75450000D01*
X155210557Y-75443481D01*
X155144373Y-75436963D01*
X154974534Y-75385443D01*
X154818009Y-75301778D01*
X154767673Y-75260468D01*
X154680814Y-75189186D01*
X154569614Y-75053687D01*
X154568222Y-75051991D01*
X154484557Y-74895466D01*
X154433037Y-74725627D01*
X154415641Y-74549000D01*
X154433037Y-74372373D01*
X154484557Y-74202534D01*
X154568222Y-74046009D01*
X154617484Y-73985983D01*
X154680814Y-73908814D01*
X154782271Y-73825552D01*
X154818009Y-73796222D01*
X154974534Y-73712557D01*
X155144373Y-73661037D01*
X155210558Y-73654518D01*
X155276740Y-73648000D01*
X155365260Y-73648000D01*
X155431442Y-73654518D01*
X155431442Y-73654518D01*
G37*
G36*
X140041968Y-73929565D02*
G01*
X140080638Y-73941296D01*
X140116277Y-73960346D01*
X140147517Y-73985983D01*
X140173154Y-74017223D01*
X140192204Y-74052862D01*
X140203935Y-74091532D01*
X140208500Y-74137888D01*
X140208500Y-75214112D01*
X140203935Y-75260468D01*
X140192204Y-75299138D01*
X140173154Y-75334777D01*
X140147517Y-75366017D01*
X140116277Y-75391654D01*
X140080638Y-75410704D01*
X140041968Y-75422435D01*
X139995612Y-75427000D01*
X139344388Y-75427000D01*
X139298032Y-75422435D01*
X139259362Y-75410704D01*
X139223723Y-75391654D01*
X139192483Y-75366017D01*
X139166846Y-75334777D01*
X139147796Y-75299138D01*
X139136065Y-75260468D01*
X139131500Y-75214112D01*
X139131500Y-74137888D01*
X139136065Y-74091532D01*
X139147796Y-74052862D01*
X139166846Y-74017223D01*
X139192483Y-73985983D01*
X139223723Y-73960346D01*
X139259362Y-73941296D01*
X139298032Y-73929565D01*
X139344388Y-73925000D01*
X139995612Y-73925000D01*
X140041968Y-73929565D01*
X140041968Y-73929565D01*
G37*
G36*
X138166968Y-73929565D02*
G01*
X138205638Y-73941296D01*
X138241277Y-73960346D01*
X138272517Y-73985983D01*
X138298154Y-74017223D01*
X138317204Y-74052862D01*
X138328935Y-74091532D01*
X138333500Y-74137888D01*
X138333500Y-75214112D01*
X138328935Y-75260468D01*
X138317204Y-75299138D01*
X138298154Y-75334777D01*
X138272517Y-75366017D01*
X138241277Y-75391654D01*
X138205638Y-75410704D01*
X138166968Y-75422435D01*
X138120612Y-75427000D01*
X137469388Y-75427000D01*
X137423032Y-75422435D01*
X137384362Y-75410704D01*
X137348723Y-75391654D01*
X137317483Y-75366017D01*
X137291846Y-75334777D01*
X137272796Y-75299138D01*
X137261065Y-75260468D01*
X137256500Y-75214112D01*
X137256500Y-74137888D01*
X137261065Y-74091532D01*
X137272796Y-74052862D01*
X137291846Y-74017223D01*
X137317483Y-73985983D01*
X137348723Y-73960346D01*
X137384362Y-73941296D01*
X137423032Y-73929565D01*
X137469388Y-73925000D01*
X138120612Y-73925000D01*
X138166968Y-73929565D01*
X138166968Y-73929565D01*
G37*
G36*
X148031468Y-74142065D02*
G01*
X148070138Y-74153796D01*
X148105777Y-74172846D01*
X148137017Y-74198483D01*
X148162654Y-74229723D01*
X148181704Y-74265362D01*
X148193435Y-74304032D01*
X148198000Y-74350388D01*
X148198000Y-75001612D01*
X148193435Y-75047968D01*
X148181704Y-75086638D01*
X148162654Y-75122277D01*
X148137017Y-75153517D01*
X148105777Y-75179154D01*
X148070138Y-75198204D01*
X148031468Y-75209935D01*
X147985112Y-75214500D01*
X146908888Y-75214500D01*
X146862532Y-75209935D01*
X146823862Y-75198204D01*
X146788223Y-75179154D01*
X146756983Y-75153517D01*
X146731346Y-75122277D01*
X146712296Y-75086638D01*
X146700565Y-75047968D01*
X146696000Y-75001612D01*
X146696000Y-74350388D01*
X146700565Y-74304032D01*
X146712296Y-74265362D01*
X146731346Y-74229723D01*
X146756983Y-74198483D01*
X146788223Y-74172846D01*
X146823862Y-74153796D01*
X146862532Y-74142065D01*
X146908888Y-74137500D01*
X147985112Y-74137500D01*
X148031468Y-74142065D01*
X148031468Y-74142065D01*
G37*
G36*
X118506823Y-73376313D02*
G01*
X118667242Y-73424976D01*
X118799906Y-73495886D01*
X118815078Y-73503996D01*
X118944659Y-73610341D01*
X119051004Y-73739922D01*
X119051005Y-73739924D01*
X119130024Y-73887758D01*
X119178687Y-74048177D01*
X119195117Y-74215000D01*
X119178687Y-74381823D01*
X119130024Y-74542242D01*
X119059114Y-74674906D01*
X119051004Y-74690078D01*
X118944659Y-74819659D01*
X118815078Y-74926004D01*
X118815076Y-74926005D01*
X118667242Y-75005024D01*
X118506823Y-75053687D01*
X118381804Y-75066000D01*
X118298196Y-75066000D01*
X118173177Y-75053687D01*
X118012758Y-75005024D01*
X117864924Y-74926005D01*
X117864922Y-74926004D01*
X117735341Y-74819659D01*
X117628996Y-74690078D01*
X117620886Y-74674906D01*
X117549976Y-74542242D01*
X117501313Y-74381823D01*
X117484883Y-74215000D01*
X117501313Y-74048177D01*
X117549976Y-73887758D01*
X117628995Y-73739924D01*
X117628996Y-73739922D01*
X117735341Y-73610341D01*
X117864922Y-73503996D01*
X117880094Y-73495886D01*
X118012758Y-73424976D01*
X118173177Y-73376313D01*
X118298196Y-73364000D01*
X118381804Y-73364000D01*
X118506823Y-73376313D01*
X118506823Y-73376313D01*
G37*
G36*
X126126823Y-73376313D02*
G01*
X126287242Y-73424976D01*
X126419906Y-73495886D01*
X126435078Y-73503996D01*
X126564659Y-73610341D01*
X126671004Y-73739922D01*
X126671005Y-73739924D01*
X126750024Y-73887758D01*
X126798687Y-74048177D01*
X126815117Y-74215000D01*
X126798687Y-74381823D01*
X126750024Y-74542242D01*
X126679114Y-74674906D01*
X126671004Y-74690078D01*
X126564659Y-74819659D01*
X126435078Y-74926004D01*
X126435076Y-74926005D01*
X126287242Y-75005024D01*
X126126823Y-75053687D01*
X126001804Y-75066000D01*
X125918196Y-75066000D01*
X125793177Y-75053687D01*
X125632758Y-75005024D01*
X125484924Y-74926005D01*
X125484922Y-74926004D01*
X125355341Y-74819659D01*
X125248996Y-74690078D01*
X125240886Y-74674906D01*
X125169976Y-74542242D01*
X125121313Y-74381823D01*
X125104883Y-74215000D01*
X125121313Y-74048177D01*
X125169976Y-73887758D01*
X125248995Y-73739924D01*
X125248996Y-73739922D01*
X125355341Y-73610341D01*
X125484922Y-73503996D01*
X125500094Y-73495886D01*
X125632758Y-73424976D01*
X125793177Y-73376313D01*
X125918196Y-73364000D01*
X126001804Y-73364000D01*
X126126823Y-73376313D01*
X126126823Y-73376313D01*
G37*
G36*
X155431443Y-71114519D02*
G01*
X155497627Y-71121037D01*
X155667466Y-71172557D01*
X155823991Y-71256222D01*
X155859729Y-71285552D01*
X155961186Y-71368814D01*
X156044448Y-71470271D01*
X156073778Y-71506009D01*
X156157443Y-71662534D01*
X156208963Y-71832373D01*
X156226359Y-72009000D01*
X156208963Y-72185627D01*
X156157443Y-72355466D01*
X156073778Y-72511991D01*
X156072386Y-72513687D01*
X155961186Y-72649186D01*
X155859729Y-72732448D01*
X155823991Y-72761778D01*
X155667466Y-72845443D01*
X155497627Y-72896963D01*
X155431442Y-72903482D01*
X155365260Y-72910000D01*
X155276740Y-72910000D01*
X155210558Y-72903482D01*
X155144373Y-72896963D01*
X154974534Y-72845443D01*
X154818009Y-72761778D01*
X154782271Y-72732448D01*
X154680814Y-72649186D01*
X154569614Y-72513687D01*
X154568222Y-72511991D01*
X154484557Y-72355466D01*
X154433037Y-72185627D01*
X154415641Y-72009000D01*
X154433037Y-71832373D01*
X154484557Y-71662534D01*
X154568222Y-71506009D01*
X154597552Y-71470271D01*
X154680814Y-71368814D01*
X154782271Y-71285552D01*
X154818009Y-71256222D01*
X154974534Y-71172557D01*
X155144373Y-71121037D01*
X155210557Y-71114519D01*
X155276740Y-71108000D01*
X155365260Y-71108000D01*
X155431443Y-71114519D01*
X155431443Y-71114519D01*
G37*
G36*
X126126823Y-70836313D02*
G01*
X126287242Y-70884976D01*
X126385833Y-70937674D01*
X126435078Y-70963996D01*
X126564659Y-71070341D01*
X126671004Y-71199922D01*
X126671005Y-71199924D01*
X126750024Y-71347758D01*
X126798687Y-71508177D01*
X126815117Y-71675000D01*
X126798687Y-71841823D01*
X126750024Y-72002242D01*
X126679114Y-72134906D01*
X126671004Y-72150078D01*
X126564659Y-72279659D01*
X126435078Y-72386004D01*
X126435076Y-72386005D01*
X126287242Y-72465024D01*
X126126823Y-72513687D01*
X126001804Y-72526000D01*
X125918196Y-72526000D01*
X125793177Y-72513687D01*
X125632758Y-72465024D01*
X125484924Y-72386005D01*
X125484922Y-72386004D01*
X125355341Y-72279659D01*
X125248996Y-72150078D01*
X125240886Y-72134906D01*
X125169976Y-72002242D01*
X125121313Y-71841823D01*
X125104883Y-71675000D01*
X125121313Y-71508177D01*
X125169976Y-71347758D01*
X125248995Y-71199924D01*
X125248996Y-71199922D01*
X125355341Y-71070341D01*
X125484922Y-70963996D01*
X125534167Y-70937674D01*
X125632758Y-70884976D01*
X125793177Y-70836313D01*
X125918196Y-70824000D01*
X126001804Y-70824000D01*
X126126823Y-70836313D01*
X126126823Y-70836313D01*
G37*
G36*
X118506823Y-70836313D02*
G01*
X118667242Y-70884976D01*
X118765833Y-70937674D01*
X118815078Y-70963996D01*
X118944659Y-71070341D01*
X119051004Y-71199922D01*
X119051005Y-71199924D01*
X119130024Y-71347758D01*
X119178687Y-71508177D01*
X119195117Y-71675000D01*
X119178687Y-71841823D01*
X119130024Y-72002242D01*
X119059114Y-72134906D01*
X119051004Y-72150078D01*
X118944659Y-72279659D01*
X118815078Y-72386004D01*
X118815076Y-72386005D01*
X118667242Y-72465024D01*
X118506823Y-72513687D01*
X118381804Y-72526000D01*
X118298196Y-72526000D01*
X118173177Y-72513687D01*
X118012758Y-72465024D01*
X117864924Y-72386005D01*
X117864922Y-72386004D01*
X117735341Y-72279659D01*
X117628996Y-72150078D01*
X117620886Y-72134906D01*
X117549976Y-72002242D01*
X117501313Y-71841823D01*
X117484883Y-71675000D01*
X117501313Y-71508177D01*
X117549976Y-71347758D01*
X117628995Y-71199924D01*
X117628996Y-71199922D01*
X117735341Y-71070341D01*
X117864922Y-70963996D01*
X117914167Y-70937674D01*
X118012758Y-70884976D01*
X118173177Y-70836313D01*
X118298196Y-70824000D01*
X118381804Y-70824000D01*
X118506823Y-70836313D01*
X118506823Y-70836313D01*
G37*
G36*
X148031468Y-70937065D02*
G01*
X148070138Y-70948796D01*
X148105777Y-70967846D01*
X148137017Y-70993483D01*
X148162654Y-71024723D01*
X148181704Y-71060362D01*
X148193435Y-71099032D01*
X148198000Y-71145388D01*
X148198000Y-71796612D01*
X148193435Y-71842968D01*
X148181704Y-71881638D01*
X148162654Y-71917277D01*
X148137017Y-71948517D01*
X148105777Y-71974154D01*
X148070138Y-71993204D01*
X148031468Y-72004935D01*
X147985112Y-72009500D01*
X146908888Y-72009500D01*
X146862532Y-72004935D01*
X146823862Y-71993204D01*
X146788223Y-71974154D01*
X146756983Y-71948517D01*
X146731346Y-71917277D01*
X146712296Y-71881638D01*
X146700565Y-71842968D01*
X146696000Y-71796612D01*
X146696000Y-71145388D01*
X146700565Y-71099032D01*
X146712296Y-71060362D01*
X146731346Y-71024723D01*
X146756983Y-70993483D01*
X146788223Y-70967846D01*
X146823862Y-70948796D01*
X146862532Y-70937065D01*
X146908888Y-70932500D01*
X147985112Y-70932500D01*
X148031468Y-70937065D01*
X148031468Y-70937065D01*
G37*
G36*
X156222000Y-70370000D02*
G01*
X154420000Y-70370000D01*
X154420000Y-68568000D01*
X156222000Y-68568000D01*
X156222000Y-70370000D01*
X156222000Y-70370000D01*
G37*
G36*
X140041968Y-68849565D02*
G01*
X140080638Y-68861296D01*
X140116277Y-68880346D01*
X140147517Y-68905983D01*
X140173154Y-68937223D01*
X140192204Y-68972862D01*
X140203935Y-69011532D01*
X140208500Y-69057888D01*
X140208500Y-70134112D01*
X140203935Y-70180468D01*
X140192204Y-70219138D01*
X140173154Y-70254777D01*
X140147517Y-70286017D01*
X140116277Y-70311654D01*
X140080638Y-70330704D01*
X140041968Y-70342435D01*
X139995612Y-70347000D01*
X139344388Y-70347000D01*
X139298032Y-70342435D01*
X139259362Y-70330704D01*
X139223723Y-70311654D01*
X139192483Y-70286017D01*
X139166846Y-70254777D01*
X139147796Y-70219138D01*
X139136065Y-70180468D01*
X139131500Y-70134112D01*
X139131500Y-69057888D01*
X139136065Y-69011532D01*
X139147796Y-68972862D01*
X139166846Y-68937223D01*
X139192483Y-68905983D01*
X139223723Y-68880346D01*
X139259362Y-68861296D01*
X139298032Y-68849565D01*
X139344388Y-68845000D01*
X139995612Y-68845000D01*
X140041968Y-68849565D01*
X140041968Y-68849565D01*
G37*
G36*
X138166968Y-68849565D02*
G01*
X138205638Y-68861296D01*
X138241277Y-68880346D01*
X138272517Y-68905983D01*
X138298154Y-68937223D01*
X138317204Y-68972862D01*
X138328935Y-69011532D01*
X138333500Y-69057888D01*
X138333500Y-70134112D01*
X138328935Y-70180468D01*
X138317204Y-70219138D01*
X138298154Y-70254777D01*
X138272517Y-70286017D01*
X138241277Y-70311654D01*
X138205638Y-70330704D01*
X138166968Y-70342435D01*
X138120612Y-70347000D01*
X137469388Y-70347000D01*
X137423032Y-70342435D01*
X137384362Y-70330704D01*
X137348723Y-70311654D01*
X137317483Y-70286017D01*
X137291846Y-70254777D01*
X137272796Y-70219138D01*
X137261065Y-70180468D01*
X137256500Y-70134112D01*
X137256500Y-69057888D01*
X137261065Y-69011532D01*
X137272796Y-68972862D01*
X137291846Y-68937223D01*
X137317483Y-68905983D01*
X137348723Y-68880346D01*
X137384362Y-68861296D01*
X137423032Y-68849565D01*
X137469388Y-68845000D01*
X138120612Y-68845000D01*
X138166968Y-68849565D01*
X138166968Y-68849565D01*
G37*
G36*
X148031468Y-69062065D02*
G01*
X148070138Y-69073796D01*
X148105777Y-69092846D01*
X148137017Y-69118483D01*
X148162654Y-69149723D01*
X148181704Y-69185362D01*
X148193435Y-69224032D01*
X148198000Y-69270388D01*
X148198000Y-69921612D01*
X148193435Y-69967968D01*
X148181704Y-70006638D01*
X148162654Y-70042277D01*
X148137017Y-70073517D01*
X148105777Y-70099154D01*
X148070138Y-70118204D01*
X148031468Y-70129935D01*
X147985112Y-70134500D01*
X146908888Y-70134500D01*
X146862532Y-70129935D01*
X146823862Y-70118204D01*
X146788223Y-70099154D01*
X146756983Y-70073517D01*
X146731346Y-70042277D01*
X146712296Y-70006638D01*
X146700565Y-69967968D01*
X146696000Y-69921612D01*
X146696000Y-69270388D01*
X146700565Y-69224032D01*
X146712296Y-69185362D01*
X146731346Y-69149723D01*
X146756983Y-69118483D01*
X146788223Y-69092846D01*
X146823862Y-69073796D01*
X146862532Y-69062065D01*
X146908888Y-69057500D01*
X147985112Y-69057500D01*
X148031468Y-69062065D01*
X148031468Y-69062065D01*
G37*
G36*
X126126823Y-68296313D02*
G01*
X126287242Y-68344976D01*
X126378544Y-68393778D01*
X126435078Y-68423996D01*
X126564659Y-68530341D01*
X126671004Y-68659922D01*
X126671005Y-68659924D01*
X126750024Y-68807758D01*
X126798687Y-68968177D01*
X126815117Y-69135000D01*
X126798687Y-69301823D01*
X126750024Y-69462242D01*
X126679114Y-69594906D01*
X126671004Y-69610078D01*
X126564659Y-69739659D01*
X126435078Y-69846004D01*
X126435076Y-69846005D01*
X126287242Y-69925024D01*
X126126823Y-69973687D01*
X126001804Y-69986000D01*
X125918196Y-69986000D01*
X125793177Y-69973687D01*
X125632758Y-69925024D01*
X125484924Y-69846005D01*
X125484922Y-69846004D01*
X125355341Y-69739659D01*
X125248996Y-69610078D01*
X125240886Y-69594906D01*
X125169976Y-69462242D01*
X125121313Y-69301823D01*
X125104883Y-69135000D01*
X125121313Y-68968177D01*
X125169976Y-68807758D01*
X125248995Y-68659924D01*
X125248996Y-68659922D01*
X125355341Y-68530341D01*
X125484922Y-68423996D01*
X125541456Y-68393778D01*
X125632758Y-68344976D01*
X125793177Y-68296313D01*
X125918196Y-68284000D01*
X126001804Y-68284000D01*
X126126823Y-68296313D01*
X126126823Y-68296313D01*
G37*
G36*
X118506823Y-68296313D02*
G01*
X118667242Y-68344976D01*
X118758544Y-68393778D01*
X118815078Y-68423996D01*
X118944659Y-68530341D01*
X119051004Y-68659922D01*
X119051005Y-68659924D01*
X119130024Y-68807758D01*
X119178687Y-68968177D01*
X119195117Y-69135000D01*
X119178687Y-69301823D01*
X119130024Y-69462242D01*
X119059114Y-69594906D01*
X119051004Y-69610078D01*
X118944659Y-69739659D01*
X118815078Y-69846004D01*
X118815076Y-69846005D01*
X118667242Y-69925024D01*
X118506823Y-69973687D01*
X118381804Y-69986000D01*
X118298196Y-69986000D01*
X118173177Y-69973687D01*
X118012758Y-69925024D01*
X117864924Y-69846005D01*
X117864922Y-69846004D01*
X117735341Y-69739659D01*
X117628996Y-69610078D01*
X117620886Y-69594906D01*
X117549976Y-69462242D01*
X117501313Y-69301823D01*
X117484883Y-69135000D01*
X117501313Y-68968177D01*
X117549976Y-68807758D01*
X117628995Y-68659924D01*
X117628996Y-68659922D01*
X117735341Y-68530341D01*
X117864922Y-68423996D01*
X117921456Y-68393778D01*
X118012758Y-68344976D01*
X118173177Y-68296313D01*
X118298196Y-68284000D01*
X118381804Y-68284000D01*
X118506823Y-68296313D01*
X118506823Y-68296313D01*
G37*
G36*
X112344468Y-67538065D02*
G01*
X112383138Y-67549796D01*
X112418777Y-67568846D01*
X112450017Y-67594483D01*
X112475654Y-67625723D01*
X112494704Y-67661362D01*
X112506435Y-67700032D01*
X112511000Y-67746388D01*
X112511000Y-68397612D01*
X112506435Y-68443968D01*
X112494704Y-68482638D01*
X112475654Y-68518277D01*
X112450017Y-68549517D01*
X112418777Y-68575154D01*
X112383138Y-68594204D01*
X112344468Y-68605935D01*
X112298112Y-68610500D01*
X111221888Y-68610500D01*
X111175532Y-68605935D01*
X111136862Y-68594204D01*
X111101223Y-68575154D01*
X111069983Y-68549517D01*
X111044346Y-68518277D01*
X111025296Y-68482638D01*
X111013565Y-68443968D01*
X111009000Y-68397612D01*
X111009000Y-67746388D01*
X111013565Y-67700032D01*
X111025296Y-67661362D01*
X111044346Y-67625723D01*
X111069983Y-67594483D01*
X111101223Y-67568846D01*
X111136862Y-67549796D01*
X111175532Y-67538065D01*
X111221888Y-67533500D01*
X112298112Y-67533500D01*
X112344468Y-67538065D01*
X112344468Y-67538065D01*
G37*
G36*
X126126823Y-65756313D02*
G01*
X126287242Y-65804976D01*
X126411490Y-65871388D01*
X126435078Y-65883996D01*
X126564659Y-65990341D01*
X126671004Y-66119922D01*
X126671005Y-66119924D01*
X126750024Y-66267758D01*
X126798687Y-66428177D01*
X126815117Y-66595000D01*
X126798687Y-66761823D01*
X126750024Y-66922242D01*
X126679114Y-67054906D01*
X126671004Y-67070078D01*
X126564659Y-67199659D01*
X126435078Y-67306004D01*
X126435076Y-67306005D01*
X126287242Y-67385024D01*
X126126823Y-67433687D01*
X126001804Y-67446000D01*
X125918196Y-67446000D01*
X125793177Y-67433687D01*
X125632758Y-67385024D01*
X125484924Y-67306005D01*
X125484922Y-67306004D01*
X125355341Y-67199659D01*
X125248996Y-67070078D01*
X125240886Y-67054906D01*
X125169976Y-66922242D01*
X125121313Y-66761823D01*
X125104883Y-66595000D01*
X125121313Y-66428177D01*
X125169976Y-66267758D01*
X125248995Y-66119924D01*
X125248996Y-66119922D01*
X125355341Y-65990341D01*
X125484922Y-65883996D01*
X125508510Y-65871388D01*
X125632758Y-65804976D01*
X125793177Y-65756313D01*
X125918196Y-65744000D01*
X126001804Y-65744000D01*
X126126823Y-65756313D01*
X126126823Y-65756313D01*
G37*
G36*
X118506823Y-65756313D02*
G01*
X118667242Y-65804976D01*
X118791490Y-65871388D01*
X118815078Y-65883996D01*
X118944659Y-65990341D01*
X119051004Y-66119922D01*
X119051005Y-66119924D01*
X119130024Y-66267758D01*
X119178687Y-66428177D01*
X119195117Y-66595000D01*
X119178687Y-66761823D01*
X119130024Y-66922242D01*
X119059114Y-67054906D01*
X119051004Y-67070078D01*
X118944659Y-67199659D01*
X118815078Y-67306004D01*
X118815076Y-67306005D01*
X118667242Y-67385024D01*
X118506823Y-67433687D01*
X118381804Y-67446000D01*
X118298196Y-67446000D01*
X118173177Y-67433687D01*
X118012758Y-67385024D01*
X117864924Y-67306005D01*
X117864922Y-67306004D01*
X117735341Y-67199659D01*
X117628996Y-67070078D01*
X117620886Y-67054906D01*
X117549976Y-66922242D01*
X117501313Y-66761823D01*
X117484883Y-66595000D01*
X117501313Y-66428177D01*
X117549976Y-66267758D01*
X117628995Y-66119924D01*
X117628996Y-66119922D01*
X117735341Y-65990341D01*
X117864922Y-65883996D01*
X117888510Y-65871388D01*
X118012758Y-65804976D01*
X118173177Y-65756313D01*
X118298196Y-65744000D01*
X118381804Y-65744000D01*
X118506823Y-65756313D01*
X118506823Y-65756313D01*
G37*
G36*
X112344468Y-65663065D02*
G01*
X112383138Y-65674796D01*
X112418777Y-65693846D01*
X112450017Y-65719483D01*
X112475654Y-65750723D01*
X112494704Y-65786362D01*
X112506435Y-65825032D01*
X112511000Y-65871388D01*
X112511000Y-66522612D01*
X112506435Y-66568968D01*
X112494704Y-66607638D01*
X112475654Y-66643277D01*
X112450017Y-66674517D01*
X112418777Y-66700154D01*
X112383138Y-66719204D01*
X112344468Y-66730935D01*
X112298112Y-66735500D01*
X111221888Y-66735500D01*
X111175532Y-66730935D01*
X111136862Y-66719204D01*
X111101223Y-66700154D01*
X111069983Y-66674517D01*
X111044346Y-66643277D01*
X111025296Y-66607638D01*
X111013565Y-66568968D01*
X111009000Y-66522612D01*
X111009000Y-65871388D01*
X111013565Y-65825032D01*
X111025296Y-65786362D01*
X111044346Y-65750723D01*
X111069983Y-65719483D01*
X111101223Y-65693846D01*
X111136862Y-65674796D01*
X111175532Y-65663065D01*
X111221888Y-65658500D01*
X112298112Y-65658500D01*
X112344468Y-65663065D01*
X112344468Y-65663065D01*
G37*
G36*
X119191000Y-64906000D02*
G01*
X117489000Y-64906000D01*
X117489000Y-63204000D01*
X119191000Y-63204000D01*
X119191000Y-64906000D01*
X119191000Y-64906000D01*
G37*
G36*
X126126823Y-63216313D02*
G01*
X126287242Y-63264976D01*
X126419906Y-63335886D01*
X126435078Y-63343996D01*
X126564659Y-63450341D01*
X126671004Y-63579922D01*
X126671005Y-63579924D01*
X126750024Y-63727758D01*
X126798687Y-63888177D01*
X126815117Y-64055000D01*
X126798687Y-64221823D01*
X126750024Y-64382242D01*
X126679114Y-64514906D01*
X126671004Y-64530078D01*
X126564659Y-64659659D01*
X126435078Y-64766004D01*
X126435076Y-64766005D01*
X126287242Y-64845024D01*
X126126823Y-64893687D01*
X126001804Y-64906000D01*
X125918196Y-64906000D01*
X125793177Y-64893687D01*
X125632758Y-64845024D01*
X125484924Y-64766005D01*
X125484922Y-64766004D01*
X125355341Y-64659659D01*
X125248996Y-64530078D01*
X125240886Y-64514906D01*
X125169976Y-64382242D01*
X125121313Y-64221823D01*
X125104883Y-64055000D01*
X125121313Y-63888177D01*
X125169976Y-63727758D01*
X125248995Y-63579924D01*
X125248996Y-63579922D01*
X125355341Y-63450341D01*
X125484922Y-63343996D01*
X125500094Y-63335886D01*
X125632758Y-63264976D01*
X125793177Y-63216313D01*
X125918196Y-63204000D01*
X126001804Y-63204000D01*
X126126823Y-63216313D01*
X126126823Y-63216313D01*
G37*
G36*
X156476000Y-63639000D02*
G01*
X154674000Y-63639000D01*
X154674000Y-61837000D01*
X156476000Y-61837000D01*
X156476000Y-63639000D01*
X156476000Y-63639000D01*
G37*
G36*
X112344468Y-62301065D02*
G01*
X112383138Y-62312796D01*
X112418777Y-62331846D01*
X112450017Y-62357483D01*
X112475654Y-62388723D01*
X112494704Y-62424362D01*
X112506435Y-62463032D01*
X112511000Y-62509388D01*
X112511000Y-63160612D01*
X112506435Y-63206968D01*
X112494704Y-63245638D01*
X112475654Y-63281277D01*
X112450017Y-63312517D01*
X112418777Y-63338154D01*
X112383138Y-63357204D01*
X112344468Y-63368935D01*
X112298112Y-63373500D01*
X111221888Y-63373500D01*
X111175532Y-63368935D01*
X111136862Y-63357204D01*
X111101223Y-63338154D01*
X111069983Y-63312517D01*
X111044346Y-63281277D01*
X111025296Y-63245638D01*
X111013565Y-63206968D01*
X111009000Y-63160612D01*
X111009000Y-62509388D01*
X111013565Y-62463032D01*
X111025296Y-62424362D01*
X111044346Y-62388723D01*
X111069983Y-62357483D01*
X111101223Y-62331846D01*
X111136862Y-62312796D01*
X111175532Y-62301065D01*
X111221888Y-62296500D01*
X112298112Y-62296500D01*
X112344468Y-62301065D01*
X112344468Y-62301065D01*
G37*
G36*
X112344468Y-60426065D02*
G01*
X112383138Y-60437796D01*
X112418777Y-60456846D01*
X112450017Y-60482483D01*
X112475654Y-60513723D01*
X112494704Y-60549362D01*
X112506435Y-60588032D01*
X112511000Y-60634388D01*
X112511000Y-61285612D01*
X112506435Y-61331968D01*
X112494704Y-61370638D01*
X112475654Y-61406277D01*
X112450017Y-61437517D01*
X112418777Y-61463154D01*
X112383138Y-61482204D01*
X112344468Y-61493935D01*
X112298112Y-61498500D01*
X111221888Y-61498500D01*
X111175532Y-61493935D01*
X111136862Y-61482204D01*
X111101223Y-61463154D01*
X111069983Y-61437517D01*
X111044346Y-61406277D01*
X111025296Y-61370638D01*
X111013565Y-61331968D01*
X111009000Y-61285612D01*
X111009000Y-60634388D01*
X111013565Y-60588032D01*
X111025296Y-60549362D01*
X111044346Y-60513723D01*
X111069983Y-60482483D01*
X111101223Y-60456846D01*
X111136862Y-60437796D01*
X111175532Y-60426065D01*
X111221888Y-60421500D01*
X112298112Y-60421500D01*
X112344468Y-60426065D01*
X112344468Y-60426065D01*
G37*
G36*
X155685442Y-59303518D02*
G01*
X155751627Y-59310037D01*
X155921466Y-59361557D01*
X156077991Y-59445222D01*
X156113729Y-59474552D01*
X156215186Y-59557814D01*
X156298448Y-59659271D01*
X156327778Y-59695009D01*
X156411443Y-59851534D01*
X156462963Y-60021373D01*
X156480359Y-60198000D01*
X156462963Y-60374627D01*
X156411443Y-60544466D01*
X156327778Y-60700991D01*
X156298448Y-60736729D01*
X156215186Y-60838186D01*
X156113729Y-60921448D01*
X156077991Y-60950778D01*
X155921466Y-61034443D01*
X155751627Y-61085963D01*
X155685442Y-61092482D01*
X155619260Y-61099000D01*
X155530740Y-61099000D01*
X155464558Y-61092482D01*
X155398373Y-61085963D01*
X155228534Y-61034443D01*
X155072009Y-60950778D01*
X155036271Y-60921448D01*
X154934814Y-60838186D01*
X154851552Y-60736729D01*
X154822222Y-60700991D01*
X154738557Y-60544466D01*
X154687037Y-60374627D01*
X154669641Y-60198000D01*
X154687037Y-60021373D01*
X154738557Y-59851534D01*
X154822222Y-59695009D01*
X154851552Y-59659271D01*
X154934814Y-59557814D01*
X155036271Y-59474552D01*
X155072009Y-59445222D01*
X155228534Y-59361557D01*
X155398373Y-59310037D01*
X155464558Y-59303518D01*
X155530740Y-59297000D01*
X155619260Y-59297000D01*
X155685442Y-59303518D01*
X155685442Y-59303518D01*
G37*
G36*
X137270442Y-59303518D02*
G01*
X137336627Y-59310037D01*
X137506466Y-59361557D01*
X137662991Y-59445222D01*
X137698729Y-59474552D01*
X137800186Y-59557814D01*
X137883448Y-59659271D01*
X137912778Y-59695009D01*
X137996443Y-59851534D01*
X138047963Y-60021373D01*
X138065359Y-60198000D01*
X138047963Y-60374627D01*
X137996443Y-60544466D01*
X137912778Y-60700991D01*
X137883448Y-60736729D01*
X137800186Y-60838186D01*
X137698729Y-60921448D01*
X137662991Y-60950778D01*
X137506466Y-61034443D01*
X137336627Y-61085963D01*
X137270442Y-61092482D01*
X137204260Y-61099000D01*
X137115740Y-61099000D01*
X137049558Y-61092482D01*
X136983373Y-61085963D01*
X136813534Y-61034443D01*
X136657009Y-60950778D01*
X136621271Y-60921448D01*
X136519814Y-60838186D01*
X136436552Y-60736729D01*
X136407222Y-60700991D01*
X136323557Y-60544466D01*
X136272037Y-60374627D01*
X136254641Y-60198000D01*
X136272037Y-60021373D01*
X136323557Y-59851534D01*
X136407222Y-59695009D01*
X136436552Y-59659271D01*
X136519814Y-59557814D01*
X136621271Y-59474552D01*
X136657009Y-59445222D01*
X136813534Y-59361557D01*
X136983373Y-59310037D01*
X137049558Y-59303518D01*
X137115740Y-59297000D01*
X137204260Y-59297000D01*
X137270442Y-59303518D01*
X137270442Y-59303518D01*
G37*
G36*
X134730442Y-59303518D02*
G01*
X134796627Y-59310037D01*
X134966466Y-59361557D01*
X135122991Y-59445222D01*
X135158729Y-59474552D01*
X135260186Y-59557814D01*
X135343448Y-59659271D01*
X135372778Y-59695009D01*
X135456443Y-59851534D01*
X135507963Y-60021373D01*
X135525359Y-60198000D01*
X135507963Y-60374627D01*
X135456443Y-60544466D01*
X135372778Y-60700991D01*
X135343448Y-60736729D01*
X135260186Y-60838186D01*
X135158729Y-60921448D01*
X135122991Y-60950778D01*
X134966466Y-61034443D01*
X134796627Y-61085963D01*
X134730442Y-61092482D01*
X134664260Y-61099000D01*
X134575740Y-61099000D01*
X134509558Y-61092482D01*
X134443373Y-61085963D01*
X134273534Y-61034443D01*
X134117009Y-60950778D01*
X134081271Y-60921448D01*
X133979814Y-60838186D01*
X133896552Y-60736729D01*
X133867222Y-60700991D01*
X133783557Y-60544466D01*
X133732037Y-60374627D01*
X133714641Y-60198000D01*
X133732037Y-60021373D01*
X133783557Y-59851534D01*
X133867222Y-59695009D01*
X133896552Y-59659271D01*
X133979814Y-59557814D01*
X134081271Y-59474552D01*
X134117009Y-59445222D01*
X134273534Y-59361557D01*
X134443373Y-59310037D01*
X134509558Y-59303518D01*
X134575740Y-59297000D01*
X134664260Y-59297000D01*
X134730442Y-59303518D01*
X134730442Y-59303518D01*
G37*
G36*
X101346943Y-52946248D02*
G01*
X101902189Y-53176238D01*
X101902190Y-53176239D01*
X102401899Y-53510134D01*
X102826866Y-53935101D01*
X102826867Y-53935103D01*
X103160762Y-54434811D01*
X103390752Y-54990057D01*
X103508000Y-55579501D01*
X103508000Y-56180499D01*
X103390752Y-56769943D01*
X103160762Y-57325189D01*
X102994948Y-57573347D01*
X102826866Y-57824899D01*
X102401899Y-58249866D01*
X102329583Y-58298186D01*
X101902189Y-58583762D01*
X101346943Y-58813752D01*
X100757499Y-58931000D01*
X100156501Y-58931000D01*
X99567057Y-58813752D01*
X99011811Y-58583762D01*
X98584417Y-58298186D01*
X98512101Y-58249866D01*
X98087134Y-57824899D01*
X97919052Y-57573347D01*
X97753238Y-57325189D01*
X97523248Y-56769943D01*
X97406000Y-56180499D01*
X97406000Y-55579501D01*
X97523248Y-54990057D01*
X97753238Y-54434811D01*
X98087133Y-53935103D01*
X98087134Y-53935101D01*
X98512101Y-53510134D01*
X99011810Y-53176239D01*
X99011811Y-53176238D01*
X99567057Y-52946248D01*
X100156501Y-52829000D01*
X100757499Y-52829000D01*
X101346943Y-52946248D01*
X101346943Y-52946248D01*
G37*
G36*
X137270443Y-56763519D02*
G01*
X137336627Y-56770037D01*
X137506466Y-56821557D01*
X137662991Y-56905222D01*
X137698729Y-56934552D01*
X137800186Y-57017814D01*
X137883448Y-57119271D01*
X137912778Y-57155009D01*
X137996443Y-57311534D01*
X138047963Y-57481373D01*
X138065359Y-57658000D01*
X138047963Y-57834627D01*
X137996443Y-58004466D01*
X137912778Y-58160991D01*
X137883448Y-58196729D01*
X137800186Y-58298186D01*
X137698729Y-58381448D01*
X137662991Y-58410778D01*
X137506466Y-58494443D01*
X137336627Y-58545963D01*
X137270443Y-58552481D01*
X137204260Y-58559000D01*
X137115740Y-58559000D01*
X137049557Y-58552481D01*
X136983373Y-58545963D01*
X136813534Y-58494443D01*
X136657009Y-58410778D01*
X136621271Y-58381448D01*
X136519814Y-58298186D01*
X136436552Y-58196729D01*
X136407222Y-58160991D01*
X136323557Y-58004466D01*
X136272037Y-57834627D01*
X136254641Y-57658000D01*
X136272037Y-57481373D01*
X136323557Y-57311534D01*
X136407222Y-57155009D01*
X136436552Y-57119271D01*
X136519814Y-57017814D01*
X136621271Y-56934552D01*
X136657009Y-56905222D01*
X136813534Y-56821557D01*
X136983373Y-56770037D01*
X137049557Y-56763519D01*
X137115740Y-56757000D01*
X137204260Y-56757000D01*
X137270443Y-56763519D01*
X137270443Y-56763519D01*
G37*
G36*
X134730443Y-56763519D02*
G01*
X134796627Y-56770037D01*
X134966466Y-56821557D01*
X135122991Y-56905222D01*
X135158729Y-56934552D01*
X135260186Y-57017814D01*
X135343448Y-57119271D01*
X135372778Y-57155009D01*
X135456443Y-57311534D01*
X135507963Y-57481373D01*
X135525359Y-57658000D01*
X135507963Y-57834627D01*
X135456443Y-58004466D01*
X135372778Y-58160991D01*
X135343448Y-58196729D01*
X135260186Y-58298186D01*
X135158729Y-58381448D01*
X135122991Y-58410778D01*
X134966466Y-58494443D01*
X134796627Y-58545963D01*
X134730443Y-58552481D01*
X134664260Y-58559000D01*
X134575740Y-58559000D01*
X134509557Y-58552481D01*
X134443373Y-58545963D01*
X134273534Y-58494443D01*
X134117009Y-58410778D01*
X134081271Y-58381448D01*
X133979814Y-58298186D01*
X133896552Y-58196729D01*
X133867222Y-58160991D01*
X133783557Y-58004466D01*
X133732037Y-57834627D01*
X133714641Y-57658000D01*
X133732037Y-57481373D01*
X133783557Y-57311534D01*
X133867222Y-57155009D01*
X133896552Y-57119271D01*
X133979814Y-57017814D01*
X134081271Y-56934552D01*
X134117009Y-56905222D01*
X134273534Y-56821557D01*
X134443373Y-56770037D01*
X134509557Y-56763519D01*
X134575740Y-56757000D01*
X134664260Y-56757000D01*
X134730443Y-56763519D01*
X134730443Y-56763519D01*
G37*
G36*
X155685443Y-56763519D02*
G01*
X155751627Y-56770037D01*
X155921466Y-56821557D01*
X156077991Y-56905222D01*
X156113729Y-56934552D01*
X156215186Y-57017814D01*
X156298448Y-57119271D01*
X156327778Y-57155009D01*
X156411443Y-57311534D01*
X156462963Y-57481373D01*
X156480359Y-57658000D01*
X156462963Y-57834627D01*
X156411443Y-58004466D01*
X156327778Y-58160991D01*
X156298448Y-58196729D01*
X156215186Y-58298186D01*
X156113729Y-58381448D01*
X156077991Y-58410778D01*
X155921466Y-58494443D01*
X155751627Y-58545963D01*
X155685443Y-58552481D01*
X155619260Y-58559000D01*
X155530740Y-58559000D01*
X155464557Y-58552481D01*
X155398373Y-58545963D01*
X155228534Y-58494443D01*
X155072009Y-58410778D01*
X155036271Y-58381448D01*
X154934814Y-58298186D01*
X154851552Y-58196729D01*
X154822222Y-58160991D01*
X154738557Y-58004466D01*
X154687037Y-57834627D01*
X154669641Y-57658000D01*
X154687037Y-57481373D01*
X154738557Y-57311534D01*
X154822222Y-57155009D01*
X154851552Y-57119271D01*
X154934814Y-57017814D01*
X155036271Y-56934552D01*
X155072009Y-56905222D01*
X155228534Y-56821557D01*
X155398373Y-56770037D01*
X155464557Y-56763519D01*
X155530740Y-56757000D01*
X155619260Y-56757000D01*
X155685443Y-56763519D01*
X155685443Y-56763519D01*
G37*
G36*
X155685442Y-54223518D02*
G01*
X155751627Y-54230037D01*
X155921466Y-54281557D01*
X156077991Y-54365222D01*
X156113729Y-54394552D01*
X156215186Y-54477814D01*
X156298448Y-54579271D01*
X156327778Y-54615009D01*
X156411443Y-54771534D01*
X156462963Y-54941373D01*
X156480359Y-55118000D01*
X156462963Y-55294627D01*
X156411443Y-55464466D01*
X156327778Y-55620991D01*
X156298448Y-55656729D01*
X156215186Y-55758186D01*
X156113729Y-55841448D01*
X156077991Y-55870778D01*
X155921466Y-55954443D01*
X155751627Y-56005963D01*
X155685443Y-56012481D01*
X155619260Y-56019000D01*
X155530740Y-56019000D01*
X155464557Y-56012481D01*
X155398373Y-56005963D01*
X155228534Y-55954443D01*
X155072009Y-55870778D01*
X155036271Y-55841448D01*
X154934814Y-55758186D01*
X154851552Y-55656729D01*
X154822222Y-55620991D01*
X154738557Y-55464466D01*
X154687037Y-55294627D01*
X154669641Y-55118000D01*
X154687037Y-54941373D01*
X154738557Y-54771534D01*
X154822222Y-54615009D01*
X154851552Y-54579271D01*
X154934814Y-54477814D01*
X155036271Y-54394552D01*
X155072009Y-54365222D01*
X155228534Y-54281557D01*
X155398373Y-54230037D01*
X155464558Y-54223518D01*
X155530740Y-54217000D01*
X155619260Y-54217000D01*
X155685442Y-54223518D01*
X155685442Y-54223518D01*
G37*
G36*
X137270442Y-54223518D02*
G01*
X137336627Y-54230037D01*
X137506466Y-54281557D01*
X137662991Y-54365222D01*
X137698729Y-54394552D01*
X137800186Y-54477814D01*
X137883448Y-54579271D01*
X137912778Y-54615009D01*
X137996443Y-54771534D01*
X138047963Y-54941373D01*
X138065359Y-55118000D01*
X138047963Y-55294627D01*
X137996443Y-55464466D01*
X137912778Y-55620991D01*
X137883448Y-55656729D01*
X137800186Y-55758186D01*
X137698729Y-55841448D01*
X137662991Y-55870778D01*
X137506466Y-55954443D01*
X137336627Y-56005963D01*
X137270443Y-56012481D01*
X137204260Y-56019000D01*
X137115740Y-56019000D01*
X137049557Y-56012481D01*
X136983373Y-56005963D01*
X136813534Y-55954443D01*
X136657009Y-55870778D01*
X136621271Y-55841448D01*
X136519814Y-55758186D01*
X136436552Y-55656729D01*
X136407222Y-55620991D01*
X136323557Y-55464466D01*
X136272037Y-55294627D01*
X136254641Y-55118000D01*
X136272037Y-54941373D01*
X136323557Y-54771534D01*
X136407222Y-54615009D01*
X136436552Y-54579271D01*
X136519814Y-54477814D01*
X136621271Y-54394552D01*
X136657009Y-54365222D01*
X136813534Y-54281557D01*
X136983373Y-54230037D01*
X137049558Y-54223518D01*
X137115740Y-54217000D01*
X137204260Y-54217000D01*
X137270442Y-54223518D01*
X137270442Y-54223518D01*
G37*
G36*
X135521000Y-56019000D02*
G01*
X133719000Y-56019000D01*
X133719000Y-54217000D01*
X135521000Y-54217000D01*
X135521000Y-56019000D01*
X135521000Y-56019000D01*
G37*
M02*
