G04 #@! TF.GenerationSoftware,KiCad,Pcbnew,(5.1.2)-1*
G04 #@! TF.CreationDate,2019-09-17T06:22:34+02:00*
G04 #@! TF.ProjectId,PiezoBedSensor,5069657a-6f42-4656-9453-656e736f722e,rev?*
G04 #@! TF.SameCoordinates,Original*
G04 #@! TF.FileFunction,Copper,L1,Top*
G04 #@! TF.FilePolarity,Positive*
%FSLAX46Y46*%
G04 Gerber Fmt 4.6, Leading zero omitted, Abs format (unit mm)*
G04 Created by KiCad (PCBNEW (5.1.2)-1) date 2019-09-17 06:22:34*
%MOMM*%
%LPD*%
G04 APERTURE LIST*
%ADD10C,6.000000*%
%ADD11C,0.100000*%
%ADD12C,0.975000*%
%ADD13O,1.700000X1.700000*%
%ADD14R,1.700000X1.700000*%
%ADD15R,0.650000X1.060000*%
%ADD16O,1.600000X1.600000*%
%ADD17R,1.600000X1.600000*%
%ADD18C,0.800000*%
%ADD19C,0.250000*%
G04 APERTURE END LIST*
D10*
X100457000Y-55880000D03*
X155702000Y-105791000D03*
D11*
G36*
X112240142Y-60473674D02*
G01*
X112263803Y-60477184D01*
X112287007Y-60482996D01*
X112309529Y-60491054D01*
X112331153Y-60501282D01*
X112351670Y-60513579D01*
X112370883Y-60527829D01*
X112388607Y-60543893D01*
X112404671Y-60561617D01*
X112418921Y-60580830D01*
X112431218Y-60601347D01*
X112441446Y-60622971D01*
X112449504Y-60645493D01*
X112455316Y-60668697D01*
X112458826Y-60692358D01*
X112460000Y-60716250D01*
X112460000Y-61203750D01*
X112458826Y-61227642D01*
X112455316Y-61251303D01*
X112449504Y-61274507D01*
X112441446Y-61297029D01*
X112431218Y-61318653D01*
X112418921Y-61339170D01*
X112404671Y-61358383D01*
X112388607Y-61376107D01*
X112370883Y-61392171D01*
X112351670Y-61406421D01*
X112331153Y-61418718D01*
X112309529Y-61428946D01*
X112287007Y-61437004D01*
X112263803Y-61442816D01*
X112240142Y-61446326D01*
X112216250Y-61447500D01*
X111303750Y-61447500D01*
X111279858Y-61446326D01*
X111256197Y-61442816D01*
X111232993Y-61437004D01*
X111210471Y-61428946D01*
X111188847Y-61418718D01*
X111168330Y-61406421D01*
X111149117Y-61392171D01*
X111131393Y-61376107D01*
X111115329Y-61358383D01*
X111101079Y-61339170D01*
X111088782Y-61318653D01*
X111078554Y-61297029D01*
X111070496Y-61274507D01*
X111064684Y-61251303D01*
X111061174Y-61227642D01*
X111060000Y-61203750D01*
X111060000Y-60716250D01*
X111061174Y-60692358D01*
X111064684Y-60668697D01*
X111070496Y-60645493D01*
X111078554Y-60622971D01*
X111088782Y-60601347D01*
X111101079Y-60580830D01*
X111115329Y-60561617D01*
X111131393Y-60543893D01*
X111149117Y-60527829D01*
X111168330Y-60513579D01*
X111188847Y-60501282D01*
X111210471Y-60491054D01*
X111232993Y-60482996D01*
X111256197Y-60477184D01*
X111279858Y-60473674D01*
X111303750Y-60472500D01*
X112216250Y-60472500D01*
X112240142Y-60473674D01*
X112240142Y-60473674D01*
G37*
D12*
X111760000Y-60960000D03*
D11*
G36*
X112240142Y-62348674D02*
G01*
X112263803Y-62352184D01*
X112287007Y-62357996D01*
X112309529Y-62366054D01*
X112331153Y-62376282D01*
X112351670Y-62388579D01*
X112370883Y-62402829D01*
X112388607Y-62418893D01*
X112404671Y-62436617D01*
X112418921Y-62455830D01*
X112431218Y-62476347D01*
X112441446Y-62497971D01*
X112449504Y-62520493D01*
X112455316Y-62543697D01*
X112458826Y-62567358D01*
X112460000Y-62591250D01*
X112460000Y-63078750D01*
X112458826Y-63102642D01*
X112455316Y-63126303D01*
X112449504Y-63149507D01*
X112441446Y-63172029D01*
X112431218Y-63193653D01*
X112418921Y-63214170D01*
X112404671Y-63233383D01*
X112388607Y-63251107D01*
X112370883Y-63267171D01*
X112351670Y-63281421D01*
X112331153Y-63293718D01*
X112309529Y-63303946D01*
X112287007Y-63312004D01*
X112263803Y-63317816D01*
X112240142Y-63321326D01*
X112216250Y-63322500D01*
X111303750Y-63322500D01*
X111279858Y-63321326D01*
X111256197Y-63317816D01*
X111232993Y-63312004D01*
X111210471Y-63303946D01*
X111188847Y-63293718D01*
X111168330Y-63281421D01*
X111149117Y-63267171D01*
X111131393Y-63251107D01*
X111115329Y-63233383D01*
X111101079Y-63214170D01*
X111088782Y-63193653D01*
X111078554Y-63172029D01*
X111070496Y-63149507D01*
X111064684Y-63126303D01*
X111061174Y-63102642D01*
X111060000Y-63078750D01*
X111060000Y-62591250D01*
X111061174Y-62567358D01*
X111064684Y-62543697D01*
X111070496Y-62520493D01*
X111078554Y-62497971D01*
X111088782Y-62476347D01*
X111101079Y-62455830D01*
X111115329Y-62436617D01*
X111131393Y-62418893D01*
X111149117Y-62402829D01*
X111168330Y-62388579D01*
X111188847Y-62376282D01*
X111210471Y-62366054D01*
X111232993Y-62357996D01*
X111256197Y-62352184D01*
X111279858Y-62348674D01*
X111303750Y-62347500D01*
X112216250Y-62347500D01*
X112240142Y-62348674D01*
X112240142Y-62348674D01*
G37*
D12*
X111760000Y-62835000D03*
D11*
G36*
X131671142Y-79269674D02*
G01*
X131694803Y-79273184D01*
X131718007Y-79278996D01*
X131740529Y-79287054D01*
X131762153Y-79297282D01*
X131782670Y-79309579D01*
X131801883Y-79323829D01*
X131819607Y-79339893D01*
X131835671Y-79357617D01*
X131849921Y-79376830D01*
X131862218Y-79397347D01*
X131872446Y-79418971D01*
X131880504Y-79441493D01*
X131886316Y-79464697D01*
X131889826Y-79488358D01*
X131891000Y-79512250D01*
X131891000Y-79999750D01*
X131889826Y-80023642D01*
X131886316Y-80047303D01*
X131880504Y-80070507D01*
X131872446Y-80093029D01*
X131862218Y-80114653D01*
X131849921Y-80135170D01*
X131835671Y-80154383D01*
X131819607Y-80172107D01*
X131801883Y-80188171D01*
X131782670Y-80202421D01*
X131762153Y-80214718D01*
X131740529Y-80224946D01*
X131718007Y-80233004D01*
X131694803Y-80238816D01*
X131671142Y-80242326D01*
X131647250Y-80243500D01*
X130734750Y-80243500D01*
X130710858Y-80242326D01*
X130687197Y-80238816D01*
X130663993Y-80233004D01*
X130641471Y-80224946D01*
X130619847Y-80214718D01*
X130599330Y-80202421D01*
X130580117Y-80188171D01*
X130562393Y-80172107D01*
X130546329Y-80154383D01*
X130532079Y-80135170D01*
X130519782Y-80114653D01*
X130509554Y-80093029D01*
X130501496Y-80070507D01*
X130495684Y-80047303D01*
X130492174Y-80023642D01*
X130491000Y-79999750D01*
X130491000Y-79512250D01*
X130492174Y-79488358D01*
X130495684Y-79464697D01*
X130501496Y-79441493D01*
X130509554Y-79418971D01*
X130519782Y-79397347D01*
X130532079Y-79376830D01*
X130546329Y-79357617D01*
X130562393Y-79339893D01*
X130580117Y-79323829D01*
X130599330Y-79309579D01*
X130619847Y-79297282D01*
X130641471Y-79287054D01*
X130663993Y-79278996D01*
X130687197Y-79273184D01*
X130710858Y-79269674D01*
X130734750Y-79268500D01*
X131647250Y-79268500D01*
X131671142Y-79269674D01*
X131671142Y-79269674D01*
G37*
D12*
X131191000Y-79756000D03*
D11*
G36*
X131671142Y-81144674D02*
G01*
X131694803Y-81148184D01*
X131718007Y-81153996D01*
X131740529Y-81162054D01*
X131762153Y-81172282D01*
X131782670Y-81184579D01*
X131801883Y-81198829D01*
X131819607Y-81214893D01*
X131835671Y-81232617D01*
X131849921Y-81251830D01*
X131862218Y-81272347D01*
X131872446Y-81293971D01*
X131880504Y-81316493D01*
X131886316Y-81339697D01*
X131889826Y-81363358D01*
X131891000Y-81387250D01*
X131891000Y-81874750D01*
X131889826Y-81898642D01*
X131886316Y-81922303D01*
X131880504Y-81945507D01*
X131872446Y-81968029D01*
X131862218Y-81989653D01*
X131849921Y-82010170D01*
X131835671Y-82029383D01*
X131819607Y-82047107D01*
X131801883Y-82063171D01*
X131782670Y-82077421D01*
X131762153Y-82089718D01*
X131740529Y-82099946D01*
X131718007Y-82108004D01*
X131694803Y-82113816D01*
X131671142Y-82117326D01*
X131647250Y-82118500D01*
X130734750Y-82118500D01*
X130710858Y-82117326D01*
X130687197Y-82113816D01*
X130663993Y-82108004D01*
X130641471Y-82099946D01*
X130619847Y-82089718D01*
X130599330Y-82077421D01*
X130580117Y-82063171D01*
X130562393Y-82047107D01*
X130546329Y-82029383D01*
X130532079Y-82010170D01*
X130519782Y-81989653D01*
X130509554Y-81968029D01*
X130501496Y-81945507D01*
X130495684Y-81922303D01*
X130492174Y-81898642D01*
X130491000Y-81874750D01*
X130491000Y-81387250D01*
X130492174Y-81363358D01*
X130495684Y-81339697D01*
X130501496Y-81316493D01*
X130509554Y-81293971D01*
X130519782Y-81272347D01*
X130532079Y-81251830D01*
X130546329Y-81232617D01*
X130562393Y-81214893D01*
X130580117Y-81198829D01*
X130599330Y-81184579D01*
X130619847Y-81172282D01*
X130641471Y-81162054D01*
X130663993Y-81153996D01*
X130687197Y-81148184D01*
X130710858Y-81144674D01*
X130734750Y-81143500D01*
X131647250Y-81143500D01*
X131671142Y-81144674D01*
X131671142Y-81144674D01*
G37*
D12*
X131191000Y-81631000D03*
D11*
G36*
X101359642Y-81724174D02*
G01*
X101383303Y-81727684D01*
X101406507Y-81733496D01*
X101429029Y-81741554D01*
X101450653Y-81751782D01*
X101471170Y-81764079D01*
X101490383Y-81778329D01*
X101508107Y-81794393D01*
X101524171Y-81812117D01*
X101538421Y-81831330D01*
X101550718Y-81851847D01*
X101560946Y-81873471D01*
X101569004Y-81895993D01*
X101574816Y-81919197D01*
X101578326Y-81942858D01*
X101579500Y-81966750D01*
X101579500Y-82879250D01*
X101578326Y-82903142D01*
X101574816Y-82926803D01*
X101569004Y-82950007D01*
X101560946Y-82972529D01*
X101550718Y-82994153D01*
X101538421Y-83014670D01*
X101524171Y-83033883D01*
X101508107Y-83051607D01*
X101490383Y-83067671D01*
X101471170Y-83081921D01*
X101450653Y-83094218D01*
X101429029Y-83104446D01*
X101406507Y-83112504D01*
X101383303Y-83118316D01*
X101359642Y-83121826D01*
X101335750Y-83123000D01*
X100848250Y-83123000D01*
X100824358Y-83121826D01*
X100800697Y-83118316D01*
X100777493Y-83112504D01*
X100754971Y-83104446D01*
X100733347Y-83094218D01*
X100712830Y-83081921D01*
X100693617Y-83067671D01*
X100675893Y-83051607D01*
X100659829Y-83033883D01*
X100645579Y-83014670D01*
X100633282Y-82994153D01*
X100623054Y-82972529D01*
X100614996Y-82950007D01*
X100609184Y-82926803D01*
X100605674Y-82903142D01*
X100604500Y-82879250D01*
X100604500Y-81966750D01*
X100605674Y-81942858D01*
X100609184Y-81919197D01*
X100614996Y-81895993D01*
X100623054Y-81873471D01*
X100633282Y-81851847D01*
X100645579Y-81831330D01*
X100659829Y-81812117D01*
X100675893Y-81794393D01*
X100693617Y-81778329D01*
X100712830Y-81764079D01*
X100733347Y-81751782D01*
X100754971Y-81741554D01*
X100777493Y-81733496D01*
X100800697Y-81727684D01*
X100824358Y-81724174D01*
X100848250Y-81723000D01*
X101335750Y-81723000D01*
X101359642Y-81724174D01*
X101359642Y-81724174D01*
G37*
D12*
X101092000Y-82423000D03*
D11*
G36*
X99484642Y-81724174D02*
G01*
X99508303Y-81727684D01*
X99531507Y-81733496D01*
X99554029Y-81741554D01*
X99575653Y-81751782D01*
X99596170Y-81764079D01*
X99615383Y-81778329D01*
X99633107Y-81794393D01*
X99649171Y-81812117D01*
X99663421Y-81831330D01*
X99675718Y-81851847D01*
X99685946Y-81873471D01*
X99694004Y-81895993D01*
X99699816Y-81919197D01*
X99703326Y-81942858D01*
X99704500Y-81966750D01*
X99704500Y-82879250D01*
X99703326Y-82903142D01*
X99699816Y-82926803D01*
X99694004Y-82950007D01*
X99685946Y-82972529D01*
X99675718Y-82994153D01*
X99663421Y-83014670D01*
X99649171Y-83033883D01*
X99633107Y-83051607D01*
X99615383Y-83067671D01*
X99596170Y-83081921D01*
X99575653Y-83094218D01*
X99554029Y-83104446D01*
X99531507Y-83112504D01*
X99508303Y-83118316D01*
X99484642Y-83121826D01*
X99460750Y-83123000D01*
X98973250Y-83123000D01*
X98949358Y-83121826D01*
X98925697Y-83118316D01*
X98902493Y-83112504D01*
X98879971Y-83104446D01*
X98858347Y-83094218D01*
X98837830Y-83081921D01*
X98818617Y-83067671D01*
X98800893Y-83051607D01*
X98784829Y-83033883D01*
X98770579Y-83014670D01*
X98758282Y-82994153D01*
X98748054Y-82972529D01*
X98739996Y-82950007D01*
X98734184Y-82926803D01*
X98730674Y-82903142D01*
X98729500Y-82879250D01*
X98729500Y-81966750D01*
X98730674Y-81942858D01*
X98734184Y-81919197D01*
X98739996Y-81895993D01*
X98748054Y-81873471D01*
X98758282Y-81851847D01*
X98770579Y-81831330D01*
X98784829Y-81812117D01*
X98800893Y-81794393D01*
X98818617Y-81778329D01*
X98837830Y-81764079D01*
X98858347Y-81751782D01*
X98879971Y-81741554D01*
X98902493Y-81733496D01*
X98925697Y-81727684D01*
X98949358Y-81724174D01*
X98973250Y-81723000D01*
X99460750Y-81723000D01*
X99484642Y-81724174D01*
X99484642Y-81724174D01*
G37*
D12*
X99217000Y-82423000D03*
D11*
G36*
X101359642Y-86931174D02*
G01*
X101383303Y-86934684D01*
X101406507Y-86940496D01*
X101429029Y-86948554D01*
X101450653Y-86958782D01*
X101471170Y-86971079D01*
X101490383Y-86985329D01*
X101508107Y-87001393D01*
X101524171Y-87019117D01*
X101538421Y-87038330D01*
X101550718Y-87058847D01*
X101560946Y-87080471D01*
X101569004Y-87102993D01*
X101574816Y-87126197D01*
X101578326Y-87149858D01*
X101579500Y-87173750D01*
X101579500Y-88086250D01*
X101578326Y-88110142D01*
X101574816Y-88133803D01*
X101569004Y-88157007D01*
X101560946Y-88179529D01*
X101550718Y-88201153D01*
X101538421Y-88221670D01*
X101524171Y-88240883D01*
X101508107Y-88258607D01*
X101490383Y-88274671D01*
X101471170Y-88288921D01*
X101450653Y-88301218D01*
X101429029Y-88311446D01*
X101406507Y-88319504D01*
X101383303Y-88325316D01*
X101359642Y-88328826D01*
X101335750Y-88330000D01*
X100848250Y-88330000D01*
X100824358Y-88328826D01*
X100800697Y-88325316D01*
X100777493Y-88319504D01*
X100754971Y-88311446D01*
X100733347Y-88301218D01*
X100712830Y-88288921D01*
X100693617Y-88274671D01*
X100675893Y-88258607D01*
X100659829Y-88240883D01*
X100645579Y-88221670D01*
X100633282Y-88201153D01*
X100623054Y-88179529D01*
X100614996Y-88157007D01*
X100609184Y-88133803D01*
X100605674Y-88110142D01*
X100604500Y-88086250D01*
X100604500Y-87173750D01*
X100605674Y-87149858D01*
X100609184Y-87126197D01*
X100614996Y-87102993D01*
X100623054Y-87080471D01*
X100633282Y-87058847D01*
X100645579Y-87038330D01*
X100659829Y-87019117D01*
X100675893Y-87001393D01*
X100693617Y-86985329D01*
X100712830Y-86971079D01*
X100733347Y-86958782D01*
X100754971Y-86948554D01*
X100777493Y-86940496D01*
X100800697Y-86934684D01*
X100824358Y-86931174D01*
X100848250Y-86930000D01*
X101335750Y-86930000D01*
X101359642Y-86931174D01*
X101359642Y-86931174D01*
G37*
D12*
X101092000Y-87630000D03*
D11*
G36*
X99484642Y-86931174D02*
G01*
X99508303Y-86934684D01*
X99531507Y-86940496D01*
X99554029Y-86948554D01*
X99575653Y-86958782D01*
X99596170Y-86971079D01*
X99615383Y-86985329D01*
X99633107Y-87001393D01*
X99649171Y-87019117D01*
X99663421Y-87038330D01*
X99675718Y-87058847D01*
X99685946Y-87080471D01*
X99694004Y-87102993D01*
X99699816Y-87126197D01*
X99703326Y-87149858D01*
X99704500Y-87173750D01*
X99704500Y-88086250D01*
X99703326Y-88110142D01*
X99699816Y-88133803D01*
X99694004Y-88157007D01*
X99685946Y-88179529D01*
X99675718Y-88201153D01*
X99663421Y-88221670D01*
X99649171Y-88240883D01*
X99633107Y-88258607D01*
X99615383Y-88274671D01*
X99596170Y-88288921D01*
X99575653Y-88301218D01*
X99554029Y-88311446D01*
X99531507Y-88319504D01*
X99508303Y-88325316D01*
X99484642Y-88328826D01*
X99460750Y-88330000D01*
X98973250Y-88330000D01*
X98949358Y-88328826D01*
X98925697Y-88325316D01*
X98902493Y-88319504D01*
X98879971Y-88311446D01*
X98858347Y-88301218D01*
X98837830Y-88288921D01*
X98818617Y-88274671D01*
X98800893Y-88258607D01*
X98784829Y-88240883D01*
X98770579Y-88221670D01*
X98758282Y-88201153D01*
X98748054Y-88179529D01*
X98739996Y-88157007D01*
X98734184Y-88133803D01*
X98730674Y-88110142D01*
X98729500Y-88086250D01*
X98729500Y-87173750D01*
X98730674Y-87149858D01*
X98734184Y-87126197D01*
X98739996Y-87102993D01*
X98748054Y-87080471D01*
X98758282Y-87058847D01*
X98770579Y-87038330D01*
X98784829Y-87019117D01*
X98800893Y-87001393D01*
X98818617Y-86985329D01*
X98837830Y-86971079D01*
X98858347Y-86958782D01*
X98879971Y-86948554D01*
X98902493Y-86940496D01*
X98925697Y-86934684D01*
X98949358Y-86931174D01*
X98973250Y-86930000D01*
X99460750Y-86930000D01*
X99484642Y-86931174D01*
X99484642Y-86931174D01*
G37*
D12*
X99217000Y-87630000D03*
D11*
G36*
X101408142Y-100774174D02*
G01*
X101431803Y-100777684D01*
X101455007Y-100783496D01*
X101477529Y-100791554D01*
X101499153Y-100801782D01*
X101519670Y-100814079D01*
X101538883Y-100828329D01*
X101556607Y-100844393D01*
X101572671Y-100862117D01*
X101586921Y-100881330D01*
X101599218Y-100901847D01*
X101609446Y-100923471D01*
X101617504Y-100945993D01*
X101623316Y-100969197D01*
X101626826Y-100992858D01*
X101628000Y-101016750D01*
X101628000Y-101929250D01*
X101626826Y-101953142D01*
X101623316Y-101976803D01*
X101617504Y-102000007D01*
X101609446Y-102022529D01*
X101599218Y-102044153D01*
X101586921Y-102064670D01*
X101572671Y-102083883D01*
X101556607Y-102101607D01*
X101538883Y-102117671D01*
X101519670Y-102131921D01*
X101499153Y-102144218D01*
X101477529Y-102154446D01*
X101455007Y-102162504D01*
X101431803Y-102168316D01*
X101408142Y-102171826D01*
X101384250Y-102173000D01*
X100896750Y-102173000D01*
X100872858Y-102171826D01*
X100849197Y-102168316D01*
X100825993Y-102162504D01*
X100803471Y-102154446D01*
X100781847Y-102144218D01*
X100761330Y-102131921D01*
X100742117Y-102117671D01*
X100724393Y-102101607D01*
X100708329Y-102083883D01*
X100694079Y-102064670D01*
X100681782Y-102044153D01*
X100671554Y-102022529D01*
X100663496Y-102000007D01*
X100657684Y-101976803D01*
X100654174Y-101953142D01*
X100653000Y-101929250D01*
X100653000Y-101016750D01*
X100654174Y-100992858D01*
X100657684Y-100969197D01*
X100663496Y-100945993D01*
X100671554Y-100923471D01*
X100681782Y-100901847D01*
X100694079Y-100881330D01*
X100708329Y-100862117D01*
X100724393Y-100844393D01*
X100742117Y-100828329D01*
X100761330Y-100814079D01*
X100781847Y-100801782D01*
X100803471Y-100791554D01*
X100825993Y-100783496D01*
X100849197Y-100777684D01*
X100872858Y-100774174D01*
X100896750Y-100773000D01*
X101384250Y-100773000D01*
X101408142Y-100774174D01*
X101408142Y-100774174D01*
G37*
D12*
X101140500Y-101473000D03*
D11*
G36*
X99533142Y-100774174D02*
G01*
X99556803Y-100777684D01*
X99580007Y-100783496D01*
X99602529Y-100791554D01*
X99624153Y-100801782D01*
X99644670Y-100814079D01*
X99663883Y-100828329D01*
X99681607Y-100844393D01*
X99697671Y-100862117D01*
X99711921Y-100881330D01*
X99724218Y-100901847D01*
X99734446Y-100923471D01*
X99742504Y-100945993D01*
X99748316Y-100969197D01*
X99751826Y-100992858D01*
X99753000Y-101016750D01*
X99753000Y-101929250D01*
X99751826Y-101953142D01*
X99748316Y-101976803D01*
X99742504Y-102000007D01*
X99734446Y-102022529D01*
X99724218Y-102044153D01*
X99711921Y-102064670D01*
X99697671Y-102083883D01*
X99681607Y-102101607D01*
X99663883Y-102117671D01*
X99644670Y-102131921D01*
X99624153Y-102144218D01*
X99602529Y-102154446D01*
X99580007Y-102162504D01*
X99556803Y-102168316D01*
X99533142Y-102171826D01*
X99509250Y-102173000D01*
X99021750Y-102173000D01*
X98997858Y-102171826D01*
X98974197Y-102168316D01*
X98950993Y-102162504D01*
X98928471Y-102154446D01*
X98906847Y-102144218D01*
X98886330Y-102131921D01*
X98867117Y-102117671D01*
X98849393Y-102101607D01*
X98833329Y-102083883D01*
X98819079Y-102064670D01*
X98806782Y-102044153D01*
X98796554Y-102022529D01*
X98788496Y-102000007D01*
X98782684Y-101976803D01*
X98779174Y-101953142D01*
X98778000Y-101929250D01*
X98778000Y-101016750D01*
X98779174Y-100992858D01*
X98782684Y-100969197D01*
X98788496Y-100945993D01*
X98796554Y-100923471D01*
X98806782Y-100901847D01*
X98819079Y-100881330D01*
X98833329Y-100862117D01*
X98849393Y-100844393D01*
X98867117Y-100828329D01*
X98886330Y-100814079D01*
X98906847Y-100801782D01*
X98928471Y-100791554D01*
X98950993Y-100783496D01*
X98974197Y-100777684D01*
X98997858Y-100774174D01*
X99021750Y-100773000D01*
X99509250Y-100773000D01*
X99533142Y-100774174D01*
X99533142Y-100774174D01*
G37*
D12*
X99265500Y-101473000D03*
D13*
X109474000Y-83058000D03*
X109474000Y-85598000D03*
D14*
X109474000Y-88138000D03*
D15*
X99253000Y-92753000D03*
X101153000Y-92753000D03*
X101153000Y-94953000D03*
X100203000Y-94953000D03*
X99253000Y-94953000D03*
D16*
X125960000Y-64055000D03*
X118340000Y-97075000D03*
X125960000Y-66595000D03*
X118340000Y-94535000D03*
X125960000Y-69135000D03*
X118340000Y-91995000D03*
X125960000Y-71675000D03*
X118340000Y-89455000D03*
X125960000Y-74215000D03*
X118340000Y-86915000D03*
X125960000Y-76755000D03*
X118340000Y-84375000D03*
X125960000Y-79295000D03*
X118340000Y-81835000D03*
X125960000Y-81835000D03*
X118340000Y-79295000D03*
X125960000Y-84375000D03*
X118340000Y-76755000D03*
X125960000Y-86915000D03*
X118340000Y-74215000D03*
X125960000Y-89455000D03*
X118340000Y-71675000D03*
X125960000Y-91995000D03*
X118340000Y-69135000D03*
X125960000Y-94535000D03*
X118340000Y-66595000D03*
X125960000Y-97075000D03*
D17*
X118340000Y-64055000D03*
D11*
G36*
X147927142Y-84349674D02*
G01*
X147950803Y-84353184D01*
X147974007Y-84358996D01*
X147996529Y-84367054D01*
X148018153Y-84377282D01*
X148038670Y-84389579D01*
X148057883Y-84403829D01*
X148075607Y-84419893D01*
X148091671Y-84437617D01*
X148105921Y-84456830D01*
X148118218Y-84477347D01*
X148128446Y-84498971D01*
X148136504Y-84521493D01*
X148142316Y-84544697D01*
X148145826Y-84568358D01*
X148147000Y-84592250D01*
X148147000Y-85079750D01*
X148145826Y-85103642D01*
X148142316Y-85127303D01*
X148136504Y-85150507D01*
X148128446Y-85173029D01*
X148118218Y-85194653D01*
X148105921Y-85215170D01*
X148091671Y-85234383D01*
X148075607Y-85252107D01*
X148057883Y-85268171D01*
X148038670Y-85282421D01*
X148018153Y-85294718D01*
X147996529Y-85304946D01*
X147974007Y-85313004D01*
X147950803Y-85318816D01*
X147927142Y-85322326D01*
X147903250Y-85323500D01*
X146990750Y-85323500D01*
X146966858Y-85322326D01*
X146943197Y-85318816D01*
X146919993Y-85313004D01*
X146897471Y-85304946D01*
X146875847Y-85294718D01*
X146855330Y-85282421D01*
X146836117Y-85268171D01*
X146818393Y-85252107D01*
X146802329Y-85234383D01*
X146788079Y-85215170D01*
X146775782Y-85194653D01*
X146765554Y-85173029D01*
X146757496Y-85150507D01*
X146751684Y-85127303D01*
X146748174Y-85103642D01*
X146747000Y-85079750D01*
X146747000Y-84592250D01*
X146748174Y-84568358D01*
X146751684Y-84544697D01*
X146757496Y-84521493D01*
X146765554Y-84498971D01*
X146775782Y-84477347D01*
X146788079Y-84456830D01*
X146802329Y-84437617D01*
X146818393Y-84419893D01*
X146836117Y-84403829D01*
X146855330Y-84389579D01*
X146875847Y-84377282D01*
X146897471Y-84367054D01*
X146919993Y-84358996D01*
X146943197Y-84353184D01*
X146966858Y-84349674D01*
X146990750Y-84348500D01*
X147903250Y-84348500D01*
X147927142Y-84349674D01*
X147927142Y-84349674D01*
G37*
D12*
X147447000Y-84836000D03*
D11*
G36*
X147927142Y-86224674D02*
G01*
X147950803Y-86228184D01*
X147974007Y-86233996D01*
X147996529Y-86242054D01*
X148018153Y-86252282D01*
X148038670Y-86264579D01*
X148057883Y-86278829D01*
X148075607Y-86294893D01*
X148091671Y-86312617D01*
X148105921Y-86331830D01*
X148118218Y-86352347D01*
X148128446Y-86373971D01*
X148136504Y-86396493D01*
X148142316Y-86419697D01*
X148145826Y-86443358D01*
X148147000Y-86467250D01*
X148147000Y-86954750D01*
X148145826Y-86978642D01*
X148142316Y-87002303D01*
X148136504Y-87025507D01*
X148128446Y-87048029D01*
X148118218Y-87069653D01*
X148105921Y-87090170D01*
X148091671Y-87109383D01*
X148075607Y-87127107D01*
X148057883Y-87143171D01*
X148038670Y-87157421D01*
X148018153Y-87169718D01*
X147996529Y-87179946D01*
X147974007Y-87188004D01*
X147950803Y-87193816D01*
X147927142Y-87197326D01*
X147903250Y-87198500D01*
X146990750Y-87198500D01*
X146966858Y-87197326D01*
X146943197Y-87193816D01*
X146919993Y-87188004D01*
X146897471Y-87179946D01*
X146875847Y-87169718D01*
X146855330Y-87157421D01*
X146836117Y-87143171D01*
X146818393Y-87127107D01*
X146802329Y-87109383D01*
X146788079Y-87090170D01*
X146775782Y-87069653D01*
X146765554Y-87048029D01*
X146757496Y-87025507D01*
X146751684Y-87002303D01*
X146748174Y-86978642D01*
X146747000Y-86954750D01*
X146747000Y-86467250D01*
X146748174Y-86443358D01*
X146751684Y-86419697D01*
X146757496Y-86396493D01*
X146765554Y-86373971D01*
X146775782Y-86352347D01*
X146788079Y-86331830D01*
X146802329Y-86312617D01*
X146818393Y-86294893D01*
X146836117Y-86278829D01*
X146855330Y-86264579D01*
X146875847Y-86252282D01*
X146897471Y-86242054D01*
X146919993Y-86233996D01*
X146943197Y-86228184D01*
X146966858Y-86224674D01*
X146990750Y-86223500D01*
X147903250Y-86223500D01*
X147927142Y-86224674D01*
X147927142Y-86224674D01*
G37*
D12*
X147447000Y-86711000D03*
D11*
G36*
X147927142Y-79269674D02*
G01*
X147950803Y-79273184D01*
X147974007Y-79278996D01*
X147996529Y-79287054D01*
X148018153Y-79297282D01*
X148038670Y-79309579D01*
X148057883Y-79323829D01*
X148075607Y-79339893D01*
X148091671Y-79357617D01*
X148105921Y-79376830D01*
X148118218Y-79397347D01*
X148128446Y-79418971D01*
X148136504Y-79441493D01*
X148142316Y-79464697D01*
X148145826Y-79488358D01*
X148147000Y-79512250D01*
X148147000Y-79999750D01*
X148145826Y-80023642D01*
X148142316Y-80047303D01*
X148136504Y-80070507D01*
X148128446Y-80093029D01*
X148118218Y-80114653D01*
X148105921Y-80135170D01*
X148091671Y-80154383D01*
X148075607Y-80172107D01*
X148057883Y-80188171D01*
X148038670Y-80202421D01*
X148018153Y-80214718D01*
X147996529Y-80224946D01*
X147974007Y-80233004D01*
X147950803Y-80238816D01*
X147927142Y-80242326D01*
X147903250Y-80243500D01*
X146990750Y-80243500D01*
X146966858Y-80242326D01*
X146943197Y-80238816D01*
X146919993Y-80233004D01*
X146897471Y-80224946D01*
X146875847Y-80214718D01*
X146855330Y-80202421D01*
X146836117Y-80188171D01*
X146818393Y-80172107D01*
X146802329Y-80154383D01*
X146788079Y-80135170D01*
X146775782Y-80114653D01*
X146765554Y-80093029D01*
X146757496Y-80070507D01*
X146751684Y-80047303D01*
X146748174Y-80023642D01*
X146747000Y-79999750D01*
X146747000Y-79512250D01*
X146748174Y-79488358D01*
X146751684Y-79464697D01*
X146757496Y-79441493D01*
X146765554Y-79418971D01*
X146775782Y-79397347D01*
X146788079Y-79376830D01*
X146802329Y-79357617D01*
X146818393Y-79339893D01*
X146836117Y-79323829D01*
X146855330Y-79309579D01*
X146875847Y-79297282D01*
X146897471Y-79287054D01*
X146919993Y-79278996D01*
X146943197Y-79273184D01*
X146966858Y-79269674D01*
X146990750Y-79268500D01*
X147903250Y-79268500D01*
X147927142Y-79269674D01*
X147927142Y-79269674D01*
G37*
D12*
X147447000Y-79756000D03*
D11*
G36*
X147927142Y-81144674D02*
G01*
X147950803Y-81148184D01*
X147974007Y-81153996D01*
X147996529Y-81162054D01*
X148018153Y-81172282D01*
X148038670Y-81184579D01*
X148057883Y-81198829D01*
X148075607Y-81214893D01*
X148091671Y-81232617D01*
X148105921Y-81251830D01*
X148118218Y-81272347D01*
X148128446Y-81293971D01*
X148136504Y-81316493D01*
X148142316Y-81339697D01*
X148145826Y-81363358D01*
X148147000Y-81387250D01*
X148147000Y-81874750D01*
X148145826Y-81898642D01*
X148142316Y-81922303D01*
X148136504Y-81945507D01*
X148128446Y-81968029D01*
X148118218Y-81989653D01*
X148105921Y-82010170D01*
X148091671Y-82029383D01*
X148075607Y-82047107D01*
X148057883Y-82063171D01*
X148038670Y-82077421D01*
X148018153Y-82089718D01*
X147996529Y-82099946D01*
X147974007Y-82108004D01*
X147950803Y-82113816D01*
X147927142Y-82117326D01*
X147903250Y-82118500D01*
X146990750Y-82118500D01*
X146966858Y-82117326D01*
X146943197Y-82113816D01*
X146919993Y-82108004D01*
X146897471Y-82099946D01*
X146875847Y-82089718D01*
X146855330Y-82077421D01*
X146836117Y-82063171D01*
X146818393Y-82047107D01*
X146802329Y-82029383D01*
X146788079Y-82010170D01*
X146775782Y-81989653D01*
X146765554Y-81968029D01*
X146757496Y-81945507D01*
X146751684Y-81922303D01*
X146748174Y-81898642D01*
X146747000Y-81874750D01*
X146747000Y-81387250D01*
X146748174Y-81363358D01*
X146751684Y-81339697D01*
X146757496Y-81316493D01*
X146765554Y-81293971D01*
X146775782Y-81272347D01*
X146788079Y-81251830D01*
X146802329Y-81232617D01*
X146818393Y-81214893D01*
X146836117Y-81198829D01*
X146855330Y-81184579D01*
X146875847Y-81172282D01*
X146897471Y-81162054D01*
X146919993Y-81153996D01*
X146943197Y-81148184D01*
X146966858Y-81144674D01*
X146990750Y-81143500D01*
X147903250Y-81143500D01*
X147927142Y-81144674D01*
X147927142Y-81144674D01*
G37*
D12*
X147447000Y-81631000D03*
D11*
G36*
X147927142Y-74189674D02*
G01*
X147950803Y-74193184D01*
X147974007Y-74198996D01*
X147996529Y-74207054D01*
X148018153Y-74217282D01*
X148038670Y-74229579D01*
X148057883Y-74243829D01*
X148075607Y-74259893D01*
X148091671Y-74277617D01*
X148105921Y-74296830D01*
X148118218Y-74317347D01*
X148128446Y-74338971D01*
X148136504Y-74361493D01*
X148142316Y-74384697D01*
X148145826Y-74408358D01*
X148147000Y-74432250D01*
X148147000Y-74919750D01*
X148145826Y-74943642D01*
X148142316Y-74967303D01*
X148136504Y-74990507D01*
X148128446Y-75013029D01*
X148118218Y-75034653D01*
X148105921Y-75055170D01*
X148091671Y-75074383D01*
X148075607Y-75092107D01*
X148057883Y-75108171D01*
X148038670Y-75122421D01*
X148018153Y-75134718D01*
X147996529Y-75144946D01*
X147974007Y-75153004D01*
X147950803Y-75158816D01*
X147927142Y-75162326D01*
X147903250Y-75163500D01*
X146990750Y-75163500D01*
X146966858Y-75162326D01*
X146943197Y-75158816D01*
X146919993Y-75153004D01*
X146897471Y-75144946D01*
X146875847Y-75134718D01*
X146855330Y-75122421D01*
X146836117Y-75108171D01*
X146818393Y-75092107D01*
X146802329Y-75074383D01*
X146788079Y-75055170D01*
X146775782Y-75034653D01*
X146765554Y-75013029D01*
X146757496Y-74990507D01*
X146751684Y-74967303D01*
X146748174Y-74943642D01*
X146747000Y-74919750D01*
X146747000Y-74432250D01*
X146748174Y-74408358D01*
X146751684Y-74384697D01*
X146757496Y-74361493D01*
X146765554Y-74338971D01*
X146775782Y-74317347D01*
X146788079Y-74296830D01*
X146802329Y-74277617D01*
X146818393Y-74259893D01*
X146836117Y-74243829D01*
X146855330Y-74229579D01*
X146875847Y-74217282D01*
X146897471Y-74207054D01*
X146919993Y-74198996D01*
X146943197Y-74193184D01*
X146966858Y-74189674D01*
X146990750Y-74188500D01*
X147903250Y-74188500D01*
X147927142Y-74189674D01*
X147927142Y-74189674D01*
G37*
D12*
X147447000Y-74676000D03*
D11*
G36*
X147927142Y-76064674D02*
G01*
X147950803Y-76068184D01*
X147974007Y-76073996D01*
X147996529Y-76082054D01*
X148018153Y-76092282D01*
X148038670Y-76104579D01*
X148057883Y-76118829D01*
X148075607Y-76134893D01*
X148091671Y-76152617D01*
X148105921Y-76171830D01*
X148118218Y-76192347D01*
X148128446Y-76213971D01*
X148136504Y-76236493D01*
X148142316Y-76259697D01*
X148145826Y-76283358D01*
X148147000Y-76307250D01*
X148147000Y-76794750D01*
X148145826Y-76818642D01*
X148142316Y-76842303D01*
X148136504Y-76865507D01*
X148128446Y-76888029D01*
X148118218Y-76909653D01*
X148105921Y-76930170D01*
X148091671Y-76949383D01*
X148075607Y-76967107D01*
X148057883Y-76983171D01*
X148038670Y-76997421D01*
X148018153Y-77009718D01*
X147996529Y-77019946D01*
X147974007Y-77028004D01*
X147950803Y-77033816D01*
X147927142Y-77037326D01*
X147903250Y-77038500D01*
X146990750Y-77038500D01*
X146966858Y-77037326D01*
X146943197Y-77033816D01*
X146919993Y-77028004D01*
X146897471Y-77019946D01*
X146875847Y-77009718D01*
X146855330Y-76997421D01*
X146836117Y-76983171D01*
X146818393Y-76967107D01*
X146802329Y-76949383D01*
X146788079Y-76930170D01*
X146775782Y-76909653D01*
X146765554Y-76888029D01*
X146757496Y-76865507D01*
X146751684Y-76842303D01*
X146748174Y-76818642D01*
X146747000Y-76794750D01*
X146747000Y-76307250D01*
X146748174Y-76283358D01*
X146751684Y-76259697D01*
X146757496Y-76236493D01*
X146765554Y-76213971D01*
X146775782Y-76192347D01*
X146788079Y-76171830D01*
X146802329Y-76152617D01*
X146818393Y-76134893D01*
X146836117Y-76118829D01*
X146855330Y-76104579D01*
X146875847Y-76092282D01*
X146897471Y-76082054D01*
X146919993Y-76073996D01*
X146943197Y-76068184D01*
X146966858Y-76064674D01*
X146990750Y-76063500D01*
X147903250Y-76063500D01*
X147927142Y-76064674D01*
X147927142Y-76064674D01*
G37*
D12*
X147447000Y-76551000D03*
D11*
G36*
X147927142Y-69109674D02*
G01*
X147950803Y-69113184D01*
X147974007Y-69118996D01*
X147996529Y-69127054D01*
X148018153Y-69137282D01*
X148038670Y-69149579D01*
X148057883Y-69163829D01*
X148075607Y-69179893D01*
X148091671Y-69197617D01*
X148105921Y-69216830D01*
X148118218Y-69237347D01*
X148128446Y-69258971D01*
X148136504Y-69281493D01*
X148142316Y-69304697D01*
X148145826Y-69328358D01*
X148147000Y-69352250D01*
X148147000Y-69839750D01*
X148145826Y-69863642D01*
X148142316Y-69887303D01*
X148136504Y-69910507D01*
X148128446Y-69933029D01*
X148118218Y-69954653D01*
X148105921Y-69975170D01*
X148091671Y-69994383D01*
X148075607Y-70012107D01*
X148057883Y-70028171D01*
X148038670Y-70042421D01*
X148018153Y-70054718D01*
X147996529Y-70064946D01*
X147974007Y-70073004D01*
X147950803Y-70078816D01*
X147927142Y-70082326D01*
X147903250Y-70083500D01*
X146990750Y-70083500D01*
X146966858Y-70082326D01*
X146943197Y-70078816D01*
X146919993Y-70073004D01*
X146897471Y-70064946D01*
X146875847Y-70054718D01*
X146855330Y-70042421D01*
X146836117Y-70028171D01*
X146818393Y-70012107D01*
X146802329Y-69994383D01*
X146788079Y-69975170D01*
X146775782Y-69954653D01*
X146765554Y-69933029D01*
X146757496Y-69910507D01*
X146751684Y-69887303D01*
X146748174Y-69863642D01*
X146747000Y-69839750D01*
X146747000Y-69352250D01*
X146748174Y-69328358D01*
X146751684Y-69304697D01*
X146757496Y-69281493D01*
X146765554Y-69258971D01*
X146775782Y-69237347D01*
X146788079Y-69216830D01*
X146802329Y-69197617D01*
X146818393Y-69179893D01*
X146836117Y-69163829D01*
X146855330Y-69149579D01*
X146875847Y-69137282D01*
X146897471Y-69127054D01*
X146919993Y-69118996D01*
X146943197Y-69113184D01*
X146966858Y-69109674D01*
X146990750Y-69108500D01*
X147903250Y-69108500D01*
X147927142Y-69109674D01*
X147927142Y-69109674D01*
G37*
D12*
X147447000Y-69596000D03*
D11*
G36*
X147927142Y-70984674D02*
G01*
X147950803Y-70988184D01*
X147974007Y-70993996D01*
X147996529Y-71002054D01*
X148018153Y-71012282D01*
X148038670Y-71024579D01*
X148057883Y-71038829D01*
X148075607Y-71054893D01*
X148091671Y-71072617D01*
X148105921Y-71091830D01*
X148118218Y-71112347D01*
X148128446Y-71133971D01*
X148136504Y-71156493D01*
X148142316Y-71179697D01*
X148145826Y-71203358D01*
X148147000Y-71227250D01*
X148147000Y-71714750D01*
X148145826Y-71738642D01*
X148142316Y-71762303D01*
X148136504Y-71785507D01*
X148128446Y-71808029D01*
X148118218Y-71829653D01*
X148105921Y-71850170D01*
X148091671Y-71869383D01*
X148075607Y-71887107D01*
X148057883Y-71903171D01*
X148038670Y-71917421D01*
X148018153Y-71929718D01*
X147996529Y-71939946D01*
X147974007Y-71948004D01*
X147950803Y-71953816D01*
X147927142Y-71957326D01*
X147903250Y-71958500D01*
X146990750Y-71958500D01*
X146966858Y-71957326D01*
X146943197Y-71953816D01*
X146919993Y-71948004D01*
X146897471Y-71939946D01*
X146875847Y-71929718D01*
X146855330Y-71917421D01*
X146836117Y-71903171D01*
X146818393Y-71887107D01*
X146802329Y-71869383D01*
X146788079Y-71850170D01*
X146775782Y-71829653D01*
X146765554Y-71808029D01*
X146757496Y-71785507D01*
X146751684Y-71762303D01*
X146748174Y-71738642D01*
X146747000Y-71714750D01*
X146747000Y-71227250D01*
X146748174Y-71203358D01*
X146751684Y-71179697D01*
X146757496Y-71156493D01*
X146765554Y-71133971D01*
X146775782Y-71112347D01*
X146788079Y-71091830D01*
X146802329Y-71072617D01*
X146818393Y-71054893D01*
X146836117Y-71038829D01*
X146855330Y-71024579D01*
X146875847Y-71012282D01*
X146897471Y-71002054D01*
X146919993Y-70993996D01*
X146943197Y-70988184D01*
X146966858Y-70984674D01*
X146990750Y-70983500D01*
X147903250Y-70983500D01*
X147927142Y-70984674D01*
X147927142Y-70984674D01*
G37*
D12*
X147447000Y-71471000D03*
D11*
G36*
X138141142Y-84137174D02*
G01*
X138164803Y-84140684D01*
X138188007Y-84146496D01*
X138210529Y-84154554D01*
X138232153Y-84164782D01*
X138252670Y-84177079D01*
X138271883Y-84191329D01*
X138289607Y-84207393D01*
X138305671Y-84225117D01*
X138319921Y-84244330D01*
X138332218Y-84264847D01*
X138342446Y-84286471D01*
X138350504Y-84308993D01*
X138356316Y-84332197D01*
X138359826Y-84355858D01*
X138361000Y-84379750D01*
X138361000Y-85292250D01*
X138359826Y-85316142D01*
X138356316Y-85339803D01*
X138350504Y-85363007D01*
X138342446Y-85385529D01*
X138332218Y-85407153D01*
X138319921Y-85427670D01*
X138305671Y-85446883D01*
X138289607Y-85464607D01*
X138271883Y-85480671D01*
X138252670Y-85494921D01*
X138232153Y-85507218D01*
X138210529Y-85517446D01*
X138188007Y-85525504D01*
X138164803Y-85531316D01*
X138141142Y-85534826D01*
X138117250Y-85536000D01*
X137629750Y-85536000D01*
X137605858Y-85534826D01*
X137582197Y-85531316D01*
X137558993Y-85525504D01*
X137536471Y-85517446D01*
X137514847Y-85507218D01*
X137494330Y-85494921D01*
X137475117Y-85480671D01*
X137457393Y-85464607D01*
X137441329Y-85446883D01*
X137427079Y-85427670D01*
X137414782Y-85407153D01*
X137404554Y-85385529D01*
X137396496Y-85363007D01*
X137390684Y-85339803D01*
X137387174Y-85316142D01*
X137386000Y-85292250D01*
X137386000Y-84379750D01*
X137387174Y-84355858D01*
X137390684Y-84332197D01*
X137396496Y-84308993D01*
X137404554Y-84286471D01*
X137414782Y-84264847D01*
X137427079Y-84244330D01*
X137441329Y-84225117D01*
X137457393Y-84207393D01*
X137475117Y-84191329D01*
X137494330Y-84177079D01*
X137514847Y-84164782D01*
X137536471Y-84154554D01*
X137558993Y-84146496D01*
X137582197Y-84140684D01*
X137605858Y-84137174D01*
X137629750Y-84136000D01*
X138117250Y-84136000D01*
X138141142Y-84137174D01*
X138141142Y-84137174D01*
G37*
D12*
X137873500Y-84836000D03*
D11*
G36*
X140016142Y-84137174D02*
G01*
X140039803Y-84140684D01*
X140063007Y-84146496D01*
X140085529Y-84154554D01*
X140107153Y-84164782D01*
X140127670Y-84177079D01*
X140146883Y-84191329D01*
X140164607Y-84207393D01*
X140180671Y-84225117D01*
X140194921Y-84244330D01*
X140207218Y-84264847D01*
X140217446Y-84286471D01*
X140225504Y-84308993D01*
X140231316Y-84332197D01*
X140234826Y-84355858D01*
X140236000Y-84379750D01*
X140236000Y-85292250D01*
X140234826Y-85316142D01*
X140231316Y-85339803D01*
X140225504Y-85363007D01*
X140217446Y-85385529D01*
X140207218Y-85407153D01*
X140194921Y-85427670D01*
X140180671Y-85446883D01*
X140164607Y-85464607D01*
X140146883Y-85480671D01*
X140127670Y-85494921D01*
X140107153Y-85507218D01*
X140085529Y-85517446D01*
X140063007Y-85525504D01*
X140039803Y-85531316D01*
X140016142Y-85534826D01*
X139992250Y-85536000D01*
X139504750Y-85536000D01*
X139480858Y-85534826D01*
X139457197Y-85531316D01*
X139433993Y-85525504D01*
X139411471Y-85517446D01*
X139389847Y-85507218D01*
X139369330Y-85494921D01*
X139350117Y-85480671D01*
X139332393Y-85464607D01*
X139316329Y-85446883D01*
X139302079Y-85427670D01*
X139289782Y-85407153D01*
X139279554Y-85385529D01*
X139271496Y-85363007D01*
X139265684Y-85339803D01*
X139262174Y-85316142D01*
X139261000Y-85292250D01*
X139261000Y-84379750D01*
X139262174Y-84355858D01*
X139265684Y-84332197D01*
X139271496Y-84308993D01*
X139279554Y-84286471D01*
X139289782Y-84264847D01*
X139302079Y-84244330D01*
X139316329Y-84225117D01*
X139332393Y-84207393D01*
X139350117Y-84191329D01*
X139369330Y-84177079D01*
X139389847Y-84164782D01*
X139411471Y-84154554D01*
X139433993Y-84146496D01*
X139457197Y-84140684D01*
X139480858Y-84137174D01*
X139504750Y-84136000D01*
X139992250Y-84136000D01*
X140016142Y-84137174D01*
X140016142Y-84137174D01*
G37*
D12*
X139748500Y-84836000D03*
D11*
G36*
X138062642Y-79057174D02*
G01*
X138086303Y-79060684D01*
X138109507Y-79066496D01*
X138132029Y-79074554D01*
X138153653Y-79084782D01*
X138174170Y-79097079D01*
X138193383Y-79111329D01*
X138211107Y-79127393D01*
X138227171Y-79145117D01*
X138241421Y-79164330D01*
X138253718Y-79184847D01*
X138263946Y-79206471D01*
X138272004Y-79228993D01*
X138277816Y-79252197D01*
X138281326Y-79275858D01*
X138282500Y-79299750D01*
X138282500Y-80212250D01*
X138281326Y-80236142D01*
X138277816Y-80259803D01*
X138272004Y-80283007D01*
X138263946Y-80305529D01*
X138253718Y-80327153D01*
X138241421Y-80347670D01*
X138227171Y-80366883D01*
X138211107Y-80384607D01*
X138193383Y-80400671D01*
X138174170Y-80414921D01*
X138153653Y-80427218D01*
X138132029Y-80437446D01*
X138109507Y-80445504D01*
X138086303Y-80451316D01*
X138062642Y-80454826D01*
X138038750Y-80456000D01*
X137551250Y-80456000D01*
X137527358Y-80454826D01*
X137503697Y-80451316D01*
X137480493Y-80445504D01*
X137457971Y-80437446D01*
X137436347Y-80427218D01*
X137415830Y-80414921D01*
X137396617Y-80400671D01*
X137378893Y-80384607D01*
X137362829Y-80366883D01*
X137348579Y-80347670D01*
X137336282Y-80327153D01*
X137326054Y-80305529D01*
X137317996Y-80283007D01*
X137312184Y-80259803D01*
X137308674Y-80236142D01*
X137307500Y-80212250D01*
X137307500Y-79299750D01*
X137308674Y-79275858D01*
X137312184Y-79252197D01*
X137317996Y-79228993D01*
X137326054Y-79206471D01*
X137336282Y-79184847D01*
X137348579Y-79164330D01*
X137362829Y-79145117D01*
X137378893Y-79127393D01*
X137396617Y-79111329D01*
X137415830Y-79097079D01*
X137436347Y-79084782D01*
X137457971Y-79074554D01*
X137480493Y-79066496D01*
X137503697Y-79060684D01*
X137527358Y-79057174D01*
X137551250Y-79056000D01*
X138038750Y-79056000D01*
X138062642Y-79057174D01*
X138062642Y-79057174D01*
G37*
D12*
X137795000Y-79756000D03*
D11*
G36*
X139937642Y-79057174D02*
G01*
X139961303Y-79060684D01*
X139984507Y-79066496D01*
X140007029Y-79074554D01*
X140028653Y-79084782D01*
X140049170Y-79097079D01*
X140068383Y-79111329D01*
X140086107Y-79127393D01*
X140102171Y-79145117D01*
X140116421Y-79164330D01*
X140128718Y-79184847D01*
X140138946Y-79206471D01*
X140147004Y-79228993D01*
X140152816Y-79252197D01*
X140156326Y-79275858D01*
X140157500Y-79299750D01*
X140157500Y-80212250D01*
X140156326Y-80236142D01*
X140152816Y-80259803D01*
X140147004Y-80283007D01*
X140138946Y-80305529D01*
X140128718Y-80327153D01*
X140116421Y-80347670D01*
X140102171Y-80366883D01*
X140086107Y-80384607D01*
X140068383Y-80400671D01*
X140049170Y-80414921D01*
X140028653Y-80427218D01*
X140007029Y-80437446D01*
X139984507Y-80445504D01*
X139961303Y-80451316D01*
X139937642Y-80454826D01*
X139913750Y-80456000D01*
X139426250Y-80456000D01*
X139402358Y-80454826D01*
X139378697Y-80451316D01*
X139355493Y-80445504D01*
X139332971Y-80437446D01*
X139311347Y-80427218D01*
X139290830Y-80414921D01*
X139271617Y-80400671D01*
X139253893Y-80384607D01*
X139237829Y-80366883D01*
X139223579Y-80347670D01*
X139211282Y-80327153D01*
X139201054Y-80305529D01*
X139192996Y-80283007D01*
X139187184Y-80259803D01*
X139183674Y-80236142D01*
X139182500Y-80212250D01*
X139182500Y-79299750D01*
X139183674Y-79275858D01*
X139187184Y-79252197D01*
X139192996Y-79228993D01*
X139201054Y-79206471D01*
X139211282Y-79184847D01*
X139223579Y-79164330D01*
X139237829Y-79145117D01*
X139253893Y-79127393D01*
X139271617Y-79111329D01*
X139290830Y-79097079D01*
X139311347Y-79084782D01*
X139332971Y-79074554D01*
X139355493Y-79066496D01*
X139378697Y-79060684D01*
X139402358Y-79057174D01*
X139426250Y-79056000D01*
X139913750Y-79056000D01*
X139937642Y-79057174D01*
X139937642Y-79057174D01*
G37*
D12*
X139670000Y-79756000D03*
D11*
G36*
X138062642Y-73977174D02*
G01*
X138086303Y-73980684D01*
X138109507Y-73986496D01*
X138132029Y-73994554D01*
X138153653Y-74004782D01*
X138174170Y-74017079D01*
X138193383Y-74031329D01*
X138211107Y-74047393D01*
X138227171Y-74065117D01*
X138241421Y-74084330D01*
X138253718Y-74104847D01*
X138263946Y-74126471D01*
X138272004Y-74148993D01*
X138277816Y-74172197D01*
X138281326Y-74195858D01*
X138282500Y-74219750D01*
X138282500Y-75132250D01*
X138281326Y-75156142D01*
X138277816Y-75179803D01*
X138272004Y-75203007D01*
X138263946Y-75225529D01*
X138253718Y-75247153D01*
X138241421Y-75267670D01*
X138227171Y-75286883D01*
X138211107Y-75304607D01*
X138193383Y-75320671D01*
X138174170Y-75334921D01*
X138153653Y-75347218D01*
X138132029Y-75357446D01*
X138109507Y-75365504D01*
X138086303Y-75371316D01*
X138062642Y-75374826D01*
X138038750Y-75376000D01*
X137551250Y-75376000D01*
X137527358Y-75374826D01*
X137503697Y-75371316D01*
X137480493Y-75365504D01*
X137457971Y-75357446D01*
X137436347Y-75347218D01*
X137415830Y-75334921D01*
X137396617Y-75320671D01*
X137378893Y-75304607D01*
X137362829Y-75286883D01*
X137348579Y-75267670D01*
X137336282Y-75247153D01*
X137326054Y-75225529D01*
X137317996Y-75203007D01*
X137312184Y-75179803D01*
X137308674Y-75156142D01*
X137307500Y-75132250D01*
X137307500Y-74219750D01*
X137308674Y-74195858D01*
X137312184Y-74172197D01*
X137317996Y-74148993D01*
X137326054Y-74126471D01*
X137336282Y-74104847D01*
X137348579Y-74084330D01*
X137362829Y-74065117D01*
X137378893Y-74047393D01*
X137396617Y-74031329D01*
X137415830Y-74017079D01*
X137436347Y-74004782D01*
X137457971Y-73994554D01*
X137480493Y-73986496D01*
X137503697Y-73980684D01*
X137527358Y-73977174D01*
X137551250Y-73976000D01*
X138038750Y-73976000D01*
X138062642Y-73977174D01*
X138062642Y-73977174D01*
G37*
D12*
X137795000Y-74676000D03*
D11*
G36*
X139937642Y-73977174D02*
G01*
X139961303Y-73980684D01*
X139984507Y-73986496D01*
X140007029Y-73994554D01*
X140028653Y-74004782D01*
X140049170Y-74017079D01*
X140068383Y-74031329D01*
X140086107Y-74047393D01*
X140102171Y-74065117D01*
X140116421Y-74084330D01*
X140128718Y-74104847D01*
X140138946Y-74126471D01*
X140147004Y-74148993D01*
X140152816Y-74172197D01*
X140156326Y-74195858D01*
X140157500Y-74219750D01*
X140157500Y-75132250D01*
X140156326Y-75156142D01*
X140152816Y-75179803D01*
X140147004Y-75203007D01*
X140138946Y-75225529D01*
X140128718Y-75247153D01*
X140116421Y-75267670D01*
X140102171Y-75286883D01*
X140086107Y-75304607D01*
X140068383Y-75320671D01*
X140049170Y-75334921D01*
X140028653Y-75347218D01*
X140007029Y-75357446D01*
X139984507Y-75365504D01*
X139961303Y-75371316D01*
X139937642Y-75374826D01*
X139913750Y-75376000D01*
X139426250Y-75376000D01*
X139402358Y-75374826D01*
X139378697Y-75371316D01*
X139355493Y-75365504D01*
X139332971Y-75357446D01*
X139311347Y-75347218D01*
X139290830Y-75334921D01*
X139271617Y-75320671D01*
X139253893Y-75304607D01*
X139237829Y-75286883D01*
X139223579Y-75267670D01*
X139211282Y-75247153D01*
X139201054Y-75225529D01*
X139192996Y-75203007D01*
X139187184Y-75179803D01*
X139183674Y-75156142D01*
X139182500Y-75132250D01*
X139182500Y-74219750D01*
X139183674Y-74195858D01*
X139187184Y-74172197D01*
X139192996Y-74148993D01*
X139201054Y-74126471D01*
X139211282Y-74104847D01*
X139223579Y-74084330D01*
X139237829Y-74065117D01*
X139253893Y-74047393D01*
X139271617Y-74031329D01*
X139290830Y-74017079D01*
X139311347Y-74004782D01*
X139332971Y-73994554D01*
X139355493Y-73986496D01*
X139378697Y-73980684D01*
X139402358Y-73977174D01*
X139426250Y-73976000D01*
X139913750Y-73976000D01*
X139937642Y-73977174D01*
X139937642Y-73977174D01*
G37*
D12*
X139670000Y-74676000D03*
D11*
G36*
X138062642Y-68897174D02*
G01*
X138086303Y-68900684D01*
X138109507Y-68906496D01*
X138132029Y-68914554D01*
X138153653Y-68924782D01*
X138174170Y-68937079D01*
X138193383Y-68951329D01*
X138211107Y-68967393D01*
X138227171Y-68985117D01*
X138241421Y-69004330D01*
X138253718Y-69024847D01*
X138263946Y-69046471D01*
X138272004Y-69068993D01*
X138277816Y-69092197D01*
X138281326Y-69115858D01*
X138282500Y-69139750D01*
X138282500Y-70052250D01*
X138281326Y-70076142D01*
X138277816Y-70099803D01*
X138272004Y-70123007D01*
X138263946Y-70145529D01*
X138253718Y-70167153D01*
X138241421Y-70187670D01*
X138227171Y-70206883D01*
X138211107Y-70224607D01*
X138193383Y-70240671D01*
X138174170Y-70254921D01*
X138153653Y-70267218D01*
X138132029Y-70277446D01*
X138109507Y-70285504D01*
X138086303Y-70291316D01*
X138062642Y-70294826D01*
X138038750Y-70296000D01*
X137551250Y-70296000D01*
X137527358Y-70294826D01*
X137503697Y-70291316D01*
X137480493Y-70285504D01*
X137457971Y-70277446D01*
X137436347Y-70267218D01*
X137415830Y-70254921D01*
X137396617Y-70240671D01*
X137378893Y-70224607D01*
X137362829Y-70206883D01*
X137348579Y-70187670D01*
X137336282Y-70167153D01*
X137326054Y-70145529D01*
X137317996Y-70123007D01*
X137312184Y-70099803D01*
X137308674Y-70076142D01*
X137307500Y-70052250D01*
X137307500Y-69139750D01*
X137308674Y-69115858D01*
X137312184Y-69092197D01*
X137317996Y-69068993D01*
X137326054Y-69046471D01*
X137336282Y-69024847D01*
X137348579Y-69004330D01*
X137362829Y-68985117D01*
X137378893Y-68967393D01*
X137396617Y-68951329D01*
X137415830Y-68937079D01*
X137436347Y-68924782D01*
X137457971Y-68914554D01*
X137480493Y-68906496D01*
X137503697Y-68900684D01*
X137527358Y-68897174D01*
X137551250Y-68896000D01*
X138038750Y-68896000D01*
X138062642Y-68897174D01*
X138062642Y-68897174D01*
G37*
D12*
X137795000Y-69596000D03*
D11*
G36*
X139937642Y-68897174D02*
G01*
X139961303Y-68900684D01*
X139984507Y-68906496D01*
X140007029Y-68914554D01*
X140028653Y-68924782D01*
X140049170Y-68937079D01*
X140068383Y-68951329D01*
X140086107Y-68967393D01*
X140102171Y-68985117D01*
X140116421Y-69004330D01*
X140128718Y-69024847D01*
X140138946Y-69046471D01*
X140147004Y-69068993D01*
X140152816Y-69092197D01*
X140156326Y-69115858D01*
X140157500Y-69139750D01*
X140157500Y-70052250D01*
X140156326Y-70076142D01*
X140152816Y-70099803D01*
X140147004Y-70123007D01*
X140138946Y-70145529D01*
X140128718Y-70167153D01*
X140116421Y-70187670D01*
X140102171Y-70206883D01*
X140086107Y-70224607D01*
X140068383Y-70240671D01*
X140049170Y-70254921D01*
X140028653Y-70267218D01*
X140007029Y-70277446D01*
X139984507Y-70285504D01*
X139961303Y-70291316D01*
X139937642Y-70294826D01*
X139913750Y-70296000D01*
X139426250Y-70296000D01*
X139402358Y-70294826D01*
X139378697Y-70291316D01*
X139355493Y-70285504D01*
X139332971Y-70277446D01*
X139311347Y-70267218D01*
X139290830Y-70254921D01*
X139271617Y-70240671D01*
X139253893Y-70224607D01*
X139237829Y-70206883D01*
X139223579Y-70187670D01*
X139211282Y-70167153D01*
X139201054Y-70145529D01*
X139192996Y-70123007D01*
X139187184Y-70099803D01*
X139183674Y-70076142D01*
X139182500Y-70052250D01*
X139182500Y-69139750D01*
X139183674Y-69115858D01*
X139187184Y-69092197D01*
X139192996Y-69068993D01*
X139201054Y-69046471D01*
X139211282Y-69024847D01*
X139223579Y-69004330D01*
X139237829Y-68985117D01*
X139253893Y-68967393D01*
X139271617Y-68951329D01*
X139290830Y-68937079D01*
X139311347Y-68924782D01*
X139332971Y-68914554D01*
X139355493Y-68906496D01*
X139378697Y-68900684D01*
X139402358Y-68897174D01*
X139426250Y-68896000D01*
X139913750Y-68896000D01*
X139937642Y-68897174D01*
X139937642Y-68897174D01*
G37*
D12*
X139670000Y-69596000D03*
D11*
G36*
X144117142Y-92145174D02*
G01*
X144140803Y-92148684D01*
X144164007Y-92154496D01*
X144186529Y-92162554D01*
X144208153Y-92172782D01*
X144228670Y-92185079D01*
X144247883Y-92199329D01*
X144265607Y-92215393D01*
X144281671Y-92233117D01*
X144295921Y-92252330D01*
X144308218Y-92272847D01*
X144318446Y-92294471D01*
X144326504Y-92316993D01*
X144332316Y-92340197D01*
X144335826Y-92363858D01*
X144337000Y-92387750D01*
X144337000Y-92875250D01*
X144335826Y-92899142D01*
X144332316Y-92922803D01*
X144326504Y-92946007D01*
X144318446Y-92968529D01*
X144308218Y-92990153D01*
X144295921Y-93010670D01*
X144281671Y-93029883D01*
X144265607Y-93047607D01*
X144247883Y-93063671D01*
X144228670Y-93077921D01*
X144208153Y-93090218D01*
X144186529Y-93100446D01*
X144164007Y-93108504D01*
X144140803Y-93114316D01*
X144117142Y-93117826D01*
X144093250Y-93119000D01*
X143180750Y-93119000D01*
X143156858Y-93117826D01*
X143133197Y-93114316D01*
X143109993Y-93108504D01*
X143087471Y-93100446D01*
X143065847Y-93090218D01*
X143045330Y-93077921D01*
X143026117Y-93063671D01*
X143008393Y-93047607D01*
X142992329Y-93029883D01*
X142978079Y-93010670D01*
X142965782Y-92990153D01*
X142955554Y-92968529D01*
X142947496Y-92946007D01*
X142941684Y-92922803D01*
X142938174Y-92899142D01*
X142937000Y-92875250D01*
X142937000Y-92387750D01*
X142938174Y-92363858D01*
X142941684Y-92340197D01*
X142947496Y-92316993D01*
X142955554Y-92294471D01*
X142965782Y-92272847D01*
X142978079Y-92252330D01*
X142992329Y-92233117D01*
X143008393Y-92215393D01*
X143026117Y-92199329D01*
X143045330Y-92185079D01*
X143065847Y-92172782D01*
X143087471Y-92162554D01*
X143109993Y-92154496D01*
X143133197Y-92148684D01*
X143156858Y-92145174D01*
X143180750Y-92144000D01*
X144093250Y-92144000D01*
X144117142Y-92145174D01*
X144117142Y-92145174D01*
G37*
D12*
X143637000Y-92631500D03*
D11*
G36*
X144117142Y-90270174D02*
G01*
X144140803Y-90273684D01*
X144164007Y-90279496D01*
X144186529Y-90287554D01*
X144208153Y-90297782D01*
X144228670Y-90310079D01*
X144247883Y-90324329D01*
X144265607Y-90340393D01*
X144281671Y-90358117D01*
X144295921Y-90377330D01*
X144308218Y-90397847D01*
X144318446Y-90419471D01*
X144326504Y-90441993D01*
X144332316Y-90465197D01*
X144335826Y-90488858D01*
X144337000Y-90512750D01*
X144337000Y-91000250D01*
X144335826Y-91024142D01*
X144332316Y-91047803D01*
X144326504Y-91071007D01*
X144318446Y-91093529D01*
X144308218Y-91115153D01*
X144295921Y-91135670D01*
X144281671Y-91154883D01*
X144265607Y-91172607D01*
X144247883Y-91188671D01*
X144228670Y-91202921D01*
X144208153Y-91215218D01*
X144186529Y-91225446D01*
X144164007Y-91233504D01*
X144140803Y-91239316D01*
X144117142Y-91242826D01*
X144093250Y-91244000D01*
X143180750Y-91244000D01*
X143156858Y-91242826D01*
X143133197Y-91239316D01*
X143109993Y-91233504D01*
X143087471Y-91225446D01*
X143065847Y-91215218D01*
X143045330Y-91202921D01*
X143026117Y-91188671D01*
X143008393Y-91172607D01*
X142992329Y-91154883D01*
X142978079Y-91135670D01*
X142965782Y-91115153D01*
X142955554Y-91093529D01*
X142947496Y-91071007D01*
X142941684Y-91047803D01*
X142938174Y-91024142D01*
X142937000Y-91000250D01*
X142937000Y-90512750D01*
X142938174Y-90488858D01*
X142941684Y-90465197D01*
X142947496Y-90441993D01*
X142955554Y-90419471D01*
X142965782Y-90397847D01*
X142978079Y-90377330D01*
X142992329Y-90358117D01*
X143008393Y-90340393D01*
X143026117Y-90324329D01*
X143045330Y-90310079D01*
X143065847Y-90297782D01*
X143087471Y-90287554D01*
X143109993Y-90279496D01*
X143133197Y-90273684D01*
X143156858Y-90270174D01*
X143180750Y-90269000D01*
X144093250Y-90269000D01*
X144117142Y-90270174D01*
X144117142Y-90270174D01*
G37*
D12*
X143637000Y-90756500D03*
D11*
G36*
X139037142Y-92223674D02*
G01*
X139060803Y-92227184D01*
X139084007Y-92232996D01*
X139106529Y-92241054D01*
X139128153Y-92251282D01*
X139148670Y-92263579D01*
X139167883Y-92277829D01*
X139185607Y-92293893D01*
X139201671Y-92311617D01*
X139215921Y-92330830D01*
X139228218Y-92351347D01*
X139238446Y-92372971D01*
X139246504Y-92395493D01*
X139252316Y-92418697D01*
X139255826Y-92442358D01*
X139257000Y-92466250D01*
X139257000Y-92953750D01*
X139255826Y-92977642D01*
X139252316Y-93001303D01*
X139246504Y-93024507D01*
X139238446Y-93047029D01*
X139228218Y-93068653D01*
X139215921Y-93089170D01*
X139201671Y-93108383D01*
X139185607Y-93126107D01*
X139167883Y-93142171D01*
X139148670Y-93156421D01*
X139128153Y-93168718D01*
X139106529Y-93178946D01*
X139084007Y-93187004D01*
X139060803Y-93192816D01*
X139037142Y-93196326D01*
X139013250Y-93197500D01*
X138100750Y-93197500D01*
X138076858Y-93196326D01*
X138053197Y-93192816D01*
X138029993Y-93187004D01*
X138007471Y-93178946D01*
X137985847Y-93168718D01*
X137965330Y-93156421D01*
X137946117Y-93142171D01*
X137928393Y-93126107D01*
X137912329Y-93108383D01*
X137898079Y-93089170D01*
X137885782Y-93068653D01*
X137875554Y-93047029D01*
X137867496Y-93024507D01*
X137861684Y-93001303D01*
X137858174Y-92977642D01*
X137857000Y-92953750D01*
X137857000Y-92466250D01*
X137858174Y-92442358D01*
X137861684Y-92418697D01*
X137867496Y-92395493D01*
X137875554Y-92372971D01*
X137885782Y-92351347D01*
X137898079Y-92330830D01*
X137912329Y-92311617D01*
X137928393Y-92293893D01*
X137946117Y-92277829D01*
X137965330Y-92263579D01*
X137985847Y-92251282D01*
X138007471Y-92241054D01*
X138029993Y-92232996D01*
X138053197Y-92227184D01*
X138076858Y-92223674D01*
X138100750Y-92222500D01*
X139013250Y-92222500D01*
X139037142Y-92223674D01*
X139037142Y-92223674D01*
G37*
D12*
X138557000Y-92710000D03*
D11*
G36*
X139037142Y-90348674D02*
G01*
X139060803Y-90352184D01*
X139084007Y-90357996D01*
X139106529Y-90366054D01*
X139128153Y-90376282D01*
X139148670Y-90388579D01*
X139167883Y-90402829D01*
X139185607Y-90418893D01*
X139201671Y-90436617D01*
X139215921Y-90455830D01*
X139228218Y-90476347D01*
X139238446Y-90497971D01*
X139246504Y-90520493D01*
X139252316Y-90543697D01*
X139255826Y-90567358D01*
X139257000Y-90591250D01*
X139257000Y-91078750D01*
X139255826Y-91102642D01*
X139252316Y-91126303D01*
X139246504Y-91149507D01*
X139238446Y-91172029D01*
X139228218Y-91193653D01*
X139215921Y-91214170D01*
X139201671Y-91233383D01*
X139185607Y-91251107D01*
X139167883Y-91267171D01*
X139148670Y-91281421D01*
X139128153Y-91293718D01*
X139106529Y-91303946D01*
X139084007Y-91312004D01*
X139060803Y-91317816D01*
X139037142Y-91321326D01*
X139013250Y-91322500D01*
X138100750Y-91322500D01*
X138076858Y-91321326D01*
X138053197Y-91317816D01*
X138029993Y-91312004D01*
X138007471Y-91303946D01*
X137985847Y-91293718D01*
X137965330Y-91281421D01*
X137946117Y-91267171D01*
X137928393Y-91251107D01*
X137912329Y-91233383D01*
X137898079Y-91214170D01*
X137885782Y-91193653D01*
X137875554Y-91172029D01*
X137867496Y-91149507D01*
X137861684Y-91126303D01*
X137858174Y-91102642D01*
X137857000Y-91078750D01*
X137857000Y-90591250D01*
X137858174Y-90567358D01*
X137861684Y-90543697D01*
X137867496Y-90520493D01*
X137875554Y-90497971D01*
X137885782Y-90476347D01*
X137898079Y-90455830D01*
X137912329Y-90436617D01*
X137928393Y-90418893D01*
X137946117Y-90402829D01*
X137965330Y-90388579D01*
X137985847Y-90376282D01*
X138007471Y-90366054D01*
X138029993Y-90357996D01*
X138053197Y-90352184D01*
X138076858Y-90348674D01*
X138100750Y-90347500D01*
X139013250Y-90347500D01*
X139037142Y-90348674D01*
X139037142Y-90348674D01*
G37*
D12*
X138557000Y-90835000D03*
D11*
G36*
X112240142Y-67585674D02*
G01*
X112263803Y-67589184D01*
X112287007Y-67594996D01*
X112309529Y-67603054D01*
X112331153Y-67613282D01*
X112351670Y-67625579D01*
X112370883Y-67639829D01*
X112388607Y-67655893D01*
X112404671Y-67673617D01*
X112418921Y-67692830D01*
X112431218Y-67713347D01*
X112441446Y-67734971D01*
X112449504Y-67757493D01*
X112455316Y-67780697D01*
X112458826Y-67804358D01*
X112460000Y-67828250D01*
X112460000Y-68315750D01*
X112458826Y-68339642D01*
X112455316Y-68363303D01*
X112449504Y-68386507D01*
X112441446Y-68409029D01*
X112431218Y-68430653D01*
X112418921Y-68451170D01*
X112404671Y-68470383D01*
X112388607Y-68488107D01*
X112370883Y-68504171D01*
X112351670Y-68518421D01*
X112331153Y-68530718D01*
X112309529Y-68540946D01*
X112287007Y-68549004D01*
X112263803Y-68554816D01*
X112240142Y-68558326D01*
X112216250Y-68559500D01*
X111303750Y-68559500D01*
X111279858Y-68558326D01*
X111256197Y-68554816D01*
X111232993Y-68549004D01*
X111210471Y-68540946D01*
X111188847Y-68530718D01*
X111168330Y-68518421D01*
X111149117Y-68504171D01*
X111131393Y-68488107D01*
X111115329Y-68470383D01*
X111101079Y-68451170D01*
X111088782Y-68430653D01*
X111078554Y-68409029D01*
X111070496Y-68386507D01*
X111064684Y-68363303D01*
X111061174Y-68339642D01*
X111060000Y-68315750D01*
X111060000Y-67828250D01*
X111061174Y-67804358D01*
X111064684Y-67780697D01*
X111070496Y-67757493D01*
X111078554Y-67734971D01*
X111088782Y-67713347D01*
X111101079Y-67692830D01*
X111115329Y-67673617D01*
X111131393Y-67655893D01*
X111149117Y-67639829D01*
X111168330Y-67625579D01*
X111188847Y-67613282D01*
X111210471Y-67603054D01*
X111232993Y-67594996D01*
X111256197Y-67589184D01*
X111279858Y-67585674D01*
X111303750Y-67584500D01*
X112216250Y-67584500D01*
X112240142Y-67585674D01*
X112240142Y-67585674D01*
G37*
D12*
X111760000Y-68072000D03*
D11*
G36*
X112240142Y-65710674D02*
G01*
X112263803Y-65714184D01*
X112287007Y-65719996D01*
X112309529Y-65728054D01*
X112331153Y-65738282D01*
X112351670Y-65750579D01*
X112370883Y-65764829D01*
X112388607Y-65780893D01*
X112404671Y-65798617D01*
X112418921Y-65817830D01*
X112431218Y-65838347D01*
X112441446Y-65859971D01*
X112449504Y-65882493D01*
X112455316Y-65905697D01*
X112458826Y-65929358D01*
X112460000Y-65953250D01*
X112460000Y-66440750D01*
X112458826Y-66464642D01*
X112455316Y-66488303D01*
X112449504Y-66511507D01*
X112441446Y-66534029D01*
X112431218Y-66555653D01*
X112418921Y-66576170D01*
X112404671Y-66595383D01*
X112388607Y-66613107D01*
X112370883Y-66629171D01*
X112351670Y-66643421D01*
X112331153Y-66655718D01*
X112309529Y-66665946D01*
X112287007Y-66674004D01*
X112263803Y-66679816D01*
X112240142Y-66683326D01*
X112216250Y-66684500D01*
X111303750Y-66684500D01*
X111279858Y-66683326D01*
X111256197Y-66679816D01*
X111232993Y-66674004D01*
X111210471Y-66665946D01*
X111188847Y-66655718D01*
X111168330Y-66643421D01*
X111149117Y-66629171D01*
X111131393Y-66613107D01*
X111115329Y-66595383D01*
X111101079Y-66576170D01*
X111088782Y-66555653D01*
X111078554Y-66534029D01*
X111070496Y-66511507D01*
X111064684Y-66488303D01*
X111061174Y-66464642D01*
X111060000Y-66440750D01*
X111060000Y-65953250D01*
X111061174Y-65929358D01*
X111064684Y-65905697D01*
X111070496Y-65882493D01*
X111078554Y-65859971D01*
X111088782Y-65838347D01*
X111101079Y-65817830D01*
X111115329Y-65798617D01*
X111131393Y-65780893D01*
X111149117Y-65764829D01*
X111168330Y-65750579D01*
X111188847Y-65738282D01*
X111210471Y-65728054D01*
X111232993Y-65719996D01*
X111256197Y-65714184D01*
X111279858Y-65710674D01*
X111303750Y-65709500D01*
X112216250Y-65709500D01*
X112240142Y-65710674D01*
X112240142Y-65710674D01*
G37*
D12*
X111760000Y-66197000D03*
D11*
G36*
X105961642Y-75755174D02*
G01*
X105985303Y-75758684D01*
X106008507Y-75764496D01*
X106031029Y-75772554D01*
X106052653Y-75782782D01*
X106073170Y-75795079D01*
X106092383Y-75809329D01*
X106110107Y-75825393D01*
X106126171Y-75843117D01*
X106140421Y-75862330D01*
X106152718Y-75882847D01*
X106162946Y-75904471D01*
X106171004Y-75926993D01*
X106176816Y-75950197D01*
X106180326Y-75973858D01*
X106181500Y-75997750D01*
X106181500Y-76910250D01*
X106180326Y-76934142D01*
X106176816Y-76957803D01*
X106171004Y-76981007D01*
X106162946Y-77003529D01*
X106152718Y-77025153D01*
X106140421Y-77045670D01*
X106126171Y-77064883D01*
X106110107Y-77082607D01*
X106092383Y-77098671D01*
X106073170Y-77112921D01*
X106052653Y-77125218D01*
X106031029Y-77135446D01*
X106008507Y-77143504D01*
X105985303Y-77149316D01*
X105961642Y-77152826D01*
X105937750Y-77154000D01*
X105450250Y-77154000D01*
X105426358Y-77152826D01*
X105402697Y-77149316D01*
X105379493Y-77143504D01*
X105356971Y-77135446D01*
X105335347Y-77125218D01*
X105314830Y-77112921D01*
X105295617Y-77098671D01*
X105277893Y-77082607D01*
X105261829Y-77064883D01*
X105247579Y-77045670D01*
X105235282Y-77025153D01*
X105225054Y-77003529D01*
X105216996Y-76981007D01*
X105211184Y-76957803D01*
X105207674Y-76934142D01*
X105206500Y-76910250D01*
X105206500Y-75997750D01*
X105207674Y-75973858D01*
X105211184Y-75950197D01*
X105216996Y-75926993D01*
X105225054Y-75904471D01*
X105235282Y-75882847D01*
X105247579Y-75862330D01*
X105261829Y-75843117D01*
X105277893Y-75825393D01*
X105295617Y-75809329D01*
X105314830Y-75795079D01*
X105335347Y-75782782D01*
X105356971Y-75772554D01*
X105379493Y-75764496D01*
X105402697Y-75758684D01*
X105426358Y-75755174D01*
X105450250Y-75754000D01*
X105937750Y-75754000D01*
X105961642Y-75755174D01*
X105961642Y-75755174D01*
G37*
D12*
X105694000Y-76454000D03*
D11*
G36*
X107836642Y-75755174D02*
G01*
X107860303Y-75758684D01*
X107883507Y-75764496D01*
X107906029Y-75772554D01*
X107927653Y-75782782D01*
X107948170Y-75795079D01*
X107967383Y-75809329D01*
X107985107Y-75825393D01*
X108001171Y-75843117D01*
X108015421Y-75862330D01*
X108027718Y-75882847D01*
X108037946Y-75904471D01*
X108046004Y-75926993D01*
X108051816Y-75950197D01*
X108055326Y-75973858D01*
X108056500Y-75997750D01*
X108056500Y-76910250D01*
X108055326Y-76934142D01*
X108051816Y-76957803D01*
X108046004Y-76981007D01*
X108037946Y-77003529D01*
X108027718Y-77025153D01*
X108015421Y-77045670D01*
X108001171Y-77064883D01*
X107985107Y-77082607D01*
X107967383Y-77098671D01*
X107948170Y-77112921D01*
X107927653Y-77125218D01*
X107906029Y-77135446D01*
X107883507Y-77143504D01*
X107860303Y-77149316D01*
X107836642Y-77152826D01*
X107812750Y-77154000D01*
X107325250Y-77154000D01*
X107301358Y-77152826D01*
X107277697Y-77149316D01*
X107254493Y-77143504D01*
X107231971Y-77135446D01*
X107210347Y-77125218D01*
X107189830Y-77112921D01*
X107170617Y-77098671D01*
X107152893Y-77082607D01*
X107136829Y-77064883D01*
X107122579Y-77045670D01*
X107110282Y-77025153D01*
X107100054Y-77003529D01*
X107091996Y-76981007D01*
X107086184Y-76957803D01*
X107082674Y-76934142D01*
X107081500Y-76910250D01*
X107081500Y-75997750D01*
X107082674Y-75973858D01*
X107086184Y-75950197D01*
X107091996Y-75926993D01*
X107100054Y-75904471D01*
X107110282Y-75882847D01*
X107122579Y-75862330D01*
X107136829Y-75843117D01*
X107152893Y-75825393D01*
X107170617Y-75809329D01*
X107189830Y-75795079D01*
X107210347Y-75782782D01*
X107231971Y-75772554D01*
X107254493Y-75764496D01*
X107277697Y-75758684D01*
X107301358Y-75755174D01*
X107325250Y-75754000D01*
X107812750Y-75754000D01*
X107836642Y-75755174D01*
X107836642Y-75755174D01*
G37*
D12*
X107569000Y-76454000D03*
D13*
X98933000Y-106553000D03*
D14*
X101473000Y-106553000D03*
D13*
X155575000Y-55118000D03*
X155575000Y-57658000D03*
X155575000Y-60198000D03*
D14*
X155575000Y-62738000D03*
D13*
X137160000Y-60198000D03*
X134620000Y-60198000D03*
X137160000Y-57658000D03*
X134620000Y-57658000D03*
X137160000Y-55118000D03*
D14*
X134620000Y-55118000D03*
D13*
X136017000Y-106426000D03*
X138557000Y-106426000D03*
X141097000Y-106426000D03*
D14*
X143637000Y-106426000D03*
D13*
X155321000Y-92329000D03*
X155321000Y-89789000D03*
X155321000Y-87249000D03*
X155321000Y-84709000D03*
X155321000Y-82169000D03*
X155321000Y-79629000D03*
X155321000Y-77089000D03*
X155321000Y-74549000D03*
X155321000Y-72009000D03*
D14*
X155321000Y-69469000D03*
D11*
G36*
X144117142Y-97225174D02*
G01*
X144140803Y-97228684D01*
X144164007Y-97234496D01*
X144186529Y-97242554D01*
X144208153Y-97252782D01*
X144228670Y-97265079D01*
X144247883Y-97279329D01*
X144265607Y-97295393D01*
X144281671Y-97313117D01*
X144295921Y-97332330D01*
X144308218Y-97352847D01*
X144318446Y-97374471D01*
X144326504Y-97396993D01*
X144332316Y-97420197D01*
X144335826Y-97443858D01*
X144337000Y-97467750D01*
X144337000Y-97955250D01*
X144335826Y-97979142D01*
X144332316Y-98002803D01*
X144326504Y-98026007D01*
X144318446Y-98048529D01*
X144308218Y-98070153D01*
X144295921Y-98090670D01*
X144281671Y-98109883D01*
X144265607Y-98127607D01*
X144247883Y-98143671D01*
X144228670Y-98157921D01*
X144208153Y-98170218D01*
X144186529Y-98180446D01*
X144164007Y-98188504D01*
X144140803Y-98194316D01*
X144117142Y-98197826D01*
X144093250Y-98199000D01*
X143180750Y-98199000D01*
X143156858Y-98197826D01*
X143133197Y-98194316D01*
X143109993Y-98188504D01*
X143087471Y-98180446D01*
X143065847Y-98170218D01*
X143045330Y-98157921D01*
X143026117Y-98143671D01*
X143008393Y-98127607D01*
X142992329Y-98109883D01*
X142978079Y-98090670D01*
X142965782Y-98070153D01*
X142955554Y-98048529D01*
X142947496Y-98026007D01*
X142941684Y-98002803D01*
X142938174Y-97979142D01*
X142937000Y-97955250D01*
X142937000Y-97467750D01*
X142938174Y-97443858D01*
X142941684Y-97420197D01*
X142947496Y-97396993D01*
X142955554Y-97374471D01*
X142965782Y-97352847D01*
X142978079Y-97332330D01*
X142992329Y-97313117D01*
X143008393Y-97295393D01*
X143026117Y-97279329D01*
X143045330Y-97265079D01*
X143065847Y-97252782D01*
X143087471Y-97242554D01*
X143109993Y-97234496D01*
X143133197Y-97228684D01*
X143156858Y-97225174D01*
X143180750Y-97224000D01*
X144093250Y-97224000D01*
X144117142Y-97225174D01*
X144117142Y-97225174D01*
G37*
D12*
X143637000Y-97711500D03*
D11*
G36*
X144117142Y-95350174D02*
G01*
X144140803Y-95353684D01*
X144164007Y-95359496D01*
X144186529Y-95367554D01*
X144208153Y-95377782D01*
X144228670Y-95390079D01*
X144247883Y-95404329D01*
X144265607Y-95420393D01*
X144281671Y-95438117D01*
X144295921Y-95457330D01*
X144308218Y-95477847D01*
X144318446Y-95499471D01*
X144326504Y-95521993D01*
X144332316Y-95545197D01*
X144335826Y-95568858D01*
X144337000Y-95592750D01*
X144337000Y-96080250D01*
X144335826Y-96104142D01*
X144332316Y-96127803D01*
X144326504Y-96151007D01*
X144318446Y-96173529D01*
X144308218Y-96195153D01*
X144295921Y-96215670D01*
X144281671Y-96234883D01*
X144265607Y-96252607D01*
X144247883Y-96268671D01*
X144228670Y-96282921D01*
X144208153Y-96295218D01*
X144186529Y-96305446D01*
X144164007Y-96313504D01*
X144140803Y-96319316D01*
X144117142Y-96322826D01*
X144093250Y-96324000D01*
X143180750Y-96324000D01*
X143156858Y-96322826D01*
X143133197Y-96319316D01*
X143109993Y-96313504D01*
X143087471Y-96305446D01*
X143065847Y-96295218D01*
X143045330Y-96282921D01*
X143026117Y-96268671D01*
X143008393Y-96252607D01*
X142992329Y-96234883D01*
X142978079Y-96215670D01*
X142965782Y-96195153D01*
X142955554Y-96173529D01*
X142947496Y-96151007D01*
X142941684Y-96127803D01*
X142938174Y-96104142D01*
X142937000Y-96080250D01*
X142937000Y-95592750D01*
X142938174Y-95568858D01*
X142941684Y-95545197D01*
X142947496Y-95521993D01*
X142955554Y-95499471D01*
X142965782Y-95477847D01*
X142978079Y-95457330D01*
X142992329Y-95438117D01*
X143008393Y-95420393D01*
X143026117Y-95404329D01*
X143045330Y-95390079D01*
X143065847Y-95377782D01*
X143087471Y-95367554D01*
X143109993Y-95359496D01*
X143133197Y-95353684D01*
X143156858Y-95350174D01*
X143180750Y-95349000D01*
X144093250Y-95349000D01*
X144117142Y-95350174D01*
X144117142Y-95350174D01*
G37*
D12*
X143637000Y-95836500D03*
D11*
G36*
X139037142Y-97303674D02*
G01*
X139060803Y-97307184D01*
X139084007Y-97312996D01*
X139106529Y-97321054D01*
X139128153Y-97331282D01*
X139148670Y-97343579D01*
X139167883Y-97357829D01*
X139185607Y-97373893D01*
X139201671Y-97391617D01*
X139215921Y-97410830D01*
X139228218Y-97431347D01*
X139238446Y-97452971D01*
X139246504Y-97475493D01*
X139252316Y-97498697D01*
X139255826Y-97522358D01*
X139257000Y-97546250D01*
X139257000Y-98033750D01*
X139255826Y-98057642D01*
X139252316Y-98081303D01*
X139246504Y-98104507D01*
X139238446Y-98127029D01*
X139228218Y-98148653D01*
X139215921Y-98169170D01*
X139201671Y-98188383D01*
X139185607Y-98206107D01*
X139167883Y-98222171D01*
X139148670Y-98236421D01*
X139128153Y-98248718D01*
X139106529Y-98258946D01*
X139084007Y-98267004D01*
X139060803Y-98272816D01*
X139037142Y-98276326D01*
X139013250Y-98277500D01*
X138100750Y-98277500D01*
X138076858Y-98276326D01*
X138053197Y-98272816D01*
X138029993Y-98267004D01*
X138007471Y-98258946D01*
X137985847Y-98248718D01*
X137965330Y-98236421D01*
X137946117Y-98222171D01*
X137928393Y-98206107D01*
X137912329Y-98188383D01*
X137898079Y-98169170D01*
X137885782Y-98148653D01*
X137875554Y-98127029D01*
X137867496Y-98104507D01*
X137861684Y-98081303D01*
X137858174Y-98057642D01*
X137857000Y-98033750D01*
X137857000Y-97546250D01*
X137858174Y-97522358D01*
X137861684Y-97498697D01*
X137867496Y-97475493D01*
X137875554Y-97452971D01*
X137885782Y-97431347D01*
X137898079Y-97410830D01*
X137912329Y-97391617D01*
X137928393Y-97373893D01*
X137946117Y-97357829D01*
X137965330Y-97343579D01*
X137985847Y-97331282D01*
X138007471Y-97321054D01*
X138029993Y-97312996D01*
X138053197Y-97307184D01*
X138076858Y-97303674D01*
X138100750Y-97302500D01*
X139013250Y-97302500D01*
X139037142Y-97303674D01*
X139037142Y-97303674D01*
G37*
D12*
X138557000Y-97790000D03*
D11*
G36*
X139037142Y-95428674D02*
G01*
X139060803Y-95432184D01*
X139084007Y-95437996D01*
X139106529Y-95446054D01*
X139128153Y-95456282D01*
X139148670Y-95468579D01*
X139167883Y-95482829D01*
X139185607Y-95498893D01*
X139201671Y-95516617D01*
X139215921Y-95535830D01*
X139228218Y-95556347D01*
X139238446Y-95577971D01*
X139246504Y-95600493D01*
X139252316Y-95623697D01*
X139255826Y-95647358D01*
X139257000Y-95671250D01*
X139257000Y-96158750D01*
X139255826Y-96182642D01*
X139252316Y-96206303D01*
X139246504Y-96229507D01*
X139238446Y-96252029D01*
X139228218Y-96273653D01*
X139215921Y-96294170D01*
X139201671Y-96313383D01*
X139185607Y-96331107D01*
X139167883Y-96347171D01*
X139148670Y-96361421D01*
X139128153Y-96373718D01*
X139106529Y-96383946D01*
X139084007Y-96392004D01*
X139060803Y-96397816D01*
X139037142Y-96401326D01*
X139013250Y-96402500D01*
X138100750Y-96402500D01*
X138076858Y-96401326D01*
X138053197Y-96397816D01*
X138029993Y-96392004D01*
X138007471Y-96383946D01*
X137985847Y-96373718D01*
X137965330Y-96361421D01*
X137946117Y-96347171D01*
X137928393Y-96331107D01*
X137912329Y-96313383D01*
X137898079Y-96294170D01*
X137885782Y-96273653D01*
X137875554Y-96252029D01*
X137867496Y-96229507D01*
X137861684Y-96206303D01*
X137858174Y-96182642D01*
X137857000Y-96158750D01*
X137857000Y-95671250D01*
X137858174Y-95647358D01*
X137861684Y-95623697D01*
X137867496Y-95600493D01*
X137875554Y-95577971D01*
X137885782Y-95556347D01*
X137898079Y-95535830D01*
X137912329Y-95516617D01*
X137928393Y-95498893D01*
X137946117Y-95482829D01*
X137965330Y-95468579D01*
X137985847Y-95456282D01*
X138007471Y-95446054D01*
X138029993Y-95437996D01*
X138053197Y-95432184D01*
X138076858Y-95428674D01*
X138100750Y-95427500D01*
X139013250Y-95427500D01*
X139037142Y-95428674D01*
X139037142Y-95428674D01*
G37*
D12*
X138557000Y-95915000D03*
D11*
G36*
X99484642Y-75755174D02*
G01*
X99508303Y-75758684D01*
X99531507Y-75764496D01*
X99554029Y-75772554D01*
X99575653Y-75782782D01*
X99596170Y-75795079D01*
X99615383Y-75809329D01*
X99633107Y-75825393D01*
X99649171Y-75843117D01*
X99663421Y-75862330D01*
X99675718Y-75882847D01*
X99685946Y-75904471D01*
X99694004Y-75926993D01*
X99699816Y-75950197D01*
X99703326Y-75973858D01*
X99704500Y-75997750D01*
X99704500Y-76910250D01*
X99703326Y-76934142D01*
X99699816Y-76957803D01*
X99694004Y-76981007D01*
X99685946Y-77003529D01*
X99675718Y-77025153D01*
X99663421Y-77045670D01*
X99649171Y-77064883D01*
X99633107Y-77082607D01*
X99615383Y-77098671D01*
X99596170Y-77112921D01*
X99575653Y-77125218D01*
X99554029Y-77135446D01*
X99531507Y-77143504D01*
X99508303Y-77149316D01*
X99484642Y-77152826D01*
X99460750Y-77154000D01*
X98973250Y-77154000D01*
X98949358Y-77152826D01*
X98925697Y-77149316D01*
X98902493Y-77143504D01*
X98879971Y-77135446D01*
X98858347Y-77125218D01*
X98837830Y-77112921D01*
X98818617Y-77098671D01*
X98800893Y-77082607D01*
X98784829Y-77064883D01*
X98770579Y-77045670D01*
X98758282Y-77025153D01*
X98748054Y-77003529D01*
X98739996Y-76981007D01*
X98734184Y-76957803D01*
X98730674Y-76934142D01*
X98729500Y-76910250D01*
X98729500Y-75997750D01*
X98730674Y-75973858D01*
X98734184Y-75950197D01*
X98739996Y-75926993D01*
X98748054Y-75904471D01*
X98758282Y-75882847D01*
X98770579Y-75862330D01*
X98784829Y-75843117D01*
X98800893Y-75825393D01*
X98818617Y-75809329D01*
X98837830Y-75795079D01*
X98858347Y-75782782D01*
X98879971Y-75772554D01*
X98902493Y-75764496D01*
X98925697Y-75758684D01*
X98949358Y-75755174D01*
X98973250Y-75754000D01*
X99460750Y-75754000D01*
X99484642Y-75755174D01*
X99484642Y-75755174D01*
G37*
D12*
X99217000Y-76454000D03*
D11*
G36*
X101359642Y-75755174D02*
G01*
X101383303Y-75758684D01*
X101406507Y-75764496D01*
X101429029Y-75772554D01*
X101450653Y-75782782D01*
X101471170Y-75795079D01*
X101490383Y-75809329D01*
X101508107Y-75825393D01*
X101524171Y-75843117D01*
X101538421Y-75862330D01*
X101550718Y-75882847D01*
X101560946Y-75904471D01*
X101569004Y-75926993D01*
X101574816Y-75950197D01*
X101578326Y-75973858D01*
X101579500Y-75997750D01*
X101579500Y-76910250D01*
X101578326Y-76934142D01*
X101574816Y-76957803D01*
X101569004Y-76981007D01*
X101560946Y-77003529D01*
X101550718Y-77025153D01*
X101538421Y-77045670D01*
X101524171Y-77064883D01*
X101508107Y-77082607D01*
X101490383Y-77098671D01*
X101471170Y-77112921D01*
X101450653Y-77125218D01*
X101429029Y-77135446D01*
X101406507Y-77143504D01*
X101383303Y-77149316D01*
X101359642Y-77152826D01*
X101335750Y-77154000D01*
X100848250Y-77154000D01*
X100824358Y-77152826D01*
X100800697Y-77149316D01*
X100777493Y-77143504D01*
X100754971Y-77135446D01*
X100733347Y-77125218D01*
X100712830Y-77112921D01*
X100693617Y-77098671D01*
X100675893Y-77082607D01*
X100659829Y-77064883D01*
X100645579Y-77045670D01*
X100633282Y-77025153D01*
X100623054Y-77003529D01*
X100614996Y-76981007D01*
X100609184Y-76957803D01*
X100605674Y-76934142D01*
X100604500Y-76910250D01*
X100604500Y-75997750D01*
X100605674Y-75973858D01*
X100609184Y-75950197D01*
X100614996Y-75926993D01*
X100623054Y-75904471D01*
X100633282Y-75882847D01*
X100645579Y-75862330D01*
X100659829Y-75843117D01*
X100675893Y-75825393D01*
X100693617Y-75809329D01*
X100712830Y-75795079D01*
X100733347Y-75782782D01*
X100754971Y-75772554D01*
X100777493Y-75764496D01*
X100800697Y-75758684D01*
X100824358Y-75755174D01*
X100848250Y-75754000D01*
X101335750Y-75754000D01*
X101359642Y-75755174D01*
X101359642Y-75755174D01*
G37*
D12*
X101092000Y-76454000D03*
D18*
X134112000Y-86360000D03*
X134112000Y-80899000D03*
X107569000Y-69723000D03*
X107569000Y-65786000D03*
X101219000Y-98044000D03*
X99265500Y-97965500D03*
X135255000Y-69469000D03*
X143256000Y-62230000D03*
X143256000Y-57912000D03*
X141351000Y-97536000D03*
X135509000Y-94488000D03*
X142240000Y-82296000D03*
X135636000Y-82296000D03*
X142113000Y-77089000D03*
X135509000Y-77089000D03*
X141986000Y-72136000D03*
X135382000Y-72136000D03*
X132080000Y-91948000D03*
X132207000Y-65913000D03*
X140970000Y-65913000D03*
X130048000Y-86995000D03*
X129921000Y-57785000D03*
X131191000Y-89535000D03*
D19*
X101092000Y-87630000D02*
X101092000Y-82423000D01*
X101648237Y-81866763D02*
X105204237Y-81866763D01*
X101092000Y-82423000D02*
X101648237Y-81866763D01*
X105204237Y-81866763D02*
X107569000Y-79502000D01*
X107569000Y-79502000D02*
X107569000Y-76454000D01*
X105204237Y-81866763D02*
X105204237Y-83741237D01*
X107061000Y-85598000D02*
X109474000Y-85598000D01*
X105204237Y-83741237D02*
X107061000Y-85598000D01*
X147447000Y-71471000D02*
X151481000Y-71471000D01*
X152019000Y-72009000D02*
X155321000Y-72009000D01*
X151481000Y-71471000D02*
X152019000Y-72009000D01*
X148247000Y-76551000D02*
X148344000Y-76454000D01*
X147447000Y-76551000D02*
X148247000Y-76551000D01*
X148344000Y-76454000D02*
X151130000Y-76454000D01*
X151765000Y-77089000D02*
X155321000Y-77089000D01*
X151130000Y-76454000D02*
X151765000Y-77089000D01*
X151892000Y-82169000D02*
X154118919Y-82169000D01*
X147447000Y-81631000D02*
X151354000Y-81631000D01*
X151354000Y-81631000D02*
X151892000Y-82169000D01*
X154118919Y-82169000D02*
X155321000Y-82169000D01*
X148247000Y-86711000D02*
X148277000Y-86741000D01*
X147447000Y-86711000D02*
X148247000Y-86711000D01*
X148277000Y-86741000D02*
X151638000Y-86741000D01*
X152146000Y-87249000D02*
X155321000Y-87249000D01*
X151638000Y-86741000D02*
X152146000Y-87249000D01*
X143558500Y-90835000D02*
X143637000Y-90756500D01*
X138557000Y-90835000D02*
X143558500Y-90835000D01*
X126421000Y-79756000D02*
X125960000Y-79295000D01*
X131191000Y-79756000D02*
X126421000Y-79756000D01*
X143637000Y-90756500D02*
X147906500Y-90756500D01*
X149479000Y-92329000D02*
X155321000Y-92329000D01*
X147906500Y-90756500D02*
X149479000Y-92329000D01*
X138557000Y-90835000D02*
X134112000Y-86390000D01*
X134112000Y-86390000D02*
X134112000Y-86360000D01*
X132969000Y-79756000D02*
X131191000Y-79756000D01*
X134112000Y-80899000D02*
X132969000Y-79756000D01*
X101473000Y-101805500D02*
X101140500Y-101473000D01*
X101473000Y-106553000D02*
X101473000Y-101805500D01*
X100203000Y-95733000D02*
X100203000Y-94953000D01*
X100203000Y-99735500D02*
X100203000Y-95733000D01*
X101140500Y-100673000D02*
X100203000Y-99735500D01*
X101140500Y-101473000D02*
X101140500Y-100673000D01*
X101696737Y-100916763D02*
X101696737Y-100868263D01*
X101140500Y-101473000D02*
X101696737Y-100916763D01*
X101696737Y-100868263D02*
X102616000Y-99949000D01*
X102616000Y-89154000D02*
X101092000Y-87630000D01*
X102616000Y-99949000D02*
X102616000Y-89154000D01*
X107569000Y-76454000D02*
X107569000Y-69723000D01*
X107569000Y-65786000D02*
X107569000Y-62484000D01*
X107569000Y-62484000D02*
X109093000Y-60960000D01*
X109093000Y-60960000D02*
X111760000Y-60960000D01*
X137160000Y-60198000D02*
X146431000Y-60198000D01*
X148971000Y-57658000D02*
X155575000Y-57658000D01*
X146431000Y-60198000D02*
X148971000Y-57658000D01*
X99265500Y-94965500D02*
X99253000Y-94953000D01*
X98933000Y-101805500D02*
X99265500Y-101473000D01*
X98933000Y-106553000D02*
X98933000Y-101805500D01*
X101153000Y-94953000D02*
X101153000Y-97978000D01*
X101153000Y-97978000D02*
X101219000Y-98044000D01*
X99265500Y-101473000D02*
X99265500Y-97965500D01*
X99265500Y-97965500D02*
X99265500Y-94965500D01*
X99253000Y-87666000D02*
X99217000Y-87630000D01*
X99253000Y-92753000D02*
X99253000Y-87666000D01*
X99217000Y-87630000D02*
X99217000Y-82707000D01*
X99217000Y-82707000D02*
X99217000Y-76454000D01*
X137873500Y-79834500D02*
X137795000Y-79756000D01*
X137873500Y-84836000D02*
X137873500Y-79834500D01*
X137795000Y-78956000D02*
X137795000Y-74676000D01*
X137795000Y-79756000D02*
X137795000Y-78956000D01*
X137795000Y-74676000D02*
X137795000Y-69596000D01*
X137873500Y-87200500D02*
X137873500Y-84836000D01*
X139446000Y-88773000D02*
X137873500Y-87200500D01*
X147701000Y-88773000D02*
X139446000Y-88773000D01*
X155321000Y-89789000D02*
X148717000Y-89789000D01*
X148717000Y-89789000D02*
X147701000Y-88773000D01*
X137873500Y-84836000D02*
X133985000Y-84836000D01*
X133524000Y-84375000D02*
X125960000Y-84375000D01*
X133985000Y-84836000D02*
X133524000Y-84375000D01*
X102489000Y-68072000D02*
X111760000Y-68072000D01*
X99217000Y-76454000D02*
X99217000Y-71344000D01*
X99217000Y-71344000D02*
X102489000Y-68072000D01*
X125960000Y-84375000D02*
X123745000Y-84375000D01*
X123745000Y-84375000D02*
X122174000Y-82804000D01*
X121849000Y-82804000D02*
X118340000Y-79295000D01*
X122174000Y-82804000D02*
X121849000Y-82804000D01*
X117540001Y-78495001D02*
X114690001Y-78495001D01*
X118340000Y-79295000D02*
X117540001Y-78495001D01*
X114690001Y-78495001D02*
X111633000Y-75438000D01*
X111760000Y-75311000D02*
X111760000Y-68072000D01*
X111633000Y-75438000D02*
X111760000Y-75311000D01*
X137795000Y-69596000D02*
X135382000Y-69596000D01*
X135382000Y-69596000D02*
X135255000Y-69469000D01*
X126164000Y-81631000D02*
X125960000Y-81835000D01*
X131191000Y-81631000D02*
X126164000Y-81631000D01*
X111760000Y-65609500D02*
X111760000Y-62835000D01*
X111760000Y-66197000D02*
X111760000Y-65609500D01*
X111760000Y-62835000D02*
X113889000Y-62835000D01*
X115109000Y-64055000D02*
X118340000Y-64055000D01*
X113889000Y-62835000D02*
X115109000Y-64055000D01*
X121147000Y-60198000D02*
X134620000Y-60198000D01*
X118340000Y-64055000D02*
X118340000Y-63005000D01*
X118340000Y-63005000D02*
X121147000Y-60198000D01*
X134620000Y-60198000D02*
X134620000Y-62357000D01*
X134620000Y-62357000D02*
X134747000Y-62230000D01*
X134747000Y-62230000D02*
X143256000Y-62230000D01*
X143256000Y-57912000D02*
X145161000Y-56007000D01*
X145161000Y-56007000D02*
X145161000Y-55880000D01*
X145923000Y-55118000D02*
X155575000Y-55118000D01*
X145161000Y-55880000D02*
X145923000Y-55118000D01*
X101092000Y-76454000D02*
X105694000Y-76454000D01*
X138557000Y-106426000D02*
X138557000Y-97790000D01*
X138557000Y-97790000D02*
X133350000Y-97790000D01*
X132635000Y-97075000D02*
X125960000Y-97075000D01*
X133350000Y-97790000D02*
X132635000Y-97075000D01*
X138557000Y-95915000D02*
X138557000Y-92710000D01*
X143637000Y-106426000D02*
X143637000Y-97711500D01*
X143637000Y-97711500D02*
X141526500Y-97711500D01*
X141526500Y-97711500D02*
X141351000Y-97536000D01*
X126007000Y-94488000D02*
X125960000Y-94535000D01*
X135509000Y-94488000D02*
X126007000Y-94488000D01*
X143637000Y-95836500D02*
X143637000Y-92631500D01*
X155194000Y-84836000D02*
X155321000Y-84709000D01*
X147447000Y-84836000D02*
X155194000Y-84836000D01*
X143002000Y-83058000D02*
X142240000Y-82296000D01*
X143002000Y-84836000D02*
X143002000Y-83058000D01*
X143002000Y-84836000D02*
X147447000Y-84836000D01*
X139748500Y-84836000D02*
X143002000Y-84836000D01*
X135236001Y-81896001D02*
X135236001Y-79737001D01*
X135636000Y-82296000D02*
X135236001Y-81896001D01*
X132254000Y-76755000D02*
X125960000Y-76755000D01*
X135236001Y-79737001D02*
X132254000Y-76755000D01*
X139670000Y-79756000D02*
X140257500Y-79756000D01*
X155194000Y-79756000D02*
X155321000Y-79629000D01*
X147447000Y-79756000D02*
X155194000Y-79756000D01*
X143002000Y-77978000D02*
X142113000Y-77089000D01*
X143002000Y-79756000D02*
X143002000Y-77978000D01*
X143002000Y-79756000D02*
X147447000Y-79756000D01*
X140257500Y-79756000D02*
X143002000Y-79756000D01*
X135109001Y-76689001D02*
X134728001Y-76689001D01*
X135509000Y-77089000D02*
X135109001Y-76689001D01*
X132254000Y-74215000D02*
X125960000Y-74215000D01*
X134728001Y-76689001D02*
X132254000Y-74215000D01*
X155194000Y-74676000D02*
X155321000Y-74549000D01*
X147447000Y-74676000D02*
X155194000Y-74676000D01*
X143002000Y-74676000D02*
X143002000Y-72644000D01*
X143002000Y-74676000D02*
X147447000Y-74676000D01*
X139670000Y-74676000D02*
X143002000Y-74676000D01*
X143002000Y-72644000D02*
X142494000Y-72136000D01*
X142494000Y-72136000D02*
X141986000Y-72136000D01*
X135382000Y-72136000D02*
X130048000Y-72136000D01*
X129587000Y-71675000D02*
X125960000Y-71675000D01*
X130048000Y-72136000D02*
X129587000Y-71675000D01*
X155194000Y-69596000D02*
X155321000Y-69469000D01*
X147447000Y-69596000D02*
X155194000Y-69596000D01*
X143002000Y-69596000D02*
X143002000Y-67818000D01*
X143002000Y-69596000D02*
X139670000Y-69596000D01*
X147447000Y-69596000D02*
X143002000Y-69596000D01*
X143002000Y-67818000D02*
X142494000Y-67310000D01*
X142494000Y-67310000D02*
X131191000Y-67310000D01*
X129366000Y-69135000D02*
X125960000Y-69135000D01*
X131191000Y-67310000D02*
X129366000Y-69135000D01*
X125960000Y-91995000D02*
X132033000Y-91995000D01*
X132033000Y-91995000D02*
X132080000Y-91948000D01*
X132207000Y-65913000D02*
X140970000Y-65913000D01*
X125960000Y-86915000D02*
X129968000Y-86915000D01*
X129968000Y-86915000D02*
X130048000Y-86995000D01*
X134493000Y-57785000D02*
X134620000Y-57658000D01*
X129921000Y-57785000D02*
X134493000Y-57785000D01*
X125960000Y-89455000D02*
X131111000Y-89455000D01*
X131111000Y-89455000D02*
X131191000Y-89535000D01*
X125960000Y-64055000D02*
X145368000Y-64055000D01*
X149225000Y-60198000D02*
X155575000Y-60198000D01*
X145368000Y-64055000D02*
X149225000Y-60198000D01*
X128049990Y-64505010D02*
X147076990Y-64505010D01*
X125960000Y-66595000D02*
X128049990Y-64505010D01*
X148844000Y-62738000D02*
X155575000Y-62738000D01*
X147076990Y-64505010D02*
X148844000Y-62738000D01*
X109474000Y-88138000D02*
X113411000Y-88138000D01*
X113411000Y-88138000D02*
X114681000Y-86868000D01*
X114728000Y-86915000D02*
X118340000Y-86915000D01*
X114681000Y-86868000D02*
X114728000Y-86915000D01*
X115236000Y-84375000D02*
X118340000Y-84375000D01*
X109474000Y-83058000D02*
X113919000Y-83058000D01*
X113919000Y-83058000D02*
X115236000Y-84375000D01*
M02*
